<svg width="432" height="57" viewBox="0 0 432 57" fill="none" xmlns="http://www.w3.org/2000/svg">
<path d="M58.5703 28.2109H29.8594V0L58.5703 28.2109Z" fill="black"/>
<path d="M259.547 28.2109H230.836V0L259.547 28.2109Z" fill="black"/>
<path d="M87.2812 28.2109H58.5703V0L87.2812 28.2109Z" fill="black"/>
<path d="M288.258 28.2109H259.547V0L288.258 28.2109Z" fill="black"/>
<path d="M115.992 28.2109H87.2812V0L115.992 28.2109Z" fill="black"/>
<path d="M316.969 28.2109H288.258V0L316.969 28.2109Z" fill="black"/>
<path d="M144.703 28.2109H115.992V0L144.703 28.2109Z" fill="black"/>
<path d="M345.68 28.2109H316.969V0L345.68 28.2109Z" fill="black"/>
<path d="M173.414 28.2109H144.703V0L173.414 28.2109Z" fill="black"/>
<path d="M374.391 28.2109H345.68V0L374.391 28.2109Z" fill="black"/>
<path d="M202.125 28.2109H173.414V0L202.125 28.2109Z" fill="black"/>
<path d="M403.102 28.2109H374.391V0L403.102 28.2109Z" fill="black"/>
<path d="M230.836 28.2109H202.125V0L230.836 28.2109Z" fill="black"/>
<path d="M431.812 28.2109H403.102V0L431.812 28.2109Z" fill="black"/>
<path d="M28.7109 56.4219H0V28.2109L28.7109 56.4219Z" fill="black"/>
<path d="M229.688 56.4219H200.977V28.2109L229.688 56.4219Z" fill="black"/>
<path d="M57.4219 56.4219H28.7109V28.2109L57.4219 56.4219Z" fill="black"/>
<path d="M258.398 56.4219H229.688V28.2109L258.398 56.4219Z" fill="black"/>
<path d="M86.1328 56.4219H57.4219V28.2109L86.1328 56.4219Z" fill="black"/>
<path d="M287.109 56.4219H258.398V28.2109L287.109 56.4219Z" fill="black"/>
<path d="M114.844 56.4219H86.1328V28.2109L114.844 56.4219Z" fill="black"/>
<path d="M315.82 56.4219H287.109V28.2109L315.82 56.4219Z" fill="black"/>
<path d="M143.555 56.4219H114.844V28.2109L143.555 56.4219Z" fill="black"/>
<path d="M344.531 56.4219H315.82V28.2109L344.531 56.4219Z" fill="black"/>
<path d="M172.266 56.4219H143.555V28.2109L172.266 56.4219Z" fill="black"/>
<path d="M373.242 56.4219H344.531V28.2109L373.242 56.4219Z" fill="black"/>
<path d="M200.977 56.4219H172.266V28.2109L200.977 56.4219Z" fill="black"/>
<path d="M401.953 56.4219H373.242V28.2109L401.953 56.4219Z" fill="black"/>
</svg>
