<svg width="601" height="395" viewBox="0 0 601 395" fill="none" xmlns="http://www.w3.org/2000/svg">
<path opacity="0.2" d="M126.37 131.5V130.256L131.822 129.367V86.2259L126.37 85.3963V84.0926H143.793V85.3963L138.341 86.2259V130.078H156.059L160.919 117.041H162.519V131.5H126.37ZM181.885 132.093C179.04 132.093 176.453 131.441 174.122 130.137C171.791 128.794 169.934 126.917 168.551 124.507C167.208 122.058 166.537 119.273 166.537 116.152C166.537 113.031 167.208 110.265 168.551 107.856C169.934 105.446 171.791 103.589 174.122 102.285C176.453 100.942 179.04 100.27 181.885 100.27C184.729 100.27 187.317 100.942 189.648 102.285C191.979 103.589 193.816 105.446 195.159 107.856C196.542 110.265 197.233 113.031 197.233 116.152C197.233 119.273 196.542 122.058 195.159 124.507C193.816 126.917 191.979 128.794 189.648 130.137C187.317 131.441 184.729 132.093 181.885 132.093ZM181.885 130.789C184.808 130.789 187.001 129.722 188.463 127.589C189.964 125.456 190.714 122.631 190.714 119.115V113.189C190.714 109.673 189.964 106.868 188.463 104.774C187.001 102.641 184.808 101.574 181.885 101.574C178.961 101.574 176.749 102.641 175.248 104.774C173.786 106.868 173.055 109.673 173.055 113.189V119.115C173.055 122.631 173.786 125.456 175.248 127.589C176.749 129.722 178.961 130.789 181.885 130.789ZM214.299 132.685L201.617 102.581L197.765 101.989V100.804H212.521V101.989L208.254 102.759L217.202 125.041L225.202 103.53L219.988 102.048V100.863H230.595V102.048L226.862 103.47L215.958 132.685H214.299ZM247.054 132.093C244.13 132.093 241.483 131.441 239.113 130.137C236.743 128.794 234.866 126.917 233.483 124.507C232.101 122.098 231.409 119.312 231.409 116.152C231.409 112.991 232.081 110.226 233.424 107.856C234.807 105.446 236.644 103.589 238.935 102.285C241.266 100.942 243.854 100.27 246.698 100.27C249.187 100.27 251.419 100.823 253.394 101.93C255.37 103.036 256.91 104.577 258.017 106.552C259.123 108.488 259.696 110.72 259.735 113.248H237.928V119.115C237.928 122.591 238.698 125.416 240.239 127.589C241.819 129.722 244.091 130.789 247.054 130.789C249.78 130.789 252.19 130.019 254.283 128.478C256.377 126.937 257.661 124.942 258.135 122.493H259.498C258.945 125.416 257.543 127.747 255.291 129.485C253.039 131.223 250.293 132.093 247.054 132.093ZM253.217 111.767C253.217 108.33 252.683 105.781 251.617 104.122C250.55 102.423 248.891 101.574 246.639 101.574C243.992 101.574 241.938 102.502 240.476 104.359C239.014 106.216 238.185 108.685 237.987 111.767H253.217ZM277.501 130.315L281.65 129.722V85.8704L277.501 85.2778V84.0926H287.575V107.204C289.037 105.07 290.756 103.391 292.731 102.167C294.706 100.902 296.84 100.27 299.131 100.27C301.975 100.27 304.208 100.981 305.827 102.404C307.487 103.826 308.316 105.94 308.316 108.744V129.722L312.464 130.315V131.5H298.835V130.315L302.39 129.722V108.863C302.39 106.809 301.975 105.228 301.146 104.122C300.316 102.977 299.032 102.404 297.294 102.404C295.477 102.404 293.719 103.075 292.02 104.419C290.361 105.722 288.879 107.342 287.575 109.278V129.722L291.131 130.315V131.5H277.501V130.315ZM321.466 93.9296C320.36 93.9296 319.412 93.5543 318.622 92.8037C317.832 92.0136 317.437 91.0654 317.437 89.9593C317.437 88.8531 317.812 87.9247 318.562 87.1741C319.353 86.4235 320.321 86.0481 321.466 86.0481C322.533 86.0481 323.442 86.4235 324.192 87.1741C324.943 87.9247 325.318 88.8531 325.318 89.9593C325.318 91.0654 324.943 92.0136 324.192 92.8037C323.442 93.5543 322.533 93.9296 321.466 93.9296ZM315.185 131.5V130.315L319.333 129.722V102.641L315.185 102.048V100.863H325.259V129.722L329.407 130.315V131.5H315.185ZM331.84 131.5V130.315L335.988 129.722V85.8704L331.84 85.2778V84.0926H341.914V114.493L355.485 103.352L350.329 101.989V100.804H361.47V101.989L357.677 103.352L347.84 111.411L361.707 129.781L364.907 130.315V131.5H351.04V130.315L354.596 129.722L343.455 115.026L341.914 116.33V129.722L345.47 130.315V131.5H331.84ZM372.103 93.9296C370.997 93.9296 370.048 93.5543 369.258 92.8037C368.468 92.0136 368.073 91.0654 368.073 89.9593C368.073 88.8531 368.448 87.9247 369.199 87.1741C369.989 86.4235 370.957 86.0481 372.103 86.0481C373.169 86.0481 374.078 86.4235 374.829 87.1741C375.579 87.9247 375.955 88.8531 375.955 89.9593C375.955 91.0654 375.579 92.0136 374.829 92.8037C374.078 93.5543 373.169 93.9296 372.103 93.9296ZM365.821 131.5V130.315L369.969 129.722V102.641L365.821 102.048V100.863H375.895V129.722L380.044 130.315V131.5H365.821ZM382.892 130.315L387.04 129.722V102.581L382.892 101.989V100.804H392.966V107.204C394.427 105.07 396.146 103.391 398.121 102.167C400.097 100.902 402.23 100.27 404.521 100.27C407.366 100.27 409.598 100.981 411.218 102.404C412.877 103.826 413.706 105.94 413.706 108.744V129.722L417.855 130.315V131.5H404.225V130.315L407.781 129.722V108.863C407.781 106.809 407.366 105.228 406.536 104.122C405.706 102.977 404.423 102.404 402.684 102.404C400.867 102.404 399.109 103.075 397.41 104.419C395.751 105.722 394.269 107.342 392.966 109.278V129.722L396.521 130.315V131.5H382.892V130.315ZM450.907 98.0185C450.907 99.5593 450.335 100.883 449.189 101.989C448.043 103.095 446.226 103.806 443.737 104.122C444.764 105.623 445.278 107.678 445.278 110.285C445.278 113.367 444.172 115.796 441.959 117.574C439.786 119.352 437.021 120.241 433.663 120.241C432.28 120.241 431.016 120.122 429.87 119.885C427.342 120.043 426.078 121.031 426.078 122.848C426.078 123.875 426.493 124.626 427.322 125.1C428.191 125.574 429.554 125.811 431.411 125.811H438.048C441.248 125.811 443.619 126.463 445.159 127.767C446.74 129.07 447.53 131.302 447.53 134.463C447.53 136.675 446.957 138.71 445.811 140.567C444.705 142.423 443.085 143.885 440.952 144.952C438.819 146.058 436.27 146.611 433.307 146.611C428.843 146.611 425.544 145.94 423.411 144.596C421.317 143.253 420.27 141.475 420.27 139.263C420.27 137.92 420.784 136.735 421.811 135.707C422.838 134.68 424.241 134.167 426.019 134.167C426.374 134.167 427.105 134.246 428.211 134.404C426.986 135.707 426.374 137.248 426.374 139.026C426.374 140.725 426.967 142.206 428.152 143.47C429.337 144.735 431.273 145.367 433.959 145.367C436.29 145.367 438.364 144.912 440.181 144.004C442.038 143.135 443.46 141.989 444.448 140.567C445.436 139.144 445.93 137.683 445.93 136.181C445.93 134.522 445.396 133.317 444.33 132.567C443.263 131.856 441.367 131.5 438.641 131.5H431.411C428.646 131.5 426.552 130.967 425.13 129.9C423.747 128.794 423.056 127.174 423.056 125.041C423.056 123.619 423.451 122.374 424.241 121.307C425.07 120.201 426.117 119.49 427.381 119.174C423.944 117.712 422.226 114.749 422.226 110.285C422.226 107.164 423.312 104.715 425.485 102.937C427.658 101.159 430.384 100.27 433.663 100.27C437.811 100.27 440.814 101.14 442.67 102.878C443.777 102.68 444.606 102.325 445.159 101.811C445.712 101.258 445.989 100.646 445.989 99.9741C445.989 99.342 445.811 98.8679 445.456 98.5518C445.1 98.1963 444.685 98.0185 444.211 98.0185C444.211 97.1494 444.527 96.3988 445.159 95.7667C445.831 95.0951 446.621 94.7593 447.53 94.7593C448.517 94.7593 449.327 95.0556 449.959 95.6481C450.591 96.2407 450.907 97.0309 450.907 98.0185ZM439.707 108.804C439.707 106.394 439.194 104.537 438.167 103.233C437.179 101.93 435.678 101.278 433.663 101.278C429.752 101.278 427.796 103.786 427.796 108.804V111.707C427.796 114.038 428.27 115.875 429.219 117.219C430.206 118.562 431.688 119.233 433.663 119.233C435.678 119.233 437.179 118.562 438.167 117.219C439.194 115.875 439.707 114.038 439.707 111.707V108.804Z" fill="black"/>
<path opacity="0.2" d="M106.24 41.3C103.333 41.3 100.733 40.5933 98.44 39.18C96.1467 37.7667 94.36 35.7933 93.08 33.26C91.8 30.7 91.16 27.78 91.16 24.5C91.16 21.22 91.8 18.3133 93.08 15.78C94.36 13.22 96.1467 11.2333 98.44 9.82C100.733 8.40667 103.333 7.7 106.24 7.7C109.147 7.7 111.747 8.40667 114.04 9.82C116.333 11.2333 118.12 13.22 119.4 15.78C120.68 18.3133 121.32 21.22 121.32 24.5C121.32 27.78 120.68 30.7 119.4 33.26C118.12 35.7933 116.333 37.7667 114.04 39.18C111.747 40.5933 109.147 41.3 106.24 41.3ZM106.24 40.38C108.16 40.38 109.88 39.8733 111.4 38.86C112.947 37.8467 114.16 36.38 115.04 34.46C115.92 32.5133 116.36 30.22 116.36 27.58V21.42C116.36 18.78 115.92 16.5 115.04 14.58C114.16 12.6333 112.947 11.1533 111.4 10.14C109.88 9.12666 108.16 8.62 106.24 8.62C104.293 8.62 102.56 9.12666 101.04 10.14C99.52 11.1533 98.32 12.6333 97.44 14.58C96.56 16.5 96.12 18.78 96.12 21.42V27.58C96.12 30.22 96.56 32.5133 97.44 34.46C98.32 36.38 99.52 37.8467 101.04 38.86C102.56 39.8733 104.293 40.38 106.24 40.38ZM124.572 39.7L127.372 39.3V20.98L124.572 20.58V19.78H131.372V22.86C133.052 20.5667 134.946 19.42 137.052 19.42C138.066 19.42 138.959 19.6867 139.732 20.22C140.506 20.7267 140.892 21.46 140.892 22.42C140.892 23.1133 140.666 23.7 140.212 24.18C139.759 24.6333 139.159 24.86 138.412 24.86C137.559 24.86 136.866 24.5267 136.332 23.86C136.626 23.4867 136.772 23.0867 136.772 22.66C136.772 22.2067 136.612 21.8467 136.292 21.58C135.999 21.2867 135.599 21.14 135.092 21.14C134.532 21.14 133.959 21.4067 133.372 21.94C132.786 22.4467 132.119 23.2467 131.372 24.34V39.3L134.572 39.7V40.5H124.572V39.7ZM162.788 17.9C162.788 18.94 162.401 19.8333 161.628 20.58C160.854 21.3267 159.628 21.8067 157.948 22.02C158.641 23.0333 158.988 24.42 158.988 26.18C158.988 28.26 158.241 29.9 156.748 31.1C155.281 32.3 153.414 32.9 151.148 32.9C150.214 32.9 149.361 32.82 148.588 32.66C146.881 32.7667 146.028 33.4333 146.028 34.66C146.028 35.3533 146.308 35.86 146.868 36.18C147.454 36.5 148.374 36.66 149.628 36.66H154.108C156.268 36.66 157.868 37.1 158.908 37.98C159.974 38.86 160.508 40.3667 160.508 42.5C160.508 43.9933 160.121 45.3667 159.348 46.62C158.601 47.8733 157.508 48.86 156.068 49.58C154.628 50.3267 152.908 50.7 150.908 50.7C147.894 50.7 145.668 50.2467 144.228 49.34C142.814 48.4333 142.108 47.2333 142.108 45.74C142.108 44.8333 142.454 44.0333 143.148 43.34C143.841 42.6467 144.788 42.3 145.988 42.3C146.228 42.3 146.721 42.3533 147.468 42.46C146.641 43.34 146.228 44.38 146.228 45.58C146.228 46.7267 146.628 47.7267 147.428 48.58C148.228 49.4333 149.534 49.86 151.348 49.86C152.921 49.86 154.321 49.5533 155.548 48.94C156.801 48.3533 157.761 47.58 158.428 46.62C159.094 45.66 159.428 44.6733 159.428 43.66C159.428 42.54 159.068 41.7267 158.348 41.22C157.628 40.74 156.348 40.5 154.508 40.5H149.628C147.761 40.5 146.348 40.14 145.388 39.42C144.454 38.6733 143.988 37.58 143.988 36.14C143.988 35.18 144.254 34.34 144.788 33.62C145.348 32.8733 146.054 32.3933 146.908 32.18C144.588 31.1933 143.428 29.1933 143.428 26.18C143.428 24.0733 144.161 22.42 145.628 21.22C147.094 20.02 148.934 19.42 151.148 19.42C153.948 19.42 155.974 20.0067 157.228 21.18C157.974 21.0467 158.534 20.8067 158.908 20.46C159.281 20.0867 159.468 19.6733 159.468 19.22C159.468 18.7933 159.348 18.4733 159.108 18.26C158.868 18.02 158.588 17.9 158.268 17.9C158.268 17.3133 158.481 16.8067 158.908 16.38C159.361 15.9267 159.894 15.7 160.508 15.7C161.174 15.7 161.721 15.9 162.148 16.3C162.574 16.7 162.788 17.2333 162.788 17.9ZM155.228 25.18C155.228 23.5533 154.881 22.3 154.188 21.42C153.521 20.54 152.508 20.1 151.148 20.1C148.508 20.1 147.188 21.7933 147.188 25.18V27.14C147.188 28.7133 147.508 29.9533 148.148 30.86C148.814 31.7667 149.814 32.22 151.148 32.22C152.508 32.22 153.521 31.7667 154.188 30.86C154.881 29.9533 155.228 28.7133 155.228 27.14V25.18ZM170.274 40.9C168.567 40.9 167.167 40.46 166.074 39.58C164.98 38.6733 164.434 37.34 164.434 35.58C164.434 33.0733 165.487 31.3 167.594 30.26C169.7 29.1933 172.14 28.66 174.914 28.66H177.594V25.58C177.594 24.1933 177.434 23.1267 177.114 22.38C176.82 21.6067 176.354 21.0733 175.714 20.78C175.074 20.46 174.207 20.3 173.114 20.3C171.86 20.3 170.927 20.5533 170.314 21.06C169.7 21.54 169.394 22.1933 169.394 23.02C169.394 23.7933 169.767 24.3 170.514 24.54C170.514 25.2067 170.26 25.7933 169.754 26.3C169.247 26.8067 168.647 27.06 167.954 27.06C167.207 27.06 166.607 26.86 166.154 26.46C165.7 26.0333 165.474 25.3933 165.474 24.54C165.474 22.9933 166.247 21.7533 167.794 20.82C169.34 19.8867 171.274 19.42 173.594 19.42C178.927 19.42 181.594 21.74 181.594 26.38V37.82C181.594 38.4067 181.714 38.86 181.954 39.18C182.22 39.4733 182.594 39.62 183.074 39.62C183.527 39.62 183.887 39.4733 184.154 39.18C184.42 38.86 184.554 38.4333 184.554 37.9H185.394C185.394 38.8333 185.087 39.5667 184.474 40.1C183.887 40.6333 183.06 40.9 181.994 40.9C180.767 40.9 179.727 40.5533 178.874 39.86C178.047 39.14 177.62 38.0333 177.594 36.54C176.954 37.9 175.967 38.9667 174.634 39.74C173.327 40.5133 171.874 40.9 170.274 40.9ZM172.474 39.14C173.194 39.14 173.927 38.9267 174.674 38.5C175.447 38.0733 176.1 37.46 176.634 36.66C177.167 35.8333 177.487 34.8467 177.594 33.7V29.54H174.914C172.727 29.54 171.087 30.0333 169.994 31.02C168.927 31.98 168.394 33.34 168.394 35.1C168.394 36.5667 168.74 37.6067 169.434 38.22C170.127 38.8333 171.14 39.14 172.474 39.14ZM186.369 39.7L189.169 39.3V20.98L186.369 20.58V19.78H193.169V24.1C194.156 22.66 195.316 21.5267 196.649 20.7C197.982 19.8467 199.422 19.42 200.969 19.42C202.889 19.42 204.396 19.9 205.489 20.86C206.609 21.82 207.169 23.2467 207.169 25.14V39.3L209.969 39.7V40.5H200.769V39.7L203.169 39.3V25.22C203.169 23.8333 202.889 22.7667 202.329 22.02C201.769 21.2467 200.902 20.86 199.729 20.86C198.502 20.86 197.316 21.3133 196.169 22.22C195.049 23.1 194.049 24.1933 193.169 25.5V39.3L195.569 39.7V40.5H186.369V39.7ZM216.04 15.14C215.293 15.14 214.653 14.8867 214.12 14.38C213.586 13.8467 213.32 13.2067 213.32 12.46C213.32 11.7133 213.573 11.0867 214.08 10.58C214.613 10.0733 215.266 9.82 216.04 9.82C216.76 9.82 217.373 10.0733 217.88 10.58C218.386 11.0867 218.64 11.7133 218.64 12.46C218.64 13.2067 218.386 13.8467 217.88 14.38C217.373 14.8867 216.76 15.14 216.04 15.14ZM211.8 40.5V39.7L214.6 39.3V21.02L211.8 20.62V19.82H218.6V39.3L221.4 39.7V40.5H211.8ZM231.842 40.9C229.656 40.9 227.829 40.4333 226.362 39.5C224.896 38.5667 224.162 37.3533 224.162 35.86C224.162 35.0867 224.362 34.4867 224.762 34.06C225.189 33.6067 225.749 33.38 226.442 33.38C226.976 33.38 227.429 33.5133 227.802 33.78C228.176 34.0467 228.442 34.42 228.602 34.9C228.016 35.54 227.722 36.22 227.722 36.94C227.722 37.7667 228.096 38.4867 228.842 39.1C229.589 39.7133 230.589 40.02 231.842 40.02C233.522 40.02 234.896 39.6467 235.962 38.9C237.029 38.1267 237.562 37.1 237.562 35.82C237.562 35.0733 237.336 34.5133 236.882 34.14C236.429 33.7667 235.549 33.34 234.242 32.86L228.202 30.66C225.829 29.8067 224.642 28.22 224.642 25.9C224.642 24.0067 225.296 22.46 226.602 21.26C227.909 20.0333 229.709 19.42 232.002 19.42C233.896 19.42 235.509 19.86 236.842 20.74C238.202 21.5933 238.882 22.82 238.882 24.42C238.882 25.06 238.709 25.58 238.362 25.98C238.016 26.3533 237.562 26.54 237.002 26.54C236.442 26.54 235.976 26.3933 235.602 26.1C235.256 25.78 235.082 25.3533 235.082 24.82C235.429 24.5533 235.669 24.2733 235.802 23.98C235.936 23.66 236.002 23.2867 236.002 22.86C236.002 22.1133 235.669 21.5 235.002 21.02C234.362 20.54 233.362 20.3 232.002 20.3C230.829 20.3 229.816 20.4867 228.962 20.86C228.136 21.2067 227.509 21.6733 227.082 22.26C226.656 22.8467 226.442 23.4467 226.442 24.06C226.442 24.7 226.669 25.2067 227.122 25.58C227.602 25.9533 228.469 26.3667 229.722 26.82L235.322 28.82C236.629 29.3 237.616 29.9667 238.282 30.82C238.949 31.6733 239.282 32.78 239.282 34.14C239.282 36.0867 238.669 37.7 237.442 38.98C236.216 40.26 234.349 40.9 231.842 40.9ZM248.946 40.9C247.239 40.9 245.839 40.46 244.746 39.58C243.652 38.6733 243.106 37.34 243.106 35.58C243.106 33.0733 244.159 31.3 246.266 30.26C248.372 29.1933 250.812 28.66 253.586 28.66H256.266V25.58C256.266 24.1933 256.106 23.1267 255.786 22.38C255.492 21.6067 255.026 21.0733 254.386 20.78C253.746 20.46 252.879 20.3 251.786 20.3C250.532 20.3 249.599 20.5533 248.986 21.06C248.372 21.54 248.066 22.1933 248.066 23.02C248.066 23.7933 248.439 24.3 249.186 24.54C249.186 25.2067 248.932 25.7933 248.426 26.3C247.919 26.8067 247.319 27.06 246.626 27.06C245.879 27.06 245.279 26.86 244.826 26.46C244.372 26.0333 244.146 25.3933 244.146 24.54C244.146 22.9933 244.919 21.7533 246.466 20.82C248.012 19.8867 249.946 19.42 252.266 19.42C257.599 19.42 260.266 21.74 260.266 26.38V37.82C260.266 38.4067 260.386 38.86 260.626 39.18C260.892 39.4733 261.266 39.62 261.746 39.62C262.199 39.62 262.559 39.4733 262.826 39.18C263.092 38.86 263.226 38.4333 263.226 37.9H264.066C264.066 38.8333 263.759 39.5667 263.146 40.1C262.559 40.6333 261.732 40.9 260.666 40.9C259.439 40.9 258.399 40.5533 257.546 39.86C256.719 39.14 256.292 38.0333 256.266 36.54C255.626 37.9 254.639 38.9667 253.306 39.74C251.999 40.5133 250.546 40.9 248.946 40.9ZM251.146 39.14C251.866 39.14 252.599 38.9267 253.346 38.5C254.119 38.0733 254.772 37.46 255.306 36.66C255.839 35.8333 256.159 34.8467 256.266 33.7V29.54H253.586C251.399 29.54 249.759 30.0333 248.666 31.02C247.599 31.98 247.066 33.34 247.066 35.1C247.066 36.5667 247.412 37.6067 248.106 38.22C248.799 38.8333 249.812 39.14 251.146 39.14ZM273.321 40.9C271.561 40.9 270.148 40.46 269.081 39.58C268.041 38.7 267.521 37.3 267.521 35.38V20.98L264.681 20.58V19.78H267.521V16.46L271.521 15.46V19.78H276.721V20.58L271.521 20.98V35.3C271.521 38.1267 272.534 39.54 274.561 39.54C274.988 39.54 275.388 39.4733 275.761 39.34C276.161 39.2067 276.468 39.0733 276.681 38.94C276.921 38.8067 277.068 38.7133 277.121 38.66L277.641 39.3C276.441 40.3667 275.001 40.9 273.321 40.9ZM283.188 15.14C282.441 15.14 281.801 14.8867 281.268 14.38C280.735 13.8467 280.468 13.2067 280.468 12.46C280.468 11.7133 280.721 11.0867 281.228 10.58C281.761 10.0733 282.415 9.82 283.188 9.82C283.908 9.82 284.521 10.0733 285.028 10.58C285.535 11.0867 285.788 11.7133 285.788 12.46C285.788 13.2067 285.535 13.8467 285.028 14.38C284.521 14.8867 283.908 15.14 283.188 15.14ZM278.948 40.5V39.7L281.748 39.3V21.02L278.948 20.62V19.82H285.748V39.3L288.548 39.7V40.5H278.948ZM301.471 40.9C299.551 40.9 297.804 40.46 296.231 39.58C294.657 38.6733 293.404 37.4067 292.471 35.78C291.564 34.1267 291.111 32.2467 291.111 30.14C291.111 28.0333 291.564 26.1667 292.471 24.54C293.404 22.9133 294.657 21.66 296.231 20.78C297.804 19.8733 299.551 19.42 301.471 19.42C303.391 19.42 305.137 19.8733 306.711 20.78C308.284 21.66 309.524 22.9133 310.431 24.54C311.364 26.1667 311.831 28.0333 311.831 30.14C311.831 32.2467 311.364 34.1267 310.431 35.78C309.524 37.4067 308.284 38.6733 306.711 39.58C305.137 40.46 303.391 40.9 301.471 40.9ZM301.471 40.02C303.444 40.02 304.924 39.3 305.911 37.86C306.924 36.42 307.431 34.5133 307.431 32.14V28.14C307.431 25.7667 306.924 23.8733 305.911 22.46C304.924 21.02 303.444 20.3 301.471 20.3C299.497 20.3 298.004 21.02 296.991 22.46C296.004 23.8733 295.511 25.7667 295.511 28.14V32.14C295.511 34.5133 296.004 36.42 296.991 37.86C298.004 39.3 299.497 40.02 301.471 40.02ZM314.611 39.7L317.411 39.3V20.98L314.611 20.58V19.78H321.411V24.1C322.398 22.66 323.558 21.5267 324.891 20.7C326.225 19.8467 327.665 19.42 329.211 19.42C331.131 19.42 332.638 19.9 333.731 20.86C334.851 21.82 335.411 23.2467 335.411 25.14V39.3L338.211 39.7V40.5H329.011V39.7L331.411 39.3V25.22C331.411 23.8333 331.131 22.7667 330.571 22.02C330.011 21.2467 329.145 20.86 327.971 20.86C326.745 20.86 325.558 21.3133 324.411 22.22C323.291 23.1 322.291 24.1933 321.411 25.5V39.3L323.811 39.7V40.5H314.611V39.7ZM349.572 39.7L352.372 39.3V20.98L349.572 20.58V19.78H352.372V16.42C352.372 13.86 352.892 11.8333 353.932 10.34C354.972 8.84666 356.746 8.1 359.252 8.1C360.826 8.1 362.119 8.48666 363.132 9.26C364.172 10.0067 364.692 11.0333 364.692 12.34C364.692 13.14 364.466 13.7933 364.012 14.3C363.586 14.8067 362.999 15.06 362.252 15.06C361.586 15.06 360.999 14.8067 360.492 14.3C359.986 13.7933 359.732 13.2067 359.732 12.54C360.639 12.2733 361.092 11.6467 361.092 10.66C361.092 10.2067 360.906 9.82 360.532 9.5C360.186 9.15333 359.759 8.98 359.252 8.98C358.212 8.98 357.466 9.47333 357.012 10.46C356.586 11.42 356.372 12.9933 356.372 15.18V19.78H361.572V20.58L356.372 20.98V39.3L361.132 39.7V40.5H349.572V39.7ZM367.446 15.14C366.699 15.14 366.059 14.8867 365.526 14.38C364.993 13.8467 364.726 13.2067 364.726 12.46C364.726 11.7133 364.979 11.0867 365.486 10.58C366.019 10.0733 366.673 9.82 367.446 9.82C368.166 9.82 368.779 10.0733 369.286 10.58C369.793 11.0867 370.046 11.7133 370.046 12.46C370.046 13.2067 369.793 13.8467 369.286 14.38C368.779 14.8867 368.166 15.14 367.446 15.14ZM363.206 40.5V39.7L366.006 39.3V21.02L363.206 20.62V19.82H370.006V39.3L372.806 39.7V40.5H363.206ZM374.728 39.7L377.528 39.3V20.98L374.728 20.58V19.78H381.528V22.86C383.208 20.5667 385.102 19.42 387.208 19.42C388.222 19.42 389.115 19.6867 389.888 20.22C390.662 20.7267 391.048 21.46 391.048 22.42C391.048 23.1133 390.822 23.7 390.368 24.18C389.915 24.6333 389.315 24.86 388.568 24.86C387.715 24.86 387.022 24.5267 386.488 23.86C386.782 23.4867 386.928 23.0867 386.928 22.66C386.928 22.2067 386.768 21.8467 386.448 21.58C386.155 21.2867 385.755 21.14 385.248 21.14C384.688 21.14 384.115 21.4067 383.528 21.94C382.942 22.4467 382.275 23.2467 381.528 24.34V39.3L384.728 39.7V40.5H374.728V39.7ZM400.944 40.9C398.757 40.9 396.93 40.4333 395.464 39.5C393.997 38.5667 393.264 37.3533 393.264 35.86C393.264 35.0867 393.464 34.4867 393.864 34.06C394.29 33.6067 394.85 33.38 395.544 33.38C396.077 33.38 396.53 33.5133 396.904 33.78C397.277 34.0467 397.544 34.42 397.704 34.9C397.117 35.54 396.824 36.22 396.824 36.94C396.824 37.7667 397.197 38.4867 397.944 39.1C398.69 39.7133 399.69 40.02 400.944 40.02C402.624 40.02 403.997 39.6467 405.064 38.9C406.13 38.1267 406.664 37.1 406.664 35.82C406.664 35.0733 406.437 34.5133 405.984 34.14C405.53 33.7667 404.65 33.34 403.344 32.86L397.304 30.66C394.93 29.8067 393.744 28.22 393.744 25.9C393.744 24.0067 394.397 22.46 395.704 21.26C397.01 20.0333 398.81 19.42 401.104 19.42C402.997 19.42 404.61 19.86 405.944 20.74C407.304 21.5933 407.984 22.82 407.984 24.42C407.984 25.06 407.81 25.58 407.464 25.98C407.117 26.3533 406.664 26.54 406.104 26.54C405.544 26.54 405.077 26.3933 404.704 26.1C404.357 25.78 404.184 25.3533 404.184 24.82C404.53 24.5533 404.77 24.2733 404.904 23.98C405.037 23.66 405.104 23.2867 405.104 22.86C405.104 22.1133 404.77 21.5 404.104 21.02C403.464 20.54 402.464 20.3 401.104 20.3C399.93 20.3 398.917 20.4867 398.064 20.86C397.237 21.2067 396.61 21.6733 396.184 22.26C395.757 22.8467 395.544 23.4467 395.544 24.06C395.544 24.7 395.77 25.2067 396.224 25.58C396.704 25.9533 397.57 26.3667 398.824 26.82L404.424 28.82C405.73 29.3 406.717 29.9667 407.384 30.82C408.05 31.6733 408.384 32.78 408.384 34.14C408.384 36.0867 407.77 37.7 406.544 38.98C405.317 40.26 403.45 40.9 400.944 40.9ZM419.727 40.9C417.967 40.9 416.554 40.46 415.487 39.58C414.447 38.7 413.927 37.3 413.927 35.38V20.98L411.087 20.58V19.78H413.927V16.46L417.927 15.46V19.78H423.127V20.58L417.927 20.98V35.3C417.927 38.1267 418.941 39.54 420.967 39.54C421.394 39.54 421.794 39.4733 422.167 39.34C422.567 39.2067 422.874 39.0733 423.087 38.94C423.327 38.8067 423.474 38.7133 423.527 38.66L424.047 39.3C422.847 40.3667 421.407 40.9 419.727 40.9Z" fill="black"/>
<path opacity="0.2" d="M1.91235 223.5V222.496L6.31076 221.779V186.974L1.91235 186.305V185.253H15.9681V186.305L11.5697 186.974V222.353H25.8645L29.7849 211.835H31.0757V223.5H1.91235ZM38.668 193.189C37.7755 193.189 37.0106 192.886 36.3731 192.281C35.7357 191.643 35.417 190.878 35.417 189.986C35.417 189.094 35.7197 188.345 36.3253 187.739C36.9628 187.133 37.7436 186.831 38.668 186.831C39.5285 186.831 40.2616 187.133 40.8672 187.739C41.4727 188.345 41.7755 189.094 41.7755 189.986C41.7755 190.878 41.4727 191.643 40.8672 192.281C40.2616 192.886 39.5285 193.189 38.668 193.189ZM33.6002 223.5V222.544L36.9468 222.066V200.217L33.6002 199.739V198.783H41.7277V222.066L45.0743 222.544V223.5H33.6002ZM47.3721 222.544L50.7187 222.066V200.169L47.3721 199.691V198.735H55.4996V203.898C56.6789 202.177 58.0654 200.823 59.659 199.835C61.2526 198.815 62.9737 198.305 64.8223 198.305C67.1172 198.305 68.918 198.878 70.2247 200.026C71.5634 201.173 72.2327 202.878 72.2327 205.141V222.066L75.5793 222.544V223.5H64.5833V222.544L67.4518 222.066V205.237C67.4518 203.58 67.1172 202.305 66.4478 201.412C65.7785 200.488 64.7427 200.026 63.3403 200.026C61.8741 200.026 60.4558 200.568 59.0853 201.651C57.7466 202.703 56.5514 204.01 55.4996 205.572V222.066L58.3682 222.544V223.5H47.3721V222.544ZM87.9984 223.978C85.7036 223.978 83.8868 223.404 82.5482 222.257C81.2414 221.11 80.588 219.404 80.588 217.141V200.169L77.2414 199.691V198.735H85.3689V217.046C85.3689 218.671 85.7036 219.946 86.3729 220.871C87.0422 221.795 88.0781 222.257 89.4804 222.257C90.9466 222.257 92.349 221.779 93.6876 220.823C95.0581 219.835 96.2693 218.624 97.3211 217.189V200.169L93.9745 199.691V198.735H102.102V222.066L105.449 222.544V223.5H97.3211V218.91C96.1737 220.504 94.7872 221.747 93.1617 222.639C91.5681 223.532 89.847 223.978 87.9984 223.978ZM131.305 222.114L134.365 222.544V223.5H122.7V222.544L125.568 222.066L118.971 213.03L111.943 221.444L115.815 222.544V223.5H107.257V222.544L110.461 221.349L118.206 211.93L109.6 200.122L106.684 199.691V198.735H118.349V199.691L115.337 200.217L121.313 208.392L127.72 200.839L123.943 199.739V198.783H132.74V199.739L129.249 200.982L122.078 209.492L131.305 222.114ZM146.958 222.544L150.305 222.066V200.169L146.958 199.691V198.735H155.086V202.416C157.094 199.675 159.357 198.305 161.874 198.305C163.086 198.305 164.153 198.624 165.078 199.261C166.002 199.867 166.464 200.743 166.464 201.89C166.464 202.719 166.193 203.42 165.651 203.994C165.11 204.536 164.392 204.807 163.5 204.807C162.48 204.807 161.651 204.408 161.014 203.612C161.365 203.165 161.54 202.687 161.54 202.177C161.54 201.635 161.349 201.205 160.966 200.886C160.616 200.536 160.137 200.361 159.532 200.361C158.863 200.361 158.177 200.679 157.476 201.317C156.775 201.922 155.978 202.878 155.086 204.185V222.066L158.91 222.544V223.5H146.958V222.544ZM180.788 223.978C178.494 223.978 176.406 223.452 174.526 222.4C172.645 221.317 171.147 219.803 170.031 217.859C168.948 215.882 168.406 213.635 168.406 211.118C168.406 208.6 168.948 206.369 170.031 204.424C171.147 202.48 172.645 200.982 174.526 199.93C176.406 198.847 178.494 198.305 180.788 198.305C183.083 198.305 185.171 198.847 187.051 199.93C188.932 200.982 190.414 202.48 191.498 204.424C192.613 206.369 193.171 208.6 193.171 211.118C193.171 213.635 192.613 215.882 191.498 217.859C190.414 219.803 188.932 221.317 187.051 222.4C185.171 223.452 183.083 223.978 180.788 223.978ZM180.788 222.926C183.147 222.926 184.916 222.066 186.095 220.345C187.306 218.624 187.912 216.345 187.912 213.508V208.727C187.912 205.89 187.306 203.627 186.095 201.938C184.916 200.217 183.147 199.357 180.788 199.357C178.43 199.357 176.645 200.217 175.434 201.938C174.255 203.627 173.665 205.89 173.665 208.727V213.508C173.665 216.345 174.255 218.624 175.434 220.345C176.645 222.066 178.43 222.926 180.788 222.926ZM209.642 223.978C207.347 223.978 205.259 223.452 203.379 222.4C201.498 221.317 200 219.803 198.885 217.859C197.801 215.882 197.259 213.635 197.259 211.118C197.259 208.472 197.833 206.177 198.98 204.233C200.16 202.289 201.69 200.823 203.57 199.835C205.451 198.815 207.474 198.305 209.642 198.305C211.459 198.305 213.116 198.624 214.614 199.261C216.112 199.867 217.291 200.727 218.152 201.843C219.044 202.958 219.49 204.217 219.49 205.62C219.49 206.671 219.219 207.484 218.678 208.058C218.136 208.6 217.419 208.871 216.526 208.871C215.666 208.871 214.949 208.584 214.375 208.01C213.801 207.436 213.514 206.719 213.514 205.859C213.992 205.54 214.327 205.189 214.518 204.807C214.71 204.424 214.805 203.946 214.805 203.373C214.805 202.193 214.327 201.237 213.371 200.504C212.447 199.739 211.204 199.357 209.642 199.357C207.347 199.357 205.578 200.185 204.335 201.843C203.124 203.468 202.518 205.763 202.518 208.727V213.508C202.518 216.345 203.108 218.624 204.287 220.345C205.498 222.066 207.283 222.926 209.642 222.926C211.809 222.926 213.69 222.321 215.283 221.11C216.909 219.867 217.913 218.241 218.295 216.233H219.395C218.949 218.592 217.833 220.472 216.048 221.875C214.295 223.277 212.16 223.978 209.642 223.978ZM222.305 223.5V222.544L225.652 222.066V186.687L222.305 186.209V185.253H230.433V209.779L241.381 200.791L237.221 199.691V198.735H246.21V199.691L243.15 200.791L235.214 207.293L246.401 222.114L248.982 222.544V223.5H237.795V222.544L240.664 222.066L231.676 210.209L230.433 211.261V222.066L233.301 222.544V223.5H222.305ZM259.856 223.978C257.242 223.978 255.059 223.42 253.306 222.305C251.553 221.189 250.676 219.739 250.676 217.954C250.676 217.03 250.915 216.313 251.393 215.803C251.903 215.261 252.573 214.99 253.401 214.99C254.039 214.99 254.581 215.149 255.027 215.468C255.473 215.787 255.792 216.233 255.983 216.807C255.282 217.572 254.931 218.384 254.931 219.245C254.931 220.233 255.377 221.094 256.27 221.827C257.162 222.56 258.358 222.926 259.856 222.926C261.864 222.926 263.505 222.48 264.78 221.588C266.055 220.663 266.692 219.436 266.692 217.906C266.692 217.014 266.421 216.345 265.879 215.898C265.338 215.452 264.286 214.942 262.724 214.369L255.505 211.739C252.668 210.719 251.25 208.823 251.25 206.05C251.25 203.787 252.031 201.938 253.593 200.504C255.154 199.038 257.306 198.305 260.047 198.305C262.31 198.305 264.238 198.831 265.832 199.882C267.457 200.902 268.27 202.369 268.27 204.281C268.27 205.046 268.063 205.667 267.648 206.145C267.234 206.592 266.692 206.815 266.023 206.815C265.354 206.815 264.796 206.639 264.35 206.289C263.935 205.906 263.728 205.396 263.728 204.759C264.142 204.44 264.429 204.106 264.589 203.755C264.748 203.373 264.828 202.926 264.828 202.416C264.828 201.524 264.429 200.791 263.632 200.217C262.868 199.643 261.672 199.357 260.047 199.357C258.644 199.357 257.433 199.58 256.413 200.026C255.425 200.44 254.676 200.998 254.166 201.699C253.656 202.4 253.401 203.118 253.401 203.851C253.401 204.616 253.672 205.221 254.214 205.667C254.788 206.114 255.824 206.608 257.322 207.149L264.015 209.54C265.577 210.114 266.756 210.91 267.553 211.93C268.35 212.95 268.748 214.273 268.748 215.898C268.748 218.225 268.015 220.153 266.549 221.683C265.083 223.213 262.852 223.978 259.856 223.978Z" fill="black"/>
<path opacity="0.2" d="M420.99 277.983C419.187 277.983 417.835 277.548 416.933 276.679C416.032 275.81 415.42 274.329 415.098 272.236L414.18 265.765C413.859 263.576 413.102 261.869 411.911 260.646C410.752 259.39 408.933 258.762 406.454 258.762H402.687V275.761L407.13 276.486V277.5H392.932V276.486L397.375 275.761V240.604L392.932 239.928V238.866H406.454C411.701 238.866 415.5 239.687 417.851 241.329C420.201 242.971 421.376 245.466 421.376 248.814C421.376 254.352 418.028 257.555 411.331 258.424V258.714C413.81 259.068 415.79 259.954 417.271 261.37C418.784 262.787 419.734 264.67 420.12 267.02L420.748 271.174C421.006 272.977 421.296 274.2 421.618 274.844C421.972 275.488 422.503 275.81 423.211 275.81C423.694 275.81 424.209 275.665 424.757 275.375C425.304 275.053 425.819 274.651 426.302 274.168L427.123 275.037C426.189 276.1 425.223 276.856 424.225 277.307C423.227 277.758 422.149 277.983 420.99 277.983ZM408.096 257.603C410.446 257.603 412.265 256.895 413.553 255.479C414.873 254.03 415.533 251.905 415.533 249.104V248.09C415.533 242.745 412.506 240.073 406.454 240.073H402.687V257.603H408.096ZM437.774 277.983C435.456 277.983 433.621 277.403 432.269 276.244C430.949 275.085 430.289 273.363 430.289 271.077V253.933L426.909 253.45V252.484H435.118V270.98C435.118 272.622 435.456 273.91 436.133 274.844C436.809 275.778 437.855 276.244 439.272 276.244C440.753 276.244 442.169 275.761 443.521 274.796C444.906 273.798 446.129 272.574 447.192 271.125V253.933L443.811 253.45V252.484H452.021V276.051L455.401 276.534V277.5H447.192V272.864C446.033 274.474 444.632 275.729 442.99 276.631C441.38 277.532 439.642 277.983 437.774 277.983ZM457.905 276.534L461.285 276.051V253.933L457.905 253.45V252.484H466.114V257.7C467.306 255.961 468.706 254.593 470.316 253.595C471.926 252.565 473.664 252.05 475.531 252.05C477.849 252.05 479.669 252.629 480.989 253.788C482.341 254.947 483.017 256.67 483.017 258.956V276.051L486.397 276.534V277.5H475.29V276.534L478.188 276.051V259.052C478.188 257.378 477.849 256.09 477.173 255.189C476.497 254.255 475.451 253.788 474.034 253.788C472.553 253.788 471.121 254.336 469.736 255.43C468.384 256.493 467.177 257.813 466.114 259.39V276.051L469.012 276.534V277.5H457.905V276.534ZM488.559 276.534L491.94 276.051V253.933L488.559 253.45V252.484H496.769V257.7C497.96 255.961 499.361 254.593 500.97 253.595C502.58 252.565 504.319 252.05 506.186 252.05C508.504 252.05 510.323 252.629 511.643 253.788C512.995 254.947 513.671 256.67 513.671 258.956V276.051L517.052 276.534V277.5H505.945V276.534L508.842 276.051V259.052C508.842 257.378 508.504 256.09 507.828 255.189C507.152 254.255 506.105 253.788 504.689 253.788C503.208 253.788 501.775 254.336 500.391 255.43C499.039 256.493 497.831 257.813 496.769 259.39V276.051L499.666 276.534V277.5H488.559V276.534ZM524.381 246.882C523.48 246.882 522.707 246.577 522.063 245.965C521.419 245.321 521.097 244.548 521.097 243.647C521.097 242.745 521.403 241.989 522.015 241.377C522.659 240.765 523.447 240.46 524.381 240.46C525.25 240.46 525.991 240.765 526.602 241.377C527.214 241.989 527.52 242.745 527.52 243.647C527.52 244.548 527.214 245.321 526.602 245.965C525.991 246.577 525.25 246.882 524.381 246.882ZM519.262 277.5V276.534L522.642 276.051V253.981L519.262 253.499V252.533H527.472V276.051L530.852 276.534V277.5H519.262ZM533.173 276.534L536.554 276.051V253.933L533.173 253.45V252.484H541.383V257.7C542.574 255.961 543.975 254.593 545.585 253.595C547.194 252.565 548.933 252.05 550.8 252.05C553.118 252.05 554.937 252.629 556.257 253.788C557.609 254.947 558.285 256.67 558.285 258.956V276.051L561.666 276.534V277.5H550.559V276.534L553.456 276.051V259.052C553.456 257.378 553.118 256.09 552.442 255.189C551.766 254.255 550.72 253.788 549.303 253.788C547.822 253.788 546.389 254.336 545.005 255.43C543.653 256.493 542.445 257.813 541.383 259.39V276.051L544.281 276.534V277.5H533.173V276.534ZM588.602 250.215C588.602 251.47 588.135 252.549 587.201 253.45C586.268 254.352 584.787 254.931 582.759 255.189C583.596 256.412 584.014 258.086 584.014 260.211C584.014 262.722 583.113 264.702 581.31 266.151C579.539 267.6 577.285 268.324 574.549 268.324C573.422 268.324 572.392 268.228 571.458 268.035C569.398 268.163 568.367 268.968 568.367 270.449C568.367 271.286 568.705 271.898 569.381 272.284C570.09 272.671 571.201 272.864 572.714 272.864H578.122C580.73 272.864 582.662 273.395 583.918 274.458C585.205 275.52 585.849 277.339 585.849 279.915C585.849 281.718 585.382 283.376 584.449 284.889C583.547 286.402 582.227 287.593 580.489 288.462C578.75 289.364 576.674 289.815 574.259 289.815C570.621 289.815 567.933 289.267 566.194 288.173C564.488 287.078 563.635 285.629 563.635 283.826C563.635 282.732 564.053 281.766 564.89 280.929C565.727 280.092 566.87 279.673 568.319 279.673C568.609 279.673 569.204 279.738 570.106 279.866C569.108 280.929 568.609 282.184 568.609 283.633C568.609 285.018 569.092 286.225 570.058 287.255C571.023 288.285 572.601 288.8 574.79 288.8C576.69 288.8 578.38 288.43 579.861 287.69C581.374 286.981 582.533 286.048 583.338 284.889C584.143 283.73 584.545 282.539 584.545 281.315C584.545 279.963 584.111 278.981 583.241 278.369C582.372 277.79 580.827 277.5 578.605 277.5H572.714C570.46 277.5 568.754 277.065 567.595 276.196C566.468 275.295 565.904 273.975 565.904 272.236C565.904 271.077 566.226 270.063 566.87 269.194C567.546 268.292 568.4 267.713 569.43 267.455C566.629 266.264 565.228 263.849 565.228 260.211C565.228 257.668 566.114 255.672 567.884 254.223C569.655 252.774 571.877 252.05 574.549 252.05C577.929 252.05 580.376 252.758 581.889 254.175C582.791 254.014 583.467 253.724 583.918 253.305C584.368 252.855 584.594 252.356 584.594 251.808C584.594 251.293 584.449 250.907 584.159 250.649C583.869 250.36 583.531 250.215 583.145 250.215C583.145 249.506 583.402 248.895 583.918 248.38C584.465 247.832 585.109 247.559 585.849 247.559C586.654 247.559 587.314 247.8 587.829 248.283C588.344 248.766 588.602 249.41 588.602 250.215ZM579.475 259.004C579.475 257.04 579.056 255.527 578.219 254.464C577.414 253.402 576.191 252.871 574.549 252.871C571.361 252.871 569.768 254.915 569.768 259.004V261.37C569.768 263.27 570.154 264.767 570.927 265.861C571.732 266.956 572.939 267.503 574.549 267.503C576.191 267.503 577.414 266.956 578.219 265.861C579.056 264.767 579.475 263.27 579.475 261.37V259.004Z" fill="black"/>
<path opacity="0.2" d="M335.067 201.5V200.8L338.333 199.467L347.967 174.167H348.5L357.6 200.3L360.667 200.8V201.5H350.867V200.8L353.6 200.367L350.767 192.467H341.9L339.2 199.467L342.2 200.8V201.5H335.067ZM342.167 191.767H350.533L346.533 180.033L342.167 191.767ZM360.625 201.5V200.833L363.125 200.5V175.833L360.625 175.5V174.833H366.458V200.5L368.792 200.833V201.5H360.625ZM378.329 202.167L371.196 185.233L369.029 184.9V184.233H376.496V184.9L374.929 185.333L379.963 197.867L382.929 189.767L380.963 185.233L379.229 184.9V184.233H387.096V184.9L384.696 185.333L389.729 197.867L394.229 185.8L391.429 184.933V184.267H397.229V184.933L395.163 185.733L389.029 202.167H388.096L383.396 190.9L379.263 202.167H378.329ZM402.979 201.833C401.557 201.833 400.391 201.467 399.479 200.733C398.568 199.978 398.113 198.867 398.113 197.4C398.113 195.311 398.991 193.833 400.746 192.967C402.502 192.078 404.535 191.633 406.846 191.633H409.079V189.067C409.079 187.911 408.946 187.022 408.679 186.4C408.435 185.756 408.046 185.311 407.513 185.067C406.979 184.8 406.257 184.667 405.346 184.667C404.302 184.667 403.524 184.878 403.013 185.3C402.502 185.7 402.246 186.244 402.246 186.933C402.246 187.578 402.557 188 403.179 188.2C403.179 188.756 402.968 189.244 402.546 189.667C402.124 190.089 401.624 190.3 401.046 190.3C400.424 190.3 399.924 190.133 399.546 189.8C399.168 189.444 398.979 188.911 398.979 188.2C398.979 186.911 399.624 185.878 400.913 185.1C402.202 184.322 403.813 183.933 405.746 183.933C410.191 183.933 412.413 185.867 412.413 189.733V199.267C412.413 199.756 412.513 200.133 412.713 200.4C412.935 200.644 413.246 200.767 413.646 200.767C414.024 200.767 414.324 200.644 414.546 200.4C414.768 200.133 414.879 199.778 414.879 199.333H415.579C415.579 200.111 415.324 200.722 414.813 201.167C414.324 201.611 413.635 201.833 412.746 201.833C411.724 201.833 410.857 201.544 410.146 200.967C409.457 200.367 409.102 199.444 409.079 198.2C408.546 199.333 407.724 200.222 406.613 200.867C405.524 201.511 404.313 201.833 402.979 201.833ZM404.813 200.367C405.413 200.367 406.024 200.189 406.646 199.833C407.291 199.478 407.835 198.967 408.279 198.3C408.724 197.611 408.991 196.789 409.079 195.833V192.367H406.846C405.024 192.367 403.657 192.778 402.746 193.6C401.857 194.4 401.413 195.533 401.413 197C401.413 198.222 401.702 199.089 402.279 199.6C402.857 200.111 403.702 200.367 404.813 200.367ZM418.416 211.233C417.261 211.233 416.328 210.944 415.616 210.367C414.905 209.789 414.55 209.011 414.55 208.033C414.55 207.367 414.739 206.822 415.116 206.4C415.516 206 416.005 205.8 416.583 205.8C417.005 205.8 417.383 205.889 417.716 206.067C418.05 206.244 418.316 206.511 418.516 206.867C418.183 207.333 418.016 207.822 418.016 208.333C418.016 208.778 418.161 209.144 418.45 209.433C418.739 209.722 419.105 209.867 419.55 209.867C420.083 209.867 420.539 209.689 420.916 209.333C421.316 208.978 421.672 208.356 421.983 207.467L423.983 201.733L416.25 185.267L414.016 184.933V184.267H422.316V184.933L419.983 185.333L425.55 197.233L429.516 185.767L426.65 184.933V184.267H432.65V184.933L430.383 185.767L422.916 207.467C422.45 208.778 421.883 209.733 421.216 210.333C420.572 210.933 419.639 211.233 418.416 211.233ZM439.671 201.833C437.848 201.833 436.326 201.444 435.104 200.667C433.882 199.889 433.271 198.878 433.271 197.633C433.271 196.989 433.437 196.489 433.771 196.133C434.126 195.756 434.593 195.567 435.171 195.567C435.615 195.567 435.993 195.678 436.304 195.9C436.615 196.122 436.837 196.433 436.971 196.833C436.482 197.367 436.237 197.933 436.237 198.533C436.237 199.222 436.548 199.822 437.171 200.333C437.793 200.844 438.626 201.1 439.671 201.1C441.071 201.1 442.215 200.789 443.104 200.167C443.993 199.522 444.437 198.667 444.437 197.6C444.437 196.978 444.248 196.511 443.871 196.2C443.493 195.889 442.759 195.533 441.671 195.133L436.637 193.3C434.659 192.589 433.671 191.267 433.671 189.333C433.671 187.756 434.215 186.467 435.304 185.467C436.393 184.444 437.893 183.933 439.804 183.933C441.382 183.933 442.726 184.3 443.837 185.033C444.971 185.744 445.537 186.767 445.537 188.1C445.537 188.633 445.393 189.067 445.104 189.4C444.815 189.711 444.437 189.867 443.971 189.867C443.504 189.867 443.115 189.744 442.804 189.5C442.515 189.233 442.371 188.878 442.371 188.433C442.659 188.211 442.859 187.978 442.971 187.733C443.082 187.467 443.137 187.156 443.137 186.8C443.137 186.178 442.859 185.667 442.304 185.267C441.771 184.867 440.937 184.667 439.804 184.667C438.826 184.667 437.982 184.822 437.271 185.133C436.582 185.422 436.059 185.811 435.704 186.3C435.348 186.789 435.171 187.289 435.171 187.8C435.171 188.333 435.359 188.756 435.737 189.067C436.137 189.378 436.859 189.722 437.904 190.1L442.571 191.767C443.659 192.167 444.482 192.722 445.037 193.433C445.593 194.144 445.871 195.067 445.871 196.2C445.871 197.822 445.359 199.167 444.337 200.233C443.315 201.3 441.759 201.833 439.671 201.833ZM473.499 182.667C473.499 183.533 473.176 184.278 472.532 184.9C471.888 185.522 470.865 185.922 469.465 186.1C470.043 186.944 470.332 188.1 470.332 189.567C470.332 191.3 469.71 192.667 468.465 193.667C467.243 194.667 465.688 195.167 463.799 195.167C463.021 195.167 462.31 195.1 461.665 194.967C460.243 195.056 459.532 195.611 459.532 196.633C459.532 197.211 459.765 197.633 460.232 197.9C460.721 198.167 461.488 198.3 462.532 198.3H466.265C468.065 198.3 469.399 198.667 470.265 199.4C471.154 200.133 471.599 201.389 471.599 203.167C471.599 204.411 471.276 205.556 470.632 206.6C470.01 207.644 469.099 208.467 467.899 209.067C466.699 209.689 465.265 210 463.599 210C461.088 210 459.232 209.622 458.032 208.867C456.854 208.111 456.265 207.111 456.265 205.867C456.265 205.111 456.554 204.444 457.132 203.867C457.71 203.289 458.499 203 459.499 203C459.699 203 460.11 203.044 460.732 203.133C460.043 203.867 459.699 204.733 459.699 205.733C459.699 206.689 460.032 207.522 460.699 208.233C461.365 208.944 462.454 209.3 463.965 209.3C465.276 209.3 466.443 209.044 467.465 208.533C468.51 208.044 469.31 207.4 469.865 206.6C470.421 205.8 470.699 204.978 470.699 204.133C470.699 203.2 470.399 202.522 469.799 202.1C469.199 201.7 468.132 201.5 466.599 201.5H462.532C460.976 201.5 459.799 201.2 458.999 200.6C458.221 199.978 457.832 199.067 457.832 197.867C457.832 197.067 458.054 196.367 458.499 195.767C458.965 195.144 459.554 194.744 460.265 194.567C458.332 193.744 457.365 192.078 457.365 189.567C457.365 187.811 457.976 186.433 459.199 185.433C460.421 184.433 461.954 183.933 463.799 183.933C466.132 183.933 467.821 184.422 468.865 185.4C469.488 185.289 469.954 185.089 470.265 184.8C470.576 184.489 470.732 184.144 470.732 183.767C470.732 183.411 470.632 183.144 470.432 182.967C470.232 182.767 469.999 182.667 469.732 182.667C469.732 182.178 469.91 181.756 470.265 181.4C470.643 181.022 471.088 180.833 471.599 180.833C472.154 180.833 472.61 181 472.965 181.333C473.321 181.667 473.499 182.111 473.499 182.667ZM467.199 188.733C467.199 187.378 466.91 186.333 466.332 185.6C465.776 184.867 464.932 184.5 463.799 184.5C461.599 184.5 460.499 185.911 460.499 188.733V190.367C460.499 191.678 460.765 192.711 461.299 193.467C461.854 194.222 462.688 194.6 463.799 194.6C464.932 194.6 465.776 194.222 466.332 193.467C466.91 192.711 467.199 191.678 467.199 190.367V188.733ZM477.804 180.367C477.182 180.367 476.648 180.156 476.204 179.733C475.759 179.289 475.537 178.756 475.537 178.133C475.537 177.511 475.748 176.989 476.171 176.567C476.615 176.144 477.159 175.933 477.804 175.933C478.404 175.933 478.915 176.144 479.337 176.567C479.759 176.989 479.971 177.511 479.971 178.133C479.971 178.756 479.759 179.289 479.337 179.733C478.915 180.156 478.404 180.367 477.804 180.367ZM474.271 201.5V200.833L476.604 200.5V185.267L474.271 184.933V184.267H479.937V200.5L482.271 200.833V201.5H474.271ZM491.806 202.167L484.673 185.233L482.506 184.9V184.233H490.806V184.9L488.406 185.333L493.439 197.867L497.939 185.767L495.006 184.933V184.267H500.973V184.933L498.873 185.733L492.739 202.167H491.806ZM510.231 201.833C508.586 201.833 507.097 201.467 505.764 200.733C504.431 199.978 503.375 198.922 502.597 197.567C501.82 196.211 501.431 194.644 501.431 192.867C501.431 191.089 501.809 189.533 502.564 188.2C503.342 186.844 504.375 185.8 505.664 185.067C506.975 184.311 508.431 183.933 510.031 183.933C511.431 183.933 512.686 184.244 513.797 184.867C514.909 185.489 515.775 186.356 516.397 187.467C517.02 188.556 517.342 189.811 517.364 191.233H505.097V194.533C505.097 196.489 505.531 198.078 506.397 199.3C507.286 200.5 508.564 201.1 510.231 201.1C511.764 201.1 513.12 200.667 514.297 199.8C515.475 198.933 516.197 197.811 516.464 196.433H517.231C516.92 198.078 516.131 199.389 514.864 200.367C513.597 201.344 512.053 201.833 510.231 201.833ZM513.697 190.4C513.697 188.467 513.397 187.033 512.797 186.1C512.197 185.144 511.264 184.667 509.997 184.667C508.509 184.667 507.353 185.189 506.531 186.233C505.709 187.278 505.242 188.667 505.131 190.4H513.697ZM528.491 201.5V200.833L530.824 200.5V175.833L528.491 175.5V174.833H534.158V200.5L536.491 200.833V201.5H528.491ZM539.982 201.5V200.833L542.315 200.5V175.833L539.982 175.5V174.833H545.648V200.5L547.982 200.833V201.5H539.982ZM561.239 202.167C559.306 202.167 557.617 201.644 556.173 200.6C554.728 199.556 553.606 197.989 552.806 195.9C552.006 193.789 551.606 191.211 551.606 188.167C551.606 185.122 552.006 182.556 552.806 180.467C553.606 178.356 554.728 176.778 556.173 175.733C557.617 174.689 559.306 174.167 561.239 174.167C563.173 174.167 564.862 174.689 566.306 175.733C567.75 176.778 568.873 178.356 569.673 180.467C570.473 182.556 570.873 185.122 570.873 188.167C570.873 191.211 570.473 193.789 569.673 195.9C568.873 197.989 567.75 199.556 566.306 200.6C564.862 201.644 563.173 202.167 561.239 202.167ZM561.239 201.4C562.906 201.4 564.217 200.589 565.173 198.967C566.128 197.344 566.606 194.811 566.606 191.367V184.933C566.606 181.511 566.128 178.989 565.173 177.367C564.217 175.744 562.906 174.933 561.239 174.933C559.573 174.933 558.262 175.744 557.306 177.367C556.35 178.989 555.873 181.511 555.873 184.933V191.367C555.873 194.789 556.35 197.322 557.306 198.967C558.262 200.589 559.573 201.4 561.239 201.4ZM579.382 189.167C577.805 189.167 576.527 188.544 575.549 187.3C574.593 186.033 574.116 184.233 574.116 181.9C574.116 179.567 574.593 177.778 575.549 176.533C576.527 175.289 577.805 174.667 579.382 174.667C580.982 174.667 582.26 175.289 583.216 176.533C584.193 177.778 584.682 179.567 584.682 181.9C584.682 184.233 584.193 186.033 583.216 187.3C582.26 188.544 580.982 189.167 579.382 189.167ZM579.149 201.5L592.482 174.833H594.182L580.882 201.5H579.149ZM579.382 188.433C580.271 188.433 580.938 188.056 581.382 187.3C581.849 186.544 582.082 185.311 582.082 183.6V180.2C582.082 178.489 581.849 177.256 581.382 176.5C580.938 175.744 580.271 175.367 579.382 175.367C578.516 175.367 577.849 175.744 577.382 176.5C576.916 177.256 576.682 178.489 576.682 180.2V183.6C576.682 185.311 576.916 186.544 577.382 187.3C577.849 188.056 578.516 188.433 579.382 188.433ZM593.949 201.667C592.349 201.667 591.06 201.044 590.082 199.8C589.127 198.533 588.649 196.733 588.649 194.4C588.649 192.067 589.127 190.278 590.082 189.033C591.06 187.789 592.349 187.167 593.949 187.167C595.527 187.167 596.793 187.789 597.749 189.033C598.727 190.278 599.216 192.067 599.216 194.4C599.216 196.733 598.727 198.533 597.749 199.8C596.793 201.044 595.527 201.667 593.949 201.667ZM593.949 200.933C594.816 200.933 595.482 200.556 595.949 199.8C596.416 199.044 596.649 197.811 596.649 196.1V192.7C596.649 190.989 596.416 189.756 595.949 189C595.482 188.244 594.816 187.867 593.949 187.867C593.06 187.867 592.382 188.244 591.916 189C591.471 189.756 591.249 190.989 591.249 192.7V196.1C591.249 197.811 591.471 199.044 591.916 199.8C592.382 200.556 593.06 200.933 593.949 200.933Z" fill="black"/>
<path opacity="0.2" d="M154.154 294.5V293.894L156.81 293.461V272.45L154.154 272.046V271.411H162.639V272.046L159.984 272.45V281.917H170.951V272.45L168.267 272.046V271.411H176.81V272.046L174.126 272.45V293.461L176.81 293.894V294.5H168.267V293.894L170.951 293.461V282.638H159.984V293.461L162.639 293.894V294.5H154.154ZM183.513 294.789C182.281 294.789 181.271 294.471 180.482 293.836C179.693 293.182 179.299 292.22 179.299 290.95C179.299 289.142 180.059 287.862 181.579 287.112C183.099 286.342 184.859 285.957 186.86 285.957H188.794V283.735C188.794 282.734 188.679 281.965 188.448 281.426C188.236 280.868 187.899 280.483 187.438 280.272C186.976 280.041 186.351 279.925 185.562 279.925C184.657 279.925 183.984 280.108 183.541 280.474C183.099 280.82 182.878 281.291 182.878 281.888C182.878 282.446 183.147 282.811 183.686 282.985C183.686 283.466 183.503 283.889 183.137 284.254C182.772 284.62 182.339 284.803 181.839 284.803C181.3 284.803 180.867 284.658 180.54 284.37C180.213 284.062 180.049 283.6 180.049 282.985C180.049 281.869 180.607 280.974 181.723 280.301C182.839 279.627 184.234 279.29 185.908 279.29C189.756 279.29 191.68 280.964 191.68 284.312V292.566C191.68 292.99 191.767 293.317 191.94 293.548C192.132 293.759 192.402 293.865 192.748 293.865C193.075 293.865 193.335 293.759 193.527 293.548C193.72 293.317 193.816 293.009 193.816 292.624H194.422C194.422 293.297 194.201 293.827 193.758 294.211C193.335 294.596 192.738 294.789 191.969 294.789C191.084 294.789 190.333 294.538 189.718 294.038C189.121 293.519 188.813 292.72 188.794 291.643C188.332 292.624 187.62 293.394 186.658 293.952C185.716 294.51 184.667 294.789 183.513 294.789ZM185.1 293.519C185.619 293.519 186.149 293.365 186.687 293.057C187.245 292.749 187.717 292.307 188.101 291.729C188.486 291.133 188.717 290.421 188.794 289.594V286.592H186.86C185.283 286.592 184.099 286.948 183.311 287.66C182.541 288.353 182.156 289.334 182.156 290.604C182.156 291.662 182.406 292.412 182.907 292.855C183.407 293.297 184.138 293.519 185.1 293.519ZM195.126 293.923L197.146 293.634V280.416L195.126 280.127V279.55H200.032V282.667C200.744 281.628 201.581 280.81 202.543 280.214C203.505 279.598 204.544 279.29 205.66 279.29C207.045 279.29 208.132 279.637 208.921 280.329C209.729 281.022 210.133 282.051 210.133 283.417V293.634L212.154 293.923V294.5H205.516V293.923L207.247 293.634V283.475C207.247 282.475 207.045 281.705 206.641 281.166C206.237 280.608 205.612 280.329 204.765 280.329C203.88 280.329 203.024 280.656 202.197 281.311C201.388 281.946 200.667 282.734 200.032 283.677V293.634L201.764 293.923V294.5H195.126V293.923ZM228.251 278.194C228.251 278.944 227.972 279.589 227.414 280.127C226.856 280.666 225.971 281.012 224.759 281.166C225.259 281.897 225.509 282.898 225.509 284.168C225.509 285.669 224.971 286.852 223.893 287.718C222.835 288.584 221.488 289.016 219.853 289.016C219.179 289.016 218.563 288.959 218.005 288.843C216.774 288.92 216.158 289.401 216.158 290.286C216.158 290.787 216.36 291.152 216.764 291.383C217.188 291.614 217.852 291.729 218.756 291.729H221.988C223.547 291.729 224.701 292.047 225.452 292.682C226.221 293.317 226.606 294.404 226.606 295.943C226.606 297.021 226.327 298.011 225.769 298.916C225.23 299.82 224.441 300.532 223.402 301.051C222.363 301.59 221.122 301.859 219.679 301.859C217.505 301.859 215.899 301.532 214.86 300.878C213.84 300.224 213.33 299.358 213.33 298.281C213.33 297.627 213.58 297.049 214.08 296.549C214.581 296.049 215.264 295.799 216.13 295.799C216.303 295.799 216.659 295.837 217.197 295.914C216.601 296.549 216.303 297.299 216.303 298.165C216.303 298.993 216.591 299.714 217.169 300.33C217.746 300.946 218.689 301.253 219.997 301.253C221.132 301.253 222.142 301.032 223.027 300.59C223.932 300.166 224.624 299.608 225.105 298.916C225.586 298.223 225.827 297.511 225.827 296.78C225.827 295.972 225.567 295.385 225.048 295.019C224.528 294.673 223.604 294.5 222.277 294.5H218.756C217.409 294.5 216.389 294.24 215.697 293.721C215.023 293.182 214.686 292.393 214.686 291.354C214.686 290.662 214.879 290.055 215.264 289.536C215.668 288.997 216.178 288.651 216.793 288.497C215.119 287.785 214.282 286.342 214.282 284.168C214.282 282.648 214.812 281.455 215.87 280.589C216.928 279.723 218.256 279.29 219.853 279.29C221.873 279.29 223.335 279.714 224.239 280.56C224.778 280.464 225.182 280.291 225.452 280.041C225.721 279.771 225.856 279.473 225.856 279.146C225.856 278.838 225.769 278.607 225.596 278.453C225.423 278.28 225.221 278.194 224.99 278.194C224.99 277.77 225.144 277.405 225.452 277.097C225.779 276.77 226.163 276.606 226.606 276.606C227.087 276.606 227.481 276.751 227.789 277.039C228.097 277.328 228.251 277.713 228.251 278.194ZM222.796 283.446C222.796 282.273 222.546 281.368 222.046 280.733C221.565 280.098 220.834 279.781 219.853 279.781C217.948 279.781 216.995 281.003 216.995 283.446V284.861C216.995 285.996 217.226 286.89 217.688 287.545C218.169 288.199 218.891 288.526 219.853 288.526C220.834 288.526 221.565 288.199 222.046 287.545C222.546 286.89 222.796 285.996 222.796 284.861V283.446ZM231.979 276.202C231.44 276.202 230.978 276.019 230.593 275.654C230.208 275.269 230.016 274.807 230.016 274.269C230.016 273.73 230.199 273.278 230.564 272.912C230.949 272.547 231.421 272.364 231.979 272.364C232.498 272.364 232.941 272.547 233.306 272.912C233.672 273.278 233.855 273.73 233.855 274.269C233.855 274.807 233.672 275.269 233.306 275.654C232.941 276.019 232.498 276.202 231.979 276.202ZM228.919 294.5V293.923L230.94 293.634V280.445L228.919 280.156V279.579H233.826V293.634L235.846 293.923V294.5H228.919ZM237.233 293.923L239.253 293.634V280.416L237.233 280.127V279.55H242.139V282.667C242.851 281.628 243.688 280.81 244.65 280.214C245.612 279.598 246.651 279.29 247.767 279.29C249.153 279.29 250.24 279.637 251.029 280.329C251.837 281.022 252.241 282.051 252.241 283.417V293.634L254.261 293.923V294.5H247.623V293.923L249.355 293.634V283.475C249.355 282.475 249.153 281.705 248.749 281.166C248.344 280.608 247.719 280.329 246.873 280.329C245.987 280.329 245.131 280.656 244.304 281.311C243.496 281.946 242.774 282.734 242.139 283.677V293.634L243.871 293.923V294.5H237.233V293.923ZM270.358 278.194C270.358 278.944 270.079 279.589 269.521 280.127C268.964 280.666 268.078 281.012 266.866 281.166C267.367 281.897 267.617 282.898 267.617 284.168C267.617 285.669 267.078 286.852 266 287.718C264.942 288.584 263.595 289.016 261.96 289.016C261.287 289.016 260.671 288.959 260.113 288.843C258.881 288.92 258.266 289.401 258.266 290.286C258.266 290.787 258.468 291.152 258.872 291.383C259.295 291.614 259.959 291.729 260.863 291.729H264.096C265.654 291.729 266.809 292.047 267.559 292.682C268.329 293.317 268.713 294.404 268.713 295.943C268.713 297.021 268.434 298.011 267.876 298.916C267.338 299.82 266.549 300.532 265.51 301.051C264.471 301.59 263.23 301.859 261.787 301.859C259.613 301.859 258.006 301.532 256.967 300.878C255.947 300.224 255.437 299.358 255.437 298.281C255.437 297.627 255.688 297.049 256.188 296.549C256.688 296.049 257.371 295.799 258.237 295.799C258.41 295.799 258.766 295.837 259.305 295.914C258.708 296.549 258.41 297.299 258.41 298.165C258.41 298.993 258.699 299.714 259.276 300.33C259.853 300.946 260.796 301.253 262.104 301.253C263.239 301.253 264.25 301.032 265.135 300.59C266.039 300.166 266.732 299.608 267.213 298.916C267.694 298.223 267.934 297.511 267.934 296.78C267.934 295.972 267.674 295.385 267.155 295.019C266.635 294.673 265.712 294.5 264.384 294.5H260.863C259.516 294.5 258.497 294.24 257.804 293.721C257.131 293.182 256.794 292.393 256.794 291.354C256.794 290.662 256.986 290.055 257.371 289.536C257.775 288.997 258.285 288.651 258.901 288.497C257.227 287.785 256.39 286.342 256.39 284.168C256.39 282.648 256.919 281.455 257.977 280.589C259.035 279.723 260.363 279.29 261.96 279.29C263.98 279.29 265.442 279.714 266.347 280.56C266.886 280.464 267.29 280.291 267.559 280.041C267.828 279.771 267.963 279.473 267.963 279.146C267.963 278.838 267.876 278.607 267.703 278.453C267.53 278.28 267.328 278.194 267.097 278.194C267.097 277.77 267.251 277.405 267.559 277.097C267.886 276.77 268.271 276.606 268.713 276.606C269.194 276.606 269.589 276.751 269.897 277.039C270.205 277.328 270.358 277.713 270.358 278.194ZM264.904 283.446C264.904 282.273 264.654 281.368 264.153 280.733C263.672 280.098 262.941 279.781 261.96 279.781C260.055 279.781 259.103 281.003 259.103 283.446V284.861C259.103 285.996 259.334 286.89 259.795 287.545C260.276 288.199 260.998 288.526 261.96 288.526C262.941 288.526 263.672 288.199 264.153 287.545C264.654 286.89 264.904 285.996 264.904 284.861V283.446ZM285.84 294.789C284.454 294.789 283.194 294.471 282.059 293.836C280.924 293.182 280.02 292.268 279.346 291.094C278.692 289.902 278.365 288.545 278.365 287.025C278.365 285.505 278.692 284.158 279.346 282.985C280.02 281.811 280.924 280.907 282.059 280.272C283.194 279.617 284.454 279.29 285.84 279.29C287.225 279.29 288.485 279.617 289.621 280.272C290.756 280.907 291.65 281.811 292.305 282.985C292.978 284.158 293.315 285.505 293.315 287.025C293.315 288.545 292.978 289.902 292.305 291.094C291.65 292.268 290.756 293.182 289.621 293.836C288.485 294.471 287.225 294.789 285.84 294.789ZM285.84 294.154C287.264 294.154 288.331 293.634 289.043 292.595C289.774 291.556 290.14 290.181 290.14 288.468V285.582C290.14 283.87 289.774 282.504 289.043 281.484C288.331 280.445 287.264 279.925 285.84 279.925C284.416 279.925 283.339 280.445 282.607 281.484C281.895 282.504 281.54 283.87 281.54 285.582V288.468C281.54 290.181 281.895 291.556 282.607 292.595C283.339 293.634 284.416 294.154 285.84 294.154ZM301.526 294.789C300.141 294.789 299.044 294.442 298.236 293.75C297.447 293.057 297.053 292.028 297.053 290.662V280.416L295.032 280.127V279.55H299.939V290.604C299.939 291.585 300.141 292.355 300.545 292.913C300.949 293.471 301.574 293.75 302.421 293.75C303.306 293.75 304.152 293.461 304.96 292.884C305.788 292.287 306.519 291.556 307.154 290.69V280.416L305.134 280.127V279.55H310.04V293.634L312.06 293.923V294.5H307.154V291.729C306.461 292.691 305.624 293.442 304.643 293.981C303.681 294.519 302.642 294.789 301.526 294.789ZM319.53 294.789C318.261 294.789 317.241 294.471 316.471 293.836C315.721 293.201 315.346 292.191 315.346 290.806V280.416L313.296 280.127V279.55H315.346V277.155L318.232 276.433V279.55H321.984V280.127L318.232 280.416V290.748C318.232 292.788 318.963 293.807 320.425 293.807C320.733 293.807 321.022 293.759 321.291 293.663C321.58 293.567 321.801 293.471 321.955 293.374C322.128 293.278 322.234 293.211 322.272 293.172L322.647 293.634C321.782 294.404 320.743 294.789 319.53 294.789Z" fill="black"/>
<path opacity="0.2" d="M141.964 376.5V375.469L146.481 374.732V338.986L141.964 338.299V337.219H156.4V338.299L151.883 338.986V374.732L156.4 375.469V376.5H141.964ZM159.691 375.518L163.128 375.027V352.538L159.691 352.047V351.065H168.038V356.368C169.249 354.601 170.673 353.209 172.31 352.195C173.947 351.147 175.715 350.623 177.613 350.623C179.97 350.623 181.82 351.213 183.162 352.391C184.536 353.569 185.224 355.321 185.224 357.645V375.027L188.661 375.518V376.5H177.368V375.518L180.314 375.027V357.743C180.314 356.041 179.97 354.732 179.283 353.815C178.595 352.866 177.531 352.391 176.091 352.391C174.585 352.391 173.128 352.948 171.721 354.06C170.346 355.141 169.119 356.483 168.038 358.087V375.027L170.984 375.518V376.5H159.691V375.518ZM190.515 376.5V375.518L194.198 375.027V338.692L190.515 338.201V337.219H199.108V375.027L202.545 375.518V376.5H190.515ZM210.163 345.369C209.246 345.369 208.46 345.058 207.806 344.437C207.151 343.782 206.824 342.996 206.824 342.08C206.824 341.163 207.135 340.394 207.757 339.772C208.411 339.15 209.213 338.839 210.163 338.839C211.046 338.839 211.799 339.15 212.421 339.772C213.043 340.394 213.354 341.163 213.354 342.08C213.354 342.996 213.043 343.782 212.421 344.437C211.799 345.058 211.046 345.369 210.163 345.369ZM204.958 376.5V375.518L208.395 375.027V352.587L204.958 352.096V351.114H213.305V375.027L216.742 375.518V376.5H204.958ZM219.102 375.518L222.539 375.027V352.538L219.102 352.047V351.065H227.45V356.368C228.661 354.601 230.085 353.209 231.721 352.195C233.358 351.147 235.126 350.623 237.024 350.623C239.381 350.623 241.231 351.213 242.573 352.391C243.948 353.569 244.635 355.321 244.635 357.645V375.027L248.072 375.518V376.5H236.779V375.518L239.725 375.027V357.743C239.725 356.041 239.381 354.732 238.694 353.815C238.006 352.866 236.943 352.391 235.502 352.391C233.996 352.391 232.54 352.948 231.132 354.06C229.757 355.141 228.53 356.483 227.45 358.087V375.027L230.396 375.518V376.5H219.102V375.518ZM264.019 376.991C261.597 376.991 259.403 376.451 257.439 375.371C255.475 374.258 253.92 372.703 252.775 370.706C251.629 368.709 251.056 366.401 251.056 363.783C251.056 361.164 251.612 358.872 252.725 356.908C253.871 354.912 255.393 353.373 257.292 352.293C259.223 351.18 261.367 350.623 263.724 350.623C265.787 350.623 267.636 351.082 269.273 351.998C270.909 352.915 272.186 354.191 273.103 355.828C274.019 357.432 274.494 359.282 274.527 361.377H256.457V366.238C256.457 369.118 257.096 371.459 258.372 373.259C259.682 375.027 261.564 375.911 264.019 375.911C266.278 375.911 268.274 375.272 270.009 373.996C271.744 372.719 272.808 371.066 273.201 369.037H274.33C273.872 371.459 272.71 373.39 270.844 374.831C268.978 376.271 266.703 376.991 264.019 376.991ZM269.125 360.149C269.125 357.301 268.684 355.19 267.8 353.815C266.916 352.407 265.541 351.704 263.675 351.704C261.482 351.704 259.78 352.473 258.569 354.011C257.357 355.55 256.67 357.596 256.506 360.149H269.125ZM278.138 376.5L293.409 342.129H295.913L280.691 376.5H278.138ZM300.058 376.5V375.469L304.576 374.732V338.986L300.058 338.299V337.219H314.494V338.299L309.977 338.986V374.732L314.494 375.469V376.5H300.058ZM331.288 376.991C328.931 376.991 326.787 376.451 324.856 375.371C322.925 374.258 321.386 372.703 320.24 370.706C319.127 368.676 318.571 366.369 318.571 363.783C318.571 361.066 319.16 358.709 320.339 356.712C321.55 354.715 323.121 353.209 325.052 352.195C326.984 351.147 329.062 350.623 331.288 350.623C333.154 350.623 334.856 350.951 336.395 351.605C337.933 352.227 339.145 353.111 340.028 354.257C340.945 355.403 341.403 356.696 341.403 358.136C341.403 359.216 341.125 360.051 340.569 360.64C340.012 361.197 339.276 361.475 338.359 361.475C337.475 361.475 336.739 361.18 336.149 360.591C335.56 360.002 335.266 359.265 335.266 358.381C335.757 358.054 336.1 357.694 336.297 357.301C336.493 356.908 336.591 356.417 336.591 355.828C336.591 354.617 336.1 353.635 335.118 352.882C334.169 352.096 332.892 351.704 331.288 351.704C328.931 351.704 327.115 352.555 325.838 354.257C324.594 355.926 323.972 358.283 323.972 361.328V366.238C323.972 369.151 324.578 371.492 325.789 373.259C327.033 375.027 328.866 375.911 331.288 375.911C333.514 375.911 335.446 375.289 337.082 374.045C338.752 372.768 339.783 371.099 340.176 369.037H341.305C340.847 371.459 339.701 373.39 337.868 374.831C336.068 376.271 333.874 376.991 331.288 376.991ZM358.386 376.991C355.964 376.991 353.771 376.451 351.807 375.371C349.843 374.258 348.288 372.703 347.142 370.706C345.996 368.709 345.423 366.401 345.423 363.783C345.423 361.164 345.98 358.872 347.093 356.908C348.239 354.912 349.761 353.373 351.659 352.293C353.591 351.18 355.735 350.623 358.092 350.623C360.154 350.623 362.004 351.082 363.64 351.998C365.277 352.915 366.554 354.191 367.47 355.828C368.387 357.432 368.861 359.282 368.894 361.377H350.825V366.238C350.825 369.118 351.463 371.459 352.74 373.259C354.049 375.027 355.931 375.911 358.386 375.911C360.645 375.911 362.642 375.272 364.377 373.996C366.112 372.719 367.176 371.066 367.568 369.037H368.698C368.239 371.459 367.077 373.39 365.212 374.831C363.346 376.271 361.071 376.991 358.386 376.991ZM363.493 360.149C363.493 357.301 363.051 355.19 362.167 353.815C361.283 352.407 359.909 351.704 358.043 351.704C355.849 351.704 354.147 352.473 352.936 354.011C351.725 355.55 351.037 357.596 350.874 360.149H363.493ZM394.368 376.991C391.684 376.991 389.442 376.418 387.641 375.272C385.841 374.127 384.941 372.637 384.941 370.804C384.941 369.855 385.186 369.118 385.677 368.595C386.201 368.038 386.889 367.76 387.74 367.76C388.394 367.76 388.951 367.924 389.409 368.251C389.867 368.578 390.195 369.037 390.391 369.626C389.671 370.411 389.311 371.246 389.311 372.13C389.311 373.145 389.769 374.029 390.686 374.781C391.602 375.534 392.83 375.911 394.368 375.911C396.431 375.911 398.117 375.452 399.426 374.536C400.735 373.587 401.39 372.326 401.39 370.755C401.39 369.839 401.112 369.151 400.555 368.693C399.999 368.235 398.919 367.711 397.315 367.122L389.9 364.421C386.987 363.373 385.53 361.426 385.53 358.578C385.53 356.254 386.332 354.355 387.936 352.882C389.54 351.376 391.75 350.623 394.565 350.623C396.889 350.623 398.869 351.163 400.506 352.244C402.176 353.291 403.01 354.797 403.01 356.761C403.01 357.547 402.798 358.185 402.372 358.676C401.946 359.134 401.39 359.363 400.703 359.363C400.015 359.363 399.442 359.183 398.984 358.823C398.558 358.431 398.346 357.907 398.346 357.252C398.771 356.925 399.066 356.581 399.229 356.221C399.393 355.828 399.475 355.37 399.475 354.846C399.475 353.93 399.066 353.177 398.247 352.587C397.462 351.998 396.234 351.704 394.565 351.704C393.124 351.704 391.881 351.933 390.833 352.391C389.818 352.817 389.049 353.389 388.525 354.11C388.002 354.83 387.74 355.566 387.74 356.319C387.74 357.105 388.018 357.727 388.574 358.185C389.164 358.643 390.227 359.151 391.766 359.707L398.64 362.162C400.244 362.751 401.455 363.57 402.274 364.617C403.092 365.665 403.501 367.023 403.501 368.693C403.501 371.082 402.748 373.063 401.243 374.634C399.737 376.205 397.445 376.991 394.368 376.991ZM406.918 376.5V375.518L410.355 375.027V338.692L406.918 338.201V337.219H415.265V362.408L426.51 353.177L422.238 352.047V351.065H431.469V352.047L428.327 353.177L420.176 359.854L431.665 375.076L434.317 375.518V376.5H422.827V375.518L425.773 375.027L416.542 362.85L415.265 363.93V375.027L418.212 375.518V376.5H406.918ZM442.168 376.991C440.073 376.991 438.355 376.451 437.013 375.371C435.67 374.258 434.999 372.621 434.999 370.46C434.999 367.383 436.292 365.207 438.878 363.93C441.464 362.621 444.46 361.966 447.864 361.966H451.154V358.185C451.154 356.483 450.957 355.173 450.565 354.257C450.205 353.308 449.632 352.653 448.846 352.293C448.06 351.9 446.997 351.704 445.654 351.704C444.116 351.704 442.97 352.015 442.217 352.637C441.464 353.226 441.088 354.028 441.088 355.043C441.088 355.992 441.546 356.614 442.463 356.908C442.463 357.727 442.152 358.447 441.53 359.069C440.908 359.691 440.171 360.002 439.32 360.002C438.404 360.002 437.667 359.756 437.111 359.265C436.554 358.742 436.276 357.956 436.276 356.908C436.276 355.01 437.225 353.488 439.124 352.342C441.023 351.196 443.396 350.623 446.244 350.623C452.791 350.623 456.064 353.471 456.064 359.167V373.21C456.064 373.93 456.211 374.487 456.506 374.88C456.833 375.24 457.292 375.42 457.881 375.42C458.437 375.42 458.879 375.24 459.207 374.88C459.534 374.487 459.698 373.963 459.698 373.308H460.729C460.729 374.454 460.352 375.354 459.599 376.009C458.879 376.664 457.864 376.991 456.555 376.991C455.049 376.991 453.773 376.565 452.725 375.714C451.71 374.831 451.187 373.472 451.154 371.639C450.368 373.308 449.157 374.618 447.52 375.567C445.916 376.516 444.132 376.991 442.168 376.991ZM444.869 374.831C445.753 374.831 446.653 374.569 447.569 374.045C448.519 373.521 449.321 372.768 449.975 371.786C450.63 370.771 451.023 369.56 451.154 368.153V363.046H447.864C445.18 363.046 443.167 363.652 441.825 364.863C440.515 366.041 439.86 367.711 439.86 369.871C439.86 371.672 440.286 372.948 441.137 373.701C441.988 374.454 443.232 374.831 444.869 374.831ZM472.09 376.991C469.93 376.991 468.195 376.451 466.885 375.371C465.609 374.29 464.97 372.572 464.97 370.215V352.538L461.484 352.047V351.065H464.97V346.99L469.88 345.762V351.065H476.264V352.047L469.88 352.538V370.117C469.88 373.587 471.124 375.322 473.612 375.322C474.136 375.322 474.627 375.24 475.085 375.076C475.576 374.912 475.953 374.749 476.215 374.585C476.509 374.421 476.689 374.307 476.755 374.241L477.393 375.027C475.92 376.336 474.152 376.991 472.09 376.991ZM484.202 345.369C483.286 345.369 482.5 345.058 481.846 344.437C481.191 343.782 480.864 342.996 480.864 342.08C480.864 341.163 481.174 340.394 481.796 339.772C482.451 339.15 483.253 338.839 484.202 338.839C485.086 338.839 485.839 339.15 486.461 339.772C487.083 340.394 487.394 341.163 487.394 342.08C487.394 342.996 487.083 343.782 486.461 344.437C485.839 345.058 485.086 345.369 484.202 345.369ZM478.998 376.5V375.518L482.435 375.027V352.587L478.998 352.096V351.114H487.345V375.027L490.782 375.518V376.5H478.998ZM493.142 375.518L496.579 375.027V352.538L493.142 352.047V351.065H501.489V356.368C502.701 354.601 504.124 353.209 505.761 352.195C507.398 351.147 509.166 350.623 511.064 350.623C513.421 350.623 515.271 351.213 516.613 352.391C517.988 353.569 518.675 355.321 518.675 357.645V375.027L522.112 375.518V376.5H510.819V375.518L513.765 375.027V357.743C513.765 356.041 513.421 354.732 512.734 353.815C512.046 352.866 510.982 352.391 509.542 352.391C508.036 352.391 506.58 352.948 505.172 354.06C503.797 355.141 502.57 356.483 501.489 358.087V375.027L504.435 375.518V376.5H493.142V375.518ZM549.499 348.757C549.499 350.034 549.025 351.131 548.075 352.047C547.126 352.964 545.62 353.553 543.558 353.815C544.409 355.059 544.835 356.761 544.835 358.922C544.835 361.475 543.918 363.488 542.085 364.961C540.285 366.434 537.993 367.171 535.211 367.171C534.065 367.171 533.018 367.072 532.068 366.876C529.973 367.007 528.926 367.825 528.926 369.331C528.926 370.182 529.269 370.804 529.957 371.197C530.677 371.59 531.806 371.786 533.345 371.786H538.844C541.496 371.786 543.46 372.326 544.737 373.407C546.046 374.487 546.701 376.336 546.701 378.955C546.701 380.788 546.226 382.474 545.277 384.013C544.36 385.551 543.018 386.762 541.25 387.646C539.483 388.563 537.371 389.021 534.916 389.021C531.217 389.021 528.484 388.464 526.716 387.351C524.981 386.239 524.114 384.765 524.114 382.932C524.114 381.819 524.539 380.837 525.39 379.986C526.241 379.135 527.404 378.71 528.877 378.71C529.171 378.71 529.777 378.775 530.693 378.906C529.679 379.986 529.171 381.263 529.171 382.736C529.171 384.144 529.662 385.371 530.644 386.419C531.626 387.466 533.23 387.99 535.456 387.99C537.388 387.99 539.106 387.613 540.612 386.86C542.15 386.14 543.329 385.191 544.147 384.013C544.966 382.834 545.375 381.623 545.375 380.379C545.375 379.004 544.933 378.006 544.049 377.384C543.165 376.795 541.594 376.5 539.335 376.5H533.345C531.053 376.5 529.319 376.058 528.14 375.174C526.994 374.258 526.422 372.916 526.422 371.148C526.422 369.969 526.749 368.938 527.404 368.054C528.091 367.138 528.958 366.549 530.006 366.287C527.158 365.076 525.734 362.621 525.734 358.922C525.734 356.336 526.634 354.306 528.435 352.833C530.235 351.36 532.494 350.623 535.211 350.623C538.648 350.623 541.136 351.344 542.674 352.784C543.591 352.62 544.278 352.326 544.737 351.9C545.195 351.442 545.424 350.934 545.424 350.378C545.424 349.854 545.277 349.461 544.982 349.199C544.687 348.905 544.344 348.757 543.951 348.757C543.951 348.037 544.213 347.415 544.737 346.892C545.293 346.335 545.948 346.057 546.701 346.057C547.519 346.057 548.19 346.302 548.714 346.793C549.238 347.284 549.499 347.939 549.499 348.757ZM540.219 357.694C540.219 355.697 539.794 354.159 538.942 353.078C538.124 351.998 536.88 351.458 535.211 351.458C531.97 351.458 530.35 353.537 530.35 357.694V360.1C530.35 362.031 530.742 363.553 531.528 364.666C532.346 365.779 533.574 366.336 535.211 366.336C536.88 366.336 538.124 365.779 538.942 364.666C539.794 363.553 540.219 362.031 540.219 360.1V357.694Z" fill="black"/>
</svg>
