<svg width="633" height="394" viewBox="0 0 633 394" fill="none" xmlns="http://www.w3.org/2000/svg">
<path opacity="0.2" d="M136.03 131V129.756L141.481 128.867V85.0741H131.704L127.2 96.8074H125.481V83.5926H164.059V96.8074H162.281L157.837 85.0741H148V128.867L153.452 129.756V131H136.03ZM177.487 131.593C174.642 131.593 172.054 130.941 169.724 129.637C167.393 128.294 165.536 126.417 164.153 124.007C162.81 121.558 162.138 118.773 162.138 115.652C162.138 112.531 162.81 109.765 164.153 107.356C165.536 104.946 167.393 103.089 169.724 101.785C172.054 100.442 174.642 99.7704 177.487 99.7704C180.331 99.7704 182.919 100.442 185.25 101.785C187.58 103.089 189.417 104.946 190.761 107.356C192.143 109.765 192.835 112.531 192.835 115.652C192.835 118.773 192.143 121.558 190.761 124.007C189.417 126.417 187.58 128.294 185.25 129.637C182.919 130.941 180.331 131.593 177.487 131.593ZM177.487 130.289C180.41 130.289 182.603 129.222 184.064 127.089C185.566 124.956 186.316 122.131 186.316 118.615V112.689C186.316 109.173 185.566 106.368 184.064 104.274C182.603 102.141 180.41 101.074 177.487 101.074C174.563 101.074 172.351 102.141 170.85 104.274C169.388 106.368 168.657 109.173 168.657 112.689V118.615C168.657 122.131 169.388 124.956 170.85 127.089C172.351 129.222 174.563 130.289 177.487 130.289ZM196.599 146.585L200.747 145.993V102.141L196.599 101.548V100.363H206.673V106.585C207.66 104.452 208.984 102.793 210.643 101.607C212.342 100.383 214.357 99.7704 216.688 99.7704C219.492 99.7704 221.962 100.442 224.095 101.785C226.228 103.089 227.888 104.946 229.073 107.356C230.258 109.726 230.85 112.511 230.85 115.711C230.85 118.911 230.258 121.716 229.073 124.126C227.888 126.496 226.228 128.333 224.095 129.637C221.962 130.941 219.492 131.593 216.688 131.593C214.357 131.593 212.342 131 210.643 129.815C208.984 128.59 207.66 126.931 206.673 124.837V145.993L212.243 146.585V147.77H196.599V146.585ZM216.095 130.111C221.586 130.111 224.332 126.299 224.332 118.674V112.748C224.332 105.084 221.586 101.252 216.095 101.252C214.357 101.252 212.776 101.765 211.354 102.793C209.932 103.78 208.806 105.123 207.976 106.822C207.147 108.521 206.712 110.358 206.673 112.333V118.674C206.673 120.689 207.068 122.585 207.858 124.363C208.688 126.101 209.813 127.504 211.236 128.57C212.697 129.598 214.317 130.111 216.095 130.111ZM272.205 132.185C267.899 132.185 264.126 131.138 260.887 129.044C257.647 126.951 255.138 124.027 253.361 120.274C251.622 116.521 250.753 112.195 250.753 107.296C250.753 102.398 251.682 98.0716 253.538 94.3185C255.395 90.5654 257.983 87.642 261.301 85.5481C264.659 83.4543 268.492 82.4074 272.798 82.4074C276.867 82.4074 280.304 83.4346 283.109 85.4889L286.724 82.4074H287.968V97.1037H286.724L282.812 87.3259C279.968 84.9556 276.63 83.7704 272.798 83.7704C270.032 83.7704 267.543 84.4815 265.331 85.9037C263.158 87.3259 261.44 89.4 260.175 92.1259C258.951 94.8519 258.338 98.0914 258.338 101.844V112.689C258.338 116.442 258.911 119.681 260.057 122.407C261.242 125.133 262.862 127.227 264.916 128.689C267.01 130.111 269.44 130.822 272.205 130.822C275.603 130.822 278.23 129.775 280.087 127.681C281.983 125.588 282.931 122.783 282.931 119.267V113.756L277.42 112.926V111.622H295.138V112.926L289.627 113.756V119.267C289.627 121.519 289.015 123.632 287.79 125.607C286.566 127.543 284.65 129.123 282.042 130.348C279.435 131.573 276.156 132.185 272.205 132.185ZM313.373 131.593C310.45 131.593 307.803 130.941 305.432 129.637C303.062 128.294 301.185 126.417 299.803 124.007C298.42 121.598 297.729 118.812 297.729 115.652C297.729 112.491 298.4 109.726 299.744 107.356C301.126 104.946 302.963 103.089 305.255 101.785C307.585 100.442 310.173 99.7704 313.018 99.7704C315.506 99.7704 317.739 100.323 319.714 101.43C321.689 102.536 323.23 104.077 324.336 106.052C325.442 107.988 326.015 110.22 326.055 112.748H304.247V118.615C304.247 122.091 305.018 124.916 306.558 127.089C308.139 129.222 310.41 130.289 313.373 130.289C316.099 130.289 318.509 129.519 320.603 127.978C322.697 126.437 323.981 124.442 324.455 121.993H325.818C325.265 124.916 323.862 127.247 321.61 128.985C319.358 130.723 316.613 131.593 313.373 131.593ZM319.536 111.267C319.536 107.83 319.003 105.281 317.936 103.622C316.869 101.923 315.21 101.074 312.958 101.074C310.311 101.074 308.257 102.002 306.795 103.859C305.334 105.716 304.504 108.185 304.306 111.267H319.536ZM339.776 131.593C337.248 131.593 335.173 130.941 333.554 129.637C331.934 128.294 331.124 126.319 331.124 123.711C331.124 119.998 332.685 117.37 335.806 115.83C338.927 114.249 342.541 113.459 346.65 113.459H350.62V108.896C350.62 106.842 350.383 105.262 349.909 104.156C349.475 103.01 348.783 102.22 347.835 101.785C346.887 101.311 345.603 101.074 343.983 101.074C342.127 101.074 340.744 101.449 339.835 102.2C338.927 102.911 338.472 103.879 338.472 105.104C338.472 106.249 339.025 107 340.131 107.356C340.131 108.343 339.756 109.212 339.006 109.963C338.255 110.714 337.366 111.089 336.339 111.089C335.233 111.089 334.344 110.793 333.672 110.2C333.001 109.568 332.665 108.62 332.665 107.356C332.665 105.064 333.81 103.227 336.102 101.844C338.393 100.462 341.257 99.7704 344.694 99.7704C352.596 99.7704 356.546 103.207 356.546 110.081V127.03C356.546 127.899 356.724 128.57 357.08 129.044C357.475 129.479 358.028 129.696 358.739 129.696C359.41 129.696 359.944 129.479 360.339 129.044C360.734 128.57 360.931 127.938 360.931 127.148H362.176C362.176 128.531 361.722 129.617 360.813 130.407C359.944 131.198 358.719 131.593 357.139 131.593C355.322 131.593 353.781 131.079 352.517 130.052C351.292 128.985 350.66 127.346 350.62 125.133C349.672 127.148 348.21 128.728 346.235 129.874C344.299 131.02 342.146 131.593 339.776 131.593ZM343.035 128.985C344.102 128.985 345.188 128.669 346.294 128.037C347.44 127.405 348.408 126.496 349.198 125.311C349.988 124.086 350.462 122.625 350.62 120.926V114.763H346.65C343.41 114.763 340.981 115.494 339.361 116.956C337.781 118.378 336.991 120.393 336.991 123C336.991 125.173 337.504 126.714 338.531 127.622C339.559 128.531 341.06 128.985 343.035 128.985ZM363.621 129.815L367.769 129.222V102.081L363.621 101.489V100.304H373.695V104.867C376.184 101.469 378.989 99.7704 382.11 99.7704C383.611 99.7704 384.934 100.165 386.08 100.956C387.226 101.706 387.799 102.793 387.799 104.215C387.799 105.242 387.463 106.111 386.791 106.822C386.12 107.494 385.231 107.83 384.125 107.83C382.86 107.83 381.833 107.336 381.043 106.348C381.478 105.795 381.695 105.202 381.695 104.57C381.695 103.899 381.458 103.365 380.984 102.97C380.549 102.536 379.957 102.319 379.206 102.319C378.376 102.319 377.527 102.714 376.658 103.504C375.789 104.254 374.801 105.44 373.695 107.059V129.222L378.436 129.815V131H363.621V129.815ZM403.659 129.815L407.807 129.222V85.3704L403.659 84.7778V83.5926H413.733V106.704C415.195 104.57 416.913 102.891 418.888 101.667C420.864 100.402 422.997 99.7704 425.288 99.7704C428.133 99.7704 430.365 100.481 431.985 101.904C433.644 103.326 434.474 105.44 434.474 108.244V129.222L438.622 129.815V131H424.992V129.815L428.548 129.222V108.363C428.548 106.309 428.133 104.728 427.303 103.622C426.474 102.477 425.19 101.904 423.451 101.904C421.634 101.904 419.876 102.575 418.177 103.919C416.518 105.222 415.037 106.842 413.733 108.778V129.222L417.288 129.815V131H403.659V129.815ZM454.024 131.593C451.179 131.593 448.927 130.881 447.268 129.459C445.648 128.037 444.838 125.923 444.838 123.119V102.081L440.69 101.489V100.304H450.764V123C450.764 125.015 451.179 126.595 452.009 127.741C452.838 128.886 454.122 129.459 455.861 129.459C457.678 129.459 459.416 128.867 461.075 127.681C462.774 126.457 464.275 124.956 465.579 123.178V102.081L461.431 101.489V100.304H471.505V129.222L475.653 129.815V131H465.579V125.311C464.157 127.286 462.438 128.827 460.424 129.933C458.448 131.04 456.315 131.593 454.024 131.593ZM478.725 129.815L482.873 129.222V102.081L478.725 101.489V100.304H488.799V105.756C490.221 103.899 491.821 102.437 493.599 101.37C495.416 100.304 497.372 99.7704 499.466 99.7704C501.876 99.7704 503.831 100.304 505.332 101.37C506.873 102.398 507.841 103.958 508.236 106.052C509.658 104.116 511.278 102.595 513.095 101.489C514.913 100.343 516.908 99.7704 519.081 99.7704C521.885 99.7704 524.058 100.481 525.599 101.904C527.179 103.286 527.969 105.4 527.969 108.244V129.222L532.118 129.815V131H518.488V129.815L522.044 129.222V108.363C522.044 106.269 521.668 104.669 520.918 103.563C520.167 102.457 518.942 101.904 517.244 101.904C515.624 101.904 514.044 102.457 512.503 103.563C511.002 104.669 509.639 106.091 508.414 107.83V129.222L511.969 129.815V131H498.873V129.815L502.429 129.222V108.363C502.429 106.269 502.053 104.669 501.303 103.563C500.552 102.457 499.327 101.904 497.629 101.904C496.009 101.904 494.429 102.457 492.888 103.563C491.387 104.669 490.024 106.091 488.799 107.83V129.222L492.355 129.815V131H478.725V129.815ZM551.098 131.593C548.253 131.593 545.666 130.941 543.335 129.637C541.004 128.294 539.147 126.417 537.764 124.007C536.421 121.558 535.75 118.773 535.75 115.652C535.75 112.531 536.421 109.765 537.764 107.356C539.147 104.946 541.004 103.089 543.335 101.785C545.666 100.442 548.253 99.7704 551.098 99.7704C553.942 99.7704 556.53 100.442 558.861 101.785C561.192 103.089 563.029 104.946 564.372 107.356C565.754 109.765 566.446 112.531 566.446 115.652C566.446 118.773 565.754 121.558 564.372 124.007C563.029 126.417 561.192 128.294 558.861 129.637C556.53 130.941 553.942 131.593 551.098 131.593ZM551.098 130.289C554.021 130.289 556.214 129.222 557.675 127.089C559.177 124.956 559.927 122.131 559.927 118.615V112.689C559.927 109.173 559.177 106.368 557.675 104.274C556.214 102.141 554.021 101.074 551.098 101.074C548.174 101.074 545.962 102.141 544.461 104.274C542.999 106.368 542.268 109.173 542.268 112.689V118.615C542.268 122.131 542.999 124.956 544.461 127.089C545.962 129.222 548.174 130.289 551.098 130.289ZM583.306 131.593C580.462 131.593 578.21 130.881 576.55 129.459C574.931 128.037 574.121 125.923 574.121 123.119V102.081L569.973 101.489V100.304H580.047V123C580.047 125.015 580.462 126.595 581.291 127.741C582.121 128.886 583.405 129.459 585.143 129.459C586.96 129.459 588.699 128.867 590.358 127.681C592.057 126.457 593.558 124.956 594.862 123.178V102.081L590.713 101.489V100.304H600.787V129.222L604.936 129.815V131H594.862V125.311C593.439 127.286 591.721 128.827 589.706 129.933C587.731 131.04 585.597 131.593 583.306 131.593ZM608.007 129.815L612.156 129.222V102.081L608.007 101.489V100.304H618.081V104.867C620.57 101.469 623.375 99.7704 626.496 99.7704C627.998 99.7704 629.321 100.165 630.467 100.956C631.612 101.706 632.185 102.793 632.185 104.215C632.185 105.242 631.849 106.111 631.178 106.822C630.506 107.494 629.617 107.83 628.511 107.83C627.247 107.83 626.22 107.336 625.43 106.348C625.864 105.795 626.081 105.202 626.081 104.57C626.081 103.899 625.844 103.365 625.37 102.97C624.936 102.536 624.343 102.319 623.593 102.319C622.763 102.319 621.914 102.714 621.044 103.504C620.175 104.254 619.188 105.44 618.081 107.059V129.222L622.822 129.815V131H608.007V129.815Z" fill="black"/>
<path opacity="0.2" d="M99.68 40.8C98.0267 40.8 96.5067 40.48 95.12 39.84C93.76 39.2 92.68 38.3333 91.88 37.24C91.08 36.1467 90.68 34.92 90.68 33.56C90.68 32.4667 90.9867 31.6133 91.6 31C92.2133 30.36 92.9467 30.04 93.8 30.04C94.6 30.04 95.2933 30.2933 95.88 30.8C96.4667 31.3067 96.76 32.04 96.76 33C95.3467 33.6933 94.64 34.76 94.64 36.2C94.64 37.2933 95.0933 38.1867 96 38.88C96.9333 39.5467 98.16 39.88 99.68 39.88C101.6 39.88 103.16 39.16 104.36 37.72C105.56 36.28 106.16 34.2667 106.16 31.68C106.16 28.88 105.36 26.72 103.76 25.2C102.16 23.6533 99.8 22.7867 96.68 22.6V21.72C99.48 21.56 101.653 20.8133 103.2 19.48C104.773 18.12 105.56 16.2933 105.56 14C105.56 12.2133 105.067 10.7867 104.08 9.72C103.12 8.65333 101.827 8.12 100.2 8.12C98.7333 8.12 97.5733 8.37333 96.72 8.88C95.8933 9.36 95.48 10.04 95.48 10.92C95.48 12.3333 96.1467 13.3467 97.48 13.96C97.48 14.8667 97.2 15.5733 96.64 16.08C96.1067 16.56 95.4533 16.8 94.68 16.8C93.88 16.8 93.1867 16.4933 92.6 15.88C92.0133 15.2667 91.72 14.4533 91.72 13.44C91.72 12.24 92.1333 11.1733 92.96 10.24C93.7867 9.28 94.88 8.53333 96.24 8C97.6267 7.46667 99.0933 7.2 100.64 7.2C103.68 7.2 106.053 7.81333 107.76 9.04C109.467 10.2667 110.32 11.9867 110.32 14.2C110.32 16.52 109.48 18.32 107.8 19.6C106.147 20.8533 103.733 21.6933 100.56 22.12V22.24C103.893 22.4 106.573 23.2933 108.6 24.92C110.653 26.52 111.68 28.7733 111.68 31.68C111.68 33.3067 111.227 34.8133 110.32 36.2C109.44 37.5867 108.093 38.7067 106.28 39.56C104.493 40.3867 102.293 40.8 99.68 40.8ZM127.725 40.8C125.405 40.8 123.378 40.1733 121.645 38.92C119.911 37.6667 118.565 35.7867 117.605 33.28C116.645 30.7467 116.165 27.6533 116.165 24C116.165 20.3467 116.645 17.2667 117.605 14.76C118.565 12.2267 119.911 10.3333 121.645 9.08C123.378 7.82666 125.405 7.2 127.725 7.2C130.045 7.2 132.071 7.82666 133.805 9.08C135.538 10.3333 136.885 12.2267 137.845 14.76C138.805 17.2667 139.285 20.3467 139.285 24C139.285 27.6533 138.805 30.7467 137.845 33.28C136.885 35.7867 135.538 37.6667 133.805 38.92C132.071 40.1733 130.045 40.8 127.725 40.8ZM127.725 39.88C129.725 39.88 131.298 38.9067 132.445 36.96C133.591 35.0133 134.165 31.9733 134.165 27.84V20.12C134.165 16.0133 133.591 12.9867 132.445 11.04C131.298 9.09333 129.725 8.12 127.725 8.12C125.725 8.12 124.151 9.09333 123.005 11.04C121.858 12.9867 121.285 16.0133 121.285 20.12V27.84C121.285 31.9467 121.858 34.9867 123.005 36.96C124.151 38.9067 125.725 39.88 127.725 39.88ZM160.587 40.4C158.827 40.4 157.413 39.96 156.347 39.08C155.307 38.2 154.787 36.8 154.787 34.88V20.48L151.947 20.08V19.28H154.787V15.96L158.787 14.96V19.28H163.987V20.08L158.787 20.48V34.8C158.787 37.6267 159.8 39.04 161.827 39.04C162.253 39.04 162.653 38.9733 163.027 38.84C163.427 38.7067 163.733 38.5733 163.947 38.44C164.187 38.3067 164.333 38.2133 164.387 38.16L164.907 38.8C163.707 39.8667 162.267 40.4 160.587 40.4ZM172.774 40.4C171.067 40.4 169.667 39.96 168.574 39.08C167.48 38.1733 166.934 36.84 166.934 35.08C166.934 32.5733 167.987 30.8 170.094 29.76C172.2 28.6933 174.64 28.16 177.414 28.16H180.094V25.08C180.094 23.6933 179.934 22.6267 179.614 21.88C179.32 21.1067 178.854 20.5733 178.214 20.28C177.574 19.96 176.707 19.8 175.614 19.8C174.36 19.8 173.427 20.0533 172.814 20.56C172.2 21.04 171.894 21.6933 171.894 22.52C171.894 23.2933 172.267 23.8 173.014 24.04C173.014 24.7067 172.76 25.2933 172.254 25.8C171.747 26.3067 171.147 26.56 170.454 26.56C169.707 26.56 169.107 26.36 168.654 25.96C168.2 25.5333 167.974 24.8933 167.974 24.04C167.974 22.4933 168.747 21.2533 170.294 20.32C171.84 19.3867 173.774 18.92 176.094 18.92C181.427 18.92 184.094 21.24 184.094 25.88V37.32C184.094 37.9067 184.214 38.36 184.454 38.68C184.72 38.9733 185.094 39.12 185.574 39.12C186.027 39.12 186.387 38.9733 186.654 38.68C186.92 38.36 187.054 37.9333 187.054 37.4H187.894C187.894 38.3333 187.587 39.0667 186.974 39.6C186.387 40.1333 185.56 40.4 184.494 40.4C183.267 40.4 182.227 40.0533 181.374 39.36C180.547 38.64 180.12 37.5333 180.094 36.04C179.454 37.4 178.467 38.4667 177.134 39.24C175.827 40.0133 174.374 40.4 172.774 40.4ZM174.974 38.64C175.694 38.64 176.427 38.4267 177.174 38C177.947 37.5733 178.6 36.96 179.134 36.16C179.667 35.3333 179.987 34.3467 180.094 33.2V29.04H177.414C175.227 29.04 173.587 29.5333 172.494 30.52C171.427 31.48 170.894 32.84 170.894 34.6C170.894 36.0667 171.24 37.1067 171.934 37.72C172.627 38.3333 173.64 38.64 174.974 38.64ZM202.149 40.4C200.576 40.4 199.216 40 198.069 39.2C196.949 38.3733 196.056 37.2533 195.389 35.84V40H188.589V39.2L191.389 38.8V9.2L188.589 8.8V8H195.389V23.48C196.056 22.0667 196.949 20.96 198.069 20.16C199.216 19.3333 200.576 18.92 202.149 18.92C204.042 18.92 205.709 19.36 207.149 20.24C208.589 21.12 209.709 22.3733 210.509 24C211.309 25.6 211.709 27.48 211.709 29.64C211.709 31.8 211.309 33.6933 210.509 35.32C209.709 36.92 208.589 38.1733 207.149 39.08C205.709 39.96 204.042 40.4 202.149 40.4ZM201.749 39.4C205.456 39.4 207.309 36.8133 207.309 31.64V27.64C207.309 22.4933 205.456 19.92 201.749 19.92C200.576 19.92 199.509 20.2667 198.549 20.96C197.589 21.6267 196.829 22.5333 196.269 23.68C195.709 24.8 195.416 26.0267 195.389 27.36V31.64C195.389 33 195.656 34.28 196.189 35.48C196.749 36.68 197.509 37.64 198.469 38.36C199.456 39.0533 200.549 39.4 201.749 39.4ZM223.014 40.4C220.827 40.4 219.001 39.9333 217.534 39C216.067 38.0667 215.334 36.8533 215.334 35.36C215.334 34.5867 215.534 33.9867 215.934 33.56C216.361 33.1067 216.921 32.88 217.614 32.88C218.147 32.88 218.601 33.0133 218.974 33.28C219.347 33.5467 219.614 33.92 219.774 34.4C219.187 35.04 218.894 35.72 218.894 36.44C218.894 37.2667 219.267 37.9867 220.014 38.6C220.761 39.2133 221.761 39.52 223.014 39.52C224.694 39.52 226.067 39.1467 227.134 38.4C228.201 37.6267 228.734 36.6 228.734 35.32C228.734 34.5733 228.507 34.0133 228.054 33.64C227.601 33.2667 226.721 32.84 225.414 32.36L219.374 30.16C217.001 29.3067 215.814 27.72 215.814 25.4C215.814 23.5067 216.467 21.96 217.774 20.76C219.081 19.5333 220.881 18.92 223.174 18.92C225.067 18.92 226.681 19.36 228.014 20.24C229.374 21.0933 230.054 22.32 230.054 23.92C230.054 24.56 229.881 25.08 229.534 25.48C229.187 25.8533 228.734 26.04 228.174 26.04C227.614 26.04 227.147 25.8933 226.774 25.6C226.427 25.28 226.254 24.8533 226.254 24.32C226.601 24.0533 226.841 23.7733 226.974 23.48C227.107 23.16 227.174 22.7867 227.174 22.36C227.174 21.6133 226.841 21 226.174 20.52C225.534 20.04 224.534 19.8 223.174 19.8C222.001 19.8 220.987 19.9867 220.134 20.36C219.307 20.7067 218.681 21.1733 218.254 21.76C217.827 22.3467 217.614 22.9467 217.614 23.56C217.614 24.2 217.841 24.7067 218.294 25.08C218.774 25.4533 219.641 25.8667 220.894 26.32L226.494 28.32C227.801 28.8 228.787 29.4667 229.454 30.32C230.121 31.1733 230.454 32.28 230.454 33.64C230.454 35.5867 229.841 37.2 228.614 38.48C227.387 39.76 225.521 40.4 223.014 40.4ZM254.088 40.4C252.168 40.4 250.421 39.96 248.848 39.08C247.274 38.1733 246.021 36.9067 245.088 35.28C244.181 33.6267 243.728 31.7467 243.728 29.64C243.728 27.5333 244.181 25.6667 245.088 24.04C246.021 22.4133 247.274 21.16 248.848 20.28C250.421 19.3733 252.168 18.92 254.088 18.92C256.008 18.92 257.754 19.3733 259.328 20.28C260.901 21.16 262.141 22.4133 263.048 24.04C263.981 25.6667 264.448 27.5333 264.448 29.64C264.448 31.7467 263.981 33.6267 263.048 35.28C262.141 36.9067 260.901 38.1733 259.328 39.08C257.754 39.96 256.008 40.4 254.088 40.4ZM254.088 39.52C256.061 39.52 257.541 38.8 258.528 37.36C259.541 35.92 260.048 34.0133 260.048 31.64V27.64C260.048 25.2667 259.541 23.3733 258.528 21.96C257.541 20.52 256.061 19.8 254.088 19.8C252.114 19.8 250.621 20.52 249.608 21.96C248.621 23.3733 248.128 25.2667 248.128 27.64V31.64C248.128 34.0133 248.621 35.92 249.608 37.36C250.621 38.8 252.114 39.52 254.088 39.52ZM266.988 50.52L269.788 50.12V20.52L266.988 20.12V19.32H273.788V23.52C274.455 22.08 275.348 20.96 276.468 20.16C277.615 19.3333 278.975 18.92 280.548 18.92C282.442 18.92 284.108 19.3733 285.548 20.28C286.988 21.16 288.108 22.4133 288.908 24.04C289.708 25.64 290.108 27.52 290.108 29.68C290.108 31.84 289.708 33.7333 288.908 35.36C288.108 36.96 286.988 38.2 285.548 39.08C284.108 39.96 282.442 40.4 280.548 40.4C278.975 40.4 277.615 40 276.468 39.2C275.348 38.3733 274.455 37.2533 273.788 35.84V50.12L277.548 50.52V51.32H266.988V50.52ZM280.148 39.4C283.855 39.4 285.708 36.8267 285.708 31.68V27.68C285.708 22.5067 283.855 19.92 280.148 19.92C278.975 19.92 277.908 20.2667 276.948 20.96C275.988 21.6267 275.228 22.5333 274.668 23.68C274.108 24.8267 273.815 26.0667 273.788 27.4V31.68C273.788 33.04 274.055 34.32 274.588 35.52C275.148 36.6933 275.908 37.64 276.868 38.36C277.855 39.0533 278.948 39.4 280.148 39.4ZM304.093 40.4C302.119 40.4 300.333 39.96 298.733 39.08C297.133 38.1733 295.866 36.9067 294.933 35.28C293.999 33.6533 293.533 31.7733 293.533 29.64C293.533 27.5067 293.986 25.64 294.893 24.04C295.826 22.4133 297.066 21.16 298.613 20.28C300.186 19.3733 301.933 18.92 303.853 18.92C305.533 18.92 307.039 19.2933 308.373 20.04C309.706 20.7867 310.746 21.8267 311.493 23.16C312.239 24.4667 312.626 25.9733 312.653 27.68H297.933V31.64C297.933 33.9867 298.453 35.8933 299.493 37.36C300.559 38.8 302.093 39.52 304.093 39.52C305.933 39.52 307.559 39 308.973 37.96C310.386 36.92 311.253 35.5733 311.573 33.92H312.493C312.119 35.8933 311.173 37.4667 309.653 38.64C308.133 39.8133 306.279 40.4 304.093 40.4ZM308.253 26.68C308.253 24.36 307.893 22.64 307.173 21.52C306.453 20.3733 305.333 19.8 303.813 19.8C302.026 19.8 300.639 20.4267 299.653 21.68C298.666 22.9333 298.106 24.6 297.973 26.68H308.253ZM315.314 39.2L318.114 38.8V20.48L315.314 20.08V19.28H322.114V23.6C323.101 22.16 324.261 21.0267 325.594 20.2C326.928 19.3467 328.368 18.92 329.914 18.92C331.834 18.92 333.341 19.4 334.434 20.36C335.554 21.32 336.114 22.7467 336.114 24.64V38.8L338.914 39.2V40H329.714V39.2L332.114 38.8V24.72C332.114 23.3333 331.834 22.2667 331.274 21.52C330.714 20.7467 329.848 20.36 328.674 20.36C327.448 20.36 326.261 20.8133 325.114 21.72C323.994 22.6 322.994 23.6933 322.114 25V38.8L324.514 39.2V40H315.314V39.2ZM354.555 14.64C353.809 14.64 353.169 14.3867 352.635 13.88C352.102 13.3467 351.835 12.7067 351.835 11.96C351.835 11.2133 352.089 10.5867 352.595 10.08C353.129 9.57333 353.782 9.32 354.555 9.32C355.275 9.32 355.889 9.57333 356.395 10.08C356.902 10.5867 357.155 11.2133 357.155 11.96C357.155 12.7067 356.902 13.3467 356.395 13.88C355.889 14.3867 355.275 14.64 354.555 14.64ZM350.315 40V39.2L353.115 38.8V20.52L350.315 20.12V19.32H357.115V38.8L359.915 39.2V40H350.315ZM361.838 39.2L364.638 38.8V20.48L361.838 20.08V19.28H368.638V23.6C369.624 22.16 370.784 21.0267 372.118 20.2C373.451 19.3467 374.891 18.92 376.438 18.92C378.358 18.92 379.864 19.4 380.958 20.36C382.078 21.32 382.638 22.7467 382.638 24.64V38.8L385.438 39.2V40H376.238V39.2L378.638 38.8V24.72C378.638 23.3333 378.358 22.2667 377.798 21.52C377.238 20.7467 376.371 20.36 375.198 20.36C373.971 20.36 372.784 20.8133 371.638 21.72C370.518 22.6 369.518 23.6933 368.638 25V38.8L371.038 39.2V40H361.838V39.2ZM409.999 40.8C407.519 40.8 405.079 40.0933 402.679 38.68L399.279 40.4H398.399V30.12H399.279L402.719 37.56C404.932 39.1333 407.465 39.92 410.319 39.92C412.665 39.92 414.599 39.3067 416.119 38.08C417.665 36.8267 418.439 35.08 418.439 32.84C418.439 31.2133 417.945 29.9333 416.959 29C415.972 28.04 414.372 27.28 412.159 26.72L405.519 25C403.199 24.3867 401.452 23.3467 400.279 21.88C399.105 20.3867 398.519 18.6267 398.519 16.6C398.519 14.76 398.879 13.1333 399.599 11.72C400.345 10.28 401.425 9.17333 402.839 8.4C404.252 7.6 405.932 7.2 407.879 7.2C410.305 7.2 412.479 7.61333 414.399 8.44L417.319 7.2H418.199V15.36H417.319L414.439 9.52C412.439 8.56 410.265 8.08 407.919 8.08C405.599 8.08 403.772 8.68 402.439 9.88C401.105 11.0533 400.439 12.6133 400.439 14.56C400.439 16 400.905 17.1333 401.839 17.96C402.799 18.7867 404.199 19.44 406.039 19.92L413.199 21.8C415.519 22.3867 417.239 23.4 418.359 24.84C419.505 26.2533 420.079 28.4133 420.079 31.32C420.079 34.28 419.159 36.6 417.319 38.28C415.505 39.96 413.065 40.8 409.999 40.8ZM430.039 40.4C428.333 40.4 426.933 39.96 425.839 39.08C424.746 38.1733 424.199 36.84 424.199 35.08C424.199 32.5733 425.253 30.8 427.359 29.76C429.466 28.6933 431.906 28.16 434.679 28.16H437.359V25.08C437.359 23.6933 437.199 22.6267 436.879 21.88C436.586 21.1067 436.119 20.5733 435.479 20.28C434.839 19.96 433.973 19.8 432.879 19.8C431.626 19.8 430.693 20.0533 430.079 20.56C429.466 21.04 429.159 21.6933 429.159 22.52C429.159 23.2933 429.533 23.8 430.279 24.04C430.279 24.7067 430.026 25.2933 429.519 25.8C429.013 26.3067 428.413 26.56 427.719 26.56C426.973 26.56 426.373 26.36 425.919 25.96C425.466 25.5333 425.239 24.8933 425.239 24.04C425.239 22.4933 426.013 21.2533 427.559 20.32C429.106 19.3867 431.039 18.92 433.359 18.92C438.693 18.92 441.359 21.24 441.359 25.88V37.32C441.359 37.9067 441.479 38.36 441.719 38.68C441.986 38.9733 442.359 39.12 442.839 39.12C443.293 39.12 443.653 38.9733 443.919 38.68C444.186 38.36 444.319 37.9333 444.319 37.4H445.159C445.159 38.3333 444.853 39.0667 444.239 39.6C443.653 40.1333 442.826 40.4 441.759 40.4C440.533 40.4 439.493 40.0533 438.639 39.36C437.813 38.64 437.386 37.5333 437.359 36.04C436.719 37.4 435.733 38.4667 434.399 39.24C433.093 40.0133 431.639 40.4 430.039 40.4ZM432.239 38.64C432.959 38.64 433.693 38.4267 434.439 38C435.213 37.5733 435.866 36.96 436.399 36.16C436.933 35.3333 437.253 34.3467 437.359 33.2V29.04H434.679C432.493 29.04 430.853 29.5333 429.759 30.52C428.693 31.48 428.159 32.84 428.159 34.6C428.159 36.0667 428.506 37.1067 429.199 37.72C429.893 38.3333 430.906 38.64 432.239 38.64ZM446.135 39.2L448.935 38.8V20.48L446.135 20.08V19.28H448.935V15.92C448.935 13.36 449.455 11.3333 450.495 9.84C451.535 8.34666 453.308 7.6 455.815 7.6C457.388 7.6 458.681 7.98666 459.695 8.76C460.735 9.50667 461.255 10.5333 461.255 11.84C461.255 12.64 461.028 13.2933 460.575 13.8C460.148 14.3067 459.561 14.56 458.815 14.56C458.148 14.56 457.561 14.3067 457.055 13.8C456.548 13.2933 456.295 12.7067 456.295 12.04C457.201 11.7733 457.655 11.1467 457.655 10.16C457.655 9.70667 457.468 9.32 457.095 9C456.748 8.65333 456.321 8.48 455.815 8.48C454.775 8.48 454.028 8.97333 453.575 9.96C453.148 10.92 452.935 12.4933 452.935 14.68V19.28H458.135V20.08L452.935 20.48V38.8L457.695 39.2V40H446.135V39.2ZM466.328 40.4C464.622 40.4 463.222 39.96 462.128 39.08C461.035 38.1733 460.488 36.84 460.488 35.08C460.488 32.5733 461.542 30.8 463.648 29.76C465.755 28.6933 468.195 28.16 470.968 28.16H473.648V25.08C473.648 23.6933 473.488 22.6267 473.168 21.88C472.875 21.1067 472.408 20.5733 471.768 20.28C471.128 19.96 470.262 19.8 469.168 19.8C467.915 19.8 466.982 20.0533 466.368 20.56C465.755 21.04 465.448 21.6933 465.448 22.52C465.448 23.2933 465.822 23.8 466.568 24.04C466.568 24.7067 466.315 25.2933 465.808 25.8C465.302 26.3067 464.702 26.56 464.008 26.56C463.262 26.56 462.662 26.36 462.208 25.96C461.755 25.5333 461.528 24.8933 461.528 24.04C461.528 22.4933 462.302 21.2533 463.848 20.32C465.395 19.3867 467.328 18.92 469.648 18.92C474.982 18.92 477.648 21.24 477.648 25.88V37.32C477.648 37.9067 477.768 38.36 478.008 38.68C478.275 38.9733 478.648 39.12 479.128 39.12C479.582 39.12 479.942 38.9733 480.208 38.68C480.475 38.36 480.608 37.9333 480.608 37.4H481.448C481.448 38.3333 481.142 39.0667 480.528 39.6C479.942 40.1333 479.115 40.4 478.048 40.4C476.822 40.4 475.782 40.0533 474.928 39.36C474.102 38.64 473.675 37.5333 473.648 36.04C473.008 37.4 472.022 38.4667 470.688 39.24C469.382 40.0133 467.928 40.4 466.328 40.4ZM468.528 38.64C469.248 38.64 469.982 38.4267 470.728 38C471.502 37.5733 472.155 36.96 472.688 36.16C473.222 35.3333 473.542 34.3467 473.648 33.2V29.04H470.968C468.782 29.04 467.142 29.5333 466.048 30.52C464.982 31.48 464.448 32.84 464.448 34.6C464.448 36.0667 464.795 37.1067 465.488 37.72C466.182 38.3333 467.195 38.64 468.528 38.64ZM482.424 39.2L485.224 38.8V20.48L482.424 20.08V19.28H489.224V22.36C490.904 20.0667 492.797 18.92 494.904 18.92C495.917 18.92 496.81 19.1867 497.584 19.72C498.357 20.2267 498.744 20.96 498.744 21.92C498.744 22.6133 498.517 23.2 498.064 23.68C497.61 24.1333 497.01 24.36 496.264 24.36C495.41 24.36 494.717 24.0267 494.184 23.36C494.477 22.9867 494.624 22.5867 494.624 22.16C494.624 21.7067 494.464 21.3467 494.144 21.08C493.85 20.7867 493.45 20.64 492.944 20.64C492.384 20.64 491.81 20.9067 491.224 21.44C490.637 21.9467 489.97 22.7467 489.224 23.84V38.8L492.424 39.2V40H482.424V39.2ZM504.399 14.64C503.652 14.64 503.012 14.3867 502.479 13.88C501.946 13.3467 501.679 12.7067 501.679 11.96C501.679 11.2133 501.932 10.5867 502.439 10.08C502.972 9.57333 503.626 9.32 504.399 9.32C505.119 9.32 505.732 9.57333 506.239 10.08C506.746 10.5867 506.999 11.2133 506.999 11.96C506.999 12.7067 506.746 13.3467 506.239 13.88C505.732 14.3867 505.119 14.64 504.399 14.64ZM500.159 40V39.2L502.959 38.8V20.52L500.159 20.12V19.32H506.959V38.8L509.759 39.2V40H500.159Z" fill="black"/>
<path opacity="0.2" d="M1.91235 223V221.996L6.31076 221.279V186.474L1.91235 185.805V184.753H15.9681V185.805L11.5697 186.474V221.853H25.8645L29.7849 211.335H31.0757V223H1.91235ZM34.1739 223V221.996L38.5723 221.279V186.474L34.1739 185.805V184.753H62.9548V195.701H61.664L57.9827 185.948H43.8313V203.159H50.0464L52.8672 196.227H54.1102V211.335H52.8672L49.9986 204.307H43.8313V221.853H58.8433L62.7636 211.335H64.0066V223H34.1739ZM86.6059 223.956C83.1318 223.956 80.088 223.112 77.4745 221.422C74.8609 219.733 72.837 217.375 71.4028 214.347C70.0004 211.319 69.2992 207.829 69.2992 203.876C69.2992 199.924 70.0482 196.434 71.5462 193.406C73.0442 190.378 75.1318 188.02 77.8091 186.331C80.5183 184.641 83.6099 183.797 87.084 183.797C90.3669 183.797 93.1398 184.625 95.4028 186.283L98.3191 183.797H99.3231V195.653H98.3191L95.1637 187.765C92.8689 185.853 90.1757 184.896 87.084 184.896C84.853 184.896 82.845 185.47 81.0601 186.618C79.3071 187.765 77.9207 189.438 76.9008 191.637C75.9127 193.837 75.4187 196.45 75.4187 199.478V208.227C75.4187 211.255 75.8808 213.869 76.8051 216.068C77.7613 218.267 79.0681 219.956 80.7255 221.135C82.4147 222.283 84.3749 222.857 86.6059 222.857C89.347 222.857 91.4665 222.012 92.9645 220.323C94.4944 218.633 95.2593 216.371 95.2593 213.534V209.088L90.8131 208.418V207.367H105.108V208.418L100.662 209.088V213.534C100.662 215.351 100.168 217.056 99.1796 218.649C98.1916 220.211 96.6458 221.486 94.5422 222.474C92.4386 223.462 89.7932 223.956 86.6059 223.956ZM126.214 223.956C122.74 223.956 119.633 223.112 116.892 221.422C114.151 219.733 112.015 217.375 110.485 214.347C108.955 211.287 108.19 207.797 108.19 203.876C108.19 199.956 108.955 196.482 110.485 193.454C112.015 190.394 114.151 188.02 116.892 186.331C119.633 184.641 122.74 183.797 126.214 183.797C129.688 183.797 132.796 184.641 135.537 186.331C138.278 188.02 140.414 190.394 141.943 193.454C143.473 196.482 144.238 199.956 144.238 203.876C144.238 207.797 143.473 211.287 141.943 214.347C140.414 217.375 138.278 219.733 135.537 221.422C132.796 223.112 129.688 223.956 126.214 223.956ZM126.214 222.857C128.509 222.857 130.565 222.251 132.382 221.04C134.23 219.829 135.681 218.076 136.732 215.781C137.784 213.454 138.31 210.713 138.31 207.558V200.195C138.31 197.04 137.784 194.315 136.732 192.02C135.681 189.693 134.23 187.924 132.382 186.713C130.565 185.502 128.509 184.896 126.214 184.896C123.888 184.896 121.816 185.502 119.999 186.713C118.183 187.924 116.748 189.693 115.696 192.02C114.645 194.315 114.119 197.04 114.119 200.195V207.558C114.119 210.713 114.645 213.454 115.696 215.781C116.748 218.076 118.183 219.829 119.999 221.04C121.816 222.251 123.888 222.857 126.214 222.857ZM175.436 223.478C173.556 223.478 171.931 223 170.56 222.044C169.221 221.056 168.154 219.717 167.357 218.028V223H159.229V222.044L162.576 221.566V186.187L159.229 185.709V184.753H167.357V203.255C168.154 201.566 169.221 200.243 170.56 199.287C171.931 198.299 173.556 197.805 175.436 197.805C177.699 197.805 179.691 198.331 181.413 199.382C183.134 200.434 184.472 201.932 185.429 203.876C186.385 205.789 186.863 208.036 186.863 210.618C186.863 213.199 186.385 215.462 185.429 217.406C184.472 219.319 183.134 220.817 181.413 221.9C179.691 222.952 177.699 223.478 175.436 223.478ZM174.958 222.283C179.389 222.283 181.604 219.191 181.604 213.008V208.227C181.604 202.076 179.389 199 174.958 199C173.556 199 172.281 199.414 171.134 200.243C169.986 201.04 169.078 202.124 168.409 203.494C167.739 204.833 167.389 206.299 167.357 207.892V213.008C167.357 214.633 167.676 216.163 168.313 217.598C168.982 219.032 169.891 220.179 171.038 221.04C172.217 221.869 173.524 222.283 174.958 222.283ZM190.191 222.044L193.538 221.566V199.669L190.191 199.191V198.235H198.319V201.916C200.327 199.175 202.59 197.805 205.108 197.805C206.319 197.805 207.387 198.124 208.311 198.761C209.235 199.367 209.697 200.243 209.697 201.39C209.697 202.219 209.427 202.92 208.885 203.494C208.343 204.036 207.626 204.307 206.733 204.307C205.713 204.307 204.885 203.908 204.247 203.112C204.598 202.665 204.773 202.187 204.773 201.677C204.773 201.135 204.582 200.705 204.199 200.386C203.849 200.036 203.371 199.861 202.765 199.861C202.096 199.861 201.411 200.179 200.709 200.817C200.008 201.422 199.211 202.378 198.319 203.685V221.566L202.144 222.044V223H190.191V222.044ZM216.457 192.689C215.564 192.689 214.799 192.386 214.162 191.781C213.525 191.143 213.206 190.378 213.206 189.486C213.206 188.594 213.509 187.845 214.114 187.239C214.752 186.633 215.532 186.331 216.457 186.331C217.317 186.331 218.05 186.633 218.656 187.239C219.262 187.845 219.564 188.594 219.564 189.486C219.564 190.378 219.262 191.143 218.656 191.781C218.05 192.386 217.317 192.689 216.457 192.689ZM211.389 223V222.044L214.736 221.566V199.717L211.389 199.239V198.283H219.517V221.566L222.863 222.044V223H211.389ZM238.308 223.478C236.014 223.478 233.926 222.952 232.045 221.9C230.165 220.817 228.667 219.303 227.551 217.359C226.468 215.382 225.926 213.135 225.926 210.618C225.926 207.972 226.5 205.677 227.647 203.733C228.826 201.789 230.356 200.323 232.237 199.335C234.117 198.315 236.141 197.805 238.308 197.805C240.125 197.805 241.782 198.124 243.28 198.761C244.778 199.367 245.958 200.227 246.818 201.343C247.711 202.458 248.157 203.717 248.157 205.12C248.157 206.171 247.886 206.984 247.344 207.558C246.802 208.1 246.085 208.371 245.193 208.371C244.332 208.371 243.615 208.084 243.041 207.51C242.468 206.936 242.181 206.219 242.181 205.359C242.659 205.04 242.994 204.689 243.185 204.307C243.376 203.924 243.472 203.446 243.472 202.873C243.472 201.693 242.994 200.737 242.037 200.004C241.113 199.239 239.87 198.857 238.308 198.857C236.014 198.857 234.245 199.685 233.002 201.343C231.79 202.968 231.185 205.263 231.185 208.227V213.008C231.185 215.845 231.775 218.124 232.954 219.845C234.165 221.566 235.95 222.426 238.308 222.426C240.476 222.426 242.356 221.821 243.95 220.61C245.575 219.367 246.579 217.741 246.962 215.733H248.061C247.615 218.092 246.5 219.972 244.715 221.375C242.962 222.777 240.826 223.478 238.308 223.478ZM250.972 223V222.044L254.318 221.566V186.187L250.972 185.709V184.753H259.099V209.279L270.047 200.291L265.888 199.191V198.235H274.876V199.191L271.816 200.291L263.88 206.793L275.067 221.614L277.649 222.044V223H266.462V222.044L269.33 221.566L260.342 209.709L259.099 210.761V221.566L261.968 222.044V223H250.972ZM288.522 223.478C285.909 223.478 283.725 222.92 281.972 221.805C280.219 220.689 279.343 219.239 279.343 217.454C279.343 216.53 279.582 215.813 280.06 215.303C280.57 214.761 281.239 214.49 282.068 214.49C282.705 214.49 283.247 214.649 283.693 214.968C284.14 215.287 284.458 215.733 284.65 216.307C283.948 217.072 283.598 217.884 283.598 218.745C283.598 219.733 284.044 220.594 284.936 221.327C285.829 222.06 287.024 222.426 288.522 222.426C290.53 222.426 292.172 221.98 293.446 221.088C294.721 220.163 295.359 218.936 295.359 217.406C295.359 216.514 295.088 215.845 294.546 215.398C294.004 214.952 292.952 214.442 291.391 213.869L284.172 211.239C281.335 210.219 279.917 208.323 279.917 205.55C279.917 203.287 280.697 201.438 282.259 200.004C283.821 198.538 285.972 197.805 288.713 197.805C290.976 197.805 292.905 198.331 294.498 199.382C296.124 200.402 296.936 201.869 296.936 203.781C296.936 204.546 296.729 205.167 296.315 205.645C295.901 206.092 295.359 206.315 294.689 206.315C294.02 206.315 293.462 206.139 293.016 205.789C292.602 205.406 292.395 204.896 292.395 204.259C292.809 203.94 293.096 203.606 293.255 203.255C293.415 202.873 293.494 202.426 293.494 201.916C293.494 201.024 293.096 200.291 292.299 199.717C291.534 199.143 290.339 198.857 288.713 198.857C287.311 198.857 286.1 199.08 285.08 199.526C284.092 199.94 283.343 200.498 282.833 201.199C282.323 201.9 282.068 202.618 282.068 203.351C282.068 204.116 282.339 204.721 282.881 205.167C283.454 205.614 284.49 206.108 285.988 206.649L292.682 209.04C294.243 209.614 295.423 210.41 296.219 211.43C297.016 212.45 297.415 213.773 297.415 215.398C297.415 217.725 296.682 219.653 295.215 221.183C293.749 222.713 291.518 223.478 288.522 223.478Z" fill="black"/>
<path opacity="0.2" d="M420.99 277.483C419.187 277.483 417.835 277.048 416.933 276.179C416.032 275.31 415.42 273.829 415.098 271.736L414.18 265.265C413.859 263.076 413.102 261.369 411.911 260.146C410.752 258.89 408.933 258.262 406.454 258.262H402.687V275.261L407.13 275.986V277H392.932V275.986L397.375 275.261V240.104L392.932 239.428V238.366H406.454C411.701 238.366 415.5 239.187 417.851 240.829C420.201 242.471 421.376 244.966 421.376 248.314C421.376 253.852 418.028 257.055 411.331 257.924V258.214C413.81 258.568 415.79 259.454 417.271 260.87C418.784 262.287 419.734 264.17 420.12 266.52L420.748 270.674C421.006 272.477 421.296 273.7 421.618 274.344C421.972 274.988 422.503 275.31 423.211 275.31C423.694 275.31 424.209 275.165 424.757 274.875C425.304 274.553 425.819 274.151 426.302 273.668L427.123 274.537C426.189 275.6 425.223 276.356 424.225 276.807C423.227 277.258 422.149 277.483 420.99 277.483ZM408.096 257.103C410.446 257.103 412.265 256.395 413.553 254.979C414.873 253.53 415.533 251.405 415.533 248.604V247.59C415.533 242.245 412.506 239.573 406.454 239.573H402.687V257.103H408.096ZM437.774 277.483C435.456 277.483 433.621 276.903 432.269 275.744C430.949 274.585 430.289 272.863 430.289 270.577V253.433L426.909 252.95V251.984H435.118V270.48C435.118 272.122 435.456 273.41 436.133 274.344C436.809 275.278 437.855 275.744 439.272 275.744C440.753 275.744 442.169 275.261 443.521 274.296C444.906 273.298 446.129 272.074 447.192 270.625V253.433L443.811 252.95V251.984H452.021V275.551L455.401 276.034V277H447.192V272.364C446.033 273.974 444.632 275.229 442.99 276.131C441.38 277.032 439.642 277.483 437.774 277.483ZM457.905 276.034L461.285 275.551V253.433L457.905 252.95V251.984H466.114V257.2C467.306 255.461 468.706 254.093 470.316 253.095C471.926 252.065 473.664 251.55 475.531 251.55C477.849 251.55 479.669 252.129 480.989 253.288C482.341 254.447 483.017 256.17 483.017 258.456V275.551L486.397 276.034V277H475.29V276.034L478.188 275.551V258.552C478.188 256.878 477.849 255.59 477.173 254.689C476.497 253.755 475.451 253.288 474.034 253.288C472.553 253.288 471.121 253.836 469.736 254.93C468.384 255.993 467.177 257.313 466.114 258.89V275.551L469.012 276.034V277H457.905V276.034ZM488.559 276.034L491.94 275.551V253.433L488.559 252.95V251.984H496.769V257.2C497.96 255.461 499.361 254.093 500.97 253.095C502.58 252.065 504.319 251.55 506.186 251.55C508.504 251.55 510.323 252.129 511.643 253.288C512.995 254.447 513.671 256.17 513.671 258.456V275.551L517.052 276.034V277H505.945V276.034L508.842 275.551V258.552C508.842 256.878 508.504 255.59 507.828 254.689C507.152 253.755 506.105 253.288 504.689 253.288C503.208 253.288 501.775 253.836 500.391 254.93C499.039 255.993 497.831 257.313 496.769 258.89V275.551L499.666 276.034V277H488.559V276.034ZM524.381 246.382C523.48 246.382 522.707 246.077 522.063 245.465C521.419 244.821 521.097 244.048 521.097 243.147C521.097 242.245 521.403 241.489 522.015 240.877C522.659 240.265 523.447 239.96 524.381 239.96C525.25 239.96 525.991 240.265 526.602 240.877C527.214 241.489 527.52 242.245 527.52 243.147C527.52 244.048 527.214 244.821 526.602 245.465C525.991 246.077 525.25 246.382 524.381 246.382ZM519.262 277V276.034L522.642 275.551V253.481L519.262 252.999V252.033H527.472V275.551L530.852 276.034V277H519.262ZM533.173 276.034L536.554 275.551V253.433L533.173 252.95V251.984H541.383V257.2C542.574 255.461 543.975 254.093 545.585 253.095C547.194 252.065 548.933 251.55 550.8 251.55C553.118 251.55 554.937 252.129 556.257 253.288C557.609 254.447 558.285 256.17 558.285 258.456V275.551L561.666 276.034V277H550.559V276.034L553.456 275.551V258.552C553.456 256.878 553.118 255.59 552.442 254.689C551.766 253.755 550.72 253.288 549.303 253.288C547.822 253.288 546.389 253.836 545.005 254.93C543.653 255.993 542.445 257.313 541.383 258.89V275.551L544.281 276.034V277H533.173V276.034ZM588.602 249.715C588.602 250.97 588.135 252.049 587.201 252.95C586.268 253.852 584.787 254.431 582.759 254.689C583.596 255.912 584.014 257.586 584.014 259.711C584.014 262.222 583.113 264.202 581.31 265.651C579.539 267.1 577.285 267.824 574.549 267.824C573.422 267.824 572.392 267.728 571.458 267.535C569.398 267.663 568.367 268.468 568.367 269.949C568.367 270.786 568.705 271.398 569.381 271.784C570.09 272.171 571.201 272.364 572.714 272.364H578.122C580.73 272.364 582.662 272.895 583.918 273.958C585.205 275.02 585.849 276.839 585.849 279.415C585.849 281.218 585.382 282.876 584.449 284.389C583.547 285.902 582.227 287.093 580.489 287.962C578.75 288.864 576.674 289.315 574.259 289.315C570.621 289.315 567.933 288.767 566.194 287.673C564.488 286.578 563.635 285.129 563.635 283.326C563.635 282.232 564.053 281.266 564.89 280.429C565.727 279.592 566.87 279.173 568.319 279.173C568.609 279.173 569.204 279.238 570.106 279.366C569.108 280.429 568.609 281.684 568.609 283.133C568.609 284.518 569.092 285.725 570.058 286.755C571.023 287.785 572.601 288.3 574.79 288.3C576.69 288.3 578.38 287.93 579.861 287.19C581.374 286.481 582.533 285.548 583.338 284.389C584.143 283.23 584.545 282.039 584.545 280.815C584.545 279.463 584.111 278.481 583.241 277.869C582.372 277.29 580.827 277 578.605 277H572.714C570.46 277 568.754 276.565 567.595 275.696C566.468 274.795 565.904 273.475 565.904 271.736C565.904 270.577 566.226 269.563 566.87 268.694C567.546 267.792 568.4 267.213 569.43 266.955C566.629 265.764 565.228 263.349 565.228 259.711C565.228 257.168 566.114 255.172 567.884 253.723C569.655 252.274 571.877 251.55 574.549 251.55C577.929 251.55 580.376 252.258 581.889 253.675C582.791 253.514 583.467 253.224 583.918 252.805C584.368 252.355 584.594 251.856 584.594 251.308C584.594 250.793 584.449 250.407 584.159 250.149C583.869 249.86 583.531 249.715 583.145 249.715C583.145 249.006 583.402 248.395 583.918 247.88C584.465 247.332 585.109 247.059 585.849 247.059C586.654 247.059 587.314 247.3 587.829 247.783C588.344 248.266 588.602 248.91 588.602 249.715ZM579.475 258.504C579.475 256.54 579.056 255.027 578.219 253.964C577.414 252.902 576.191 252.371 574.549 252.371C571.361 252.371 569.768 254.415 569.768 258.504V260.87C569.768 262.77 570.154 264.267 570.927 265.361C571.732 266.456 572.939 267.003 574.549 267.003C576.191 267.003 577.414 266.456 578.219 265.361C579.056 264.267 579.475 262.77 579.475 260.87V258.504Z" fill="black"/>
<path opacity="0.2" d="M335.067 201V200.3L338.333 198.967L347.967 173.667H348.5L357.6 199.8L360.667 200.3V201H350.867V200.3L353.6 199.867L350.767 191.967H341.9L339.2 198.967L342.2 200.3V201H335.067ZM342.167 191.267H350.533L346.533 179.533L342.167 191.267ZM360.625 201V200.333L363.125 200V175.333L360.625 175V174.333H366.458V200L368.792 200.333V201H360.625ZM378.329 201.667L371.196 184.733L369.029 184.4V183.733H376.496V184.4L374.929 184.833L379.963 197.367L382.929 189.267L380.963 184.733L379.229 184.4V183.733H387.096V184.4L384.696 184.833L389.729 197.367L394.229 185.3L391.429 184.433V183.767H397.229V184.433L395.163 185.233L389.029 201.667H388.096L383.396 190.4L379.263 201.667H378.329ZM402.979 201.333C401.557 201.333 400.391 200.967 399.479 200.233C398.568 199.478 398.113 198.367 398.113 196.9C398.113 194.811 398.991 193.333 400.746 192.467C402.502 191.578 404.535 191.133 406.846 191.133H409.079V188.567C409.079 187.411 408.946 186.522 408.679 185.9C408.435 185.256 408.046 184.811 407.513 184.567C406.979 184.3 406.257 184.167 405.346 184.167C404.302 184.167 403.524 184.378 403.013 184.8C402.502 185.2 402.246 185.744 402.246 186.433C402.246 187.078 402.557 187.5 403.179 187.7C403.179 188.256 402.968 188.744 402.546 189.167C402.124 189.589 401.624 189.8 401.046 189.8C400.424 189.8 399.924 189.633 399.546 189.3C399.168 188.944 398.979 188.411 398.979 187.7C398.979 186.411 399.624 185.378 400.913 184.6C402.202 183.822 403.813 183.433 405.746 183.433C410.191 183.433 412.413 185.367 412.413 189.233V198.767C412.413 199.256 412.513 199.633 412.713 199.9C412.935 200.144 413.246 200.267 413.646 200.267C414.024 200.267 414.324 200.144 414.546 199.9C414.768 199.633 414.879 199.278 414.879 198.833H415.579C415.579 199.611 415.324 200.222 414.813 200.667C414.324 201.111 413.635 201.333 412.746 201.333C411.724 201.333 410.857 201.044 410.146 200.467C409.457 199.867 409.102 198.944 409.079 197.7C408.546 198.833 407.724 199.722 406.613 200.367C405.524 201.011 404.313 201.333 402.979 201.333ZM404.813 199.867C405.413 199.867 406.024 199.689 406.646 199.333C407.291 198.978 407.835 198.467 408.279 197.8C408.724 197.111 408.991 196.289 409.079 195.333V191.867H406.846C405.024 191.867 403.657 192.278 402.746 193.1C401.857 193.9 401.413 195.033 401.413 196.5C401.413 197.722 401.702 198.589 402.279 199.1C402.857 199.611 403.702 199.867 404.813 199.867ZM418.416 210.733C417.261 210.733 416.328 210.444 415.616 209.867C414.905 209.289 414.55 208.511 414.55 207.533C414.55 206.867 414.739 206.322 415.116 205.9C415.516 205.5 416.005 205.3 416.583 205.3C417.005 205.3 417.383 205.389 417.716 205.567C418.05 205.744 418.316 206.011 418.516 206.367C418.183 206.833 418.016 207.322 418.016 207.833C418.016 208.278 418.161 208.644 418.45 208.933C418.739 209.222 419.105 209.367 419.55 209.367C420.083 209.367 420.539 209.189 420.916 208.833C421.316 208.478 421.672 207.856 421.983 206.967L423.983 201.233L416.25 184.767L414.016 184.433V183.767H422.316V184.433L419.983 184.833L425.55 196.733L429.516 185.267L426.65 184.433V183.767H432.65V184.433L430.383 185.267L422.916 206.967C422.45 208.278 421.883 209.233 421.216 209.833C420.572 210.433 419.639 210.733 418.416 210.733ZM439.671 201.333C437.848 201.333 436.326 200.944 435.104 200.167C433.882 199.389 433.271 198.378 433.271 197.133C433.271 196.489 433.437 195.989 433.771 195.633C434.126 195.256 434.593 195.067 435.171 195.067C435.615 195.067 435.993 195.178 436.304 195.4C436.615 195.622 436.837 195.933 436.971 196.333C436.482 196.867 436.237 197.433 436.237 198.033C436.237 198.722 436.548 199.322 437.171 199.833C437.793 200.344 438.626 200.6 439.671 200.6C441.071 200.6 442.215 200.289 443.104 199.667C443.993 199.022 444.437 198.167 444.437 197.1C444.437 196.478 444.248 196.011 443.871 195.7C443.493 195.389 442.759 195.033 441.671 194.633L436.637 192.8C434.659 192.089 433.671 190.767 433.671 188.833C433.671 187.256 434.215 185.967 435.304 184.967C436.393 183.944 437.893 183.433 439.804 183.433C441.382 183.433 442.726 183.8 443.837 184.533C444.971 185.244 445.537 186.267 445.537 187.6C445.537 188.133 445.393 188.567 445.104 188.9C444.815 189.211 444.437 189.367 443.971 189.367C443.504 189.367 443.115 189.244 442.804 189C442.515 188.733 442.371 188.378 442.371 187.933C442.659 187.711 442.859 187.478 442.971 187.233C443.082 186.967 443.137 186.656 443.137 186.3C443.137 185.678 442.859 185.167 442.304 184.767C441.771 184.367 440.937 184.167 439.804 184.167C438.826 184.167 437.982 184.322 437.271 184.633C436.582 184.922 436.059 185.311 435.704 185.8C435.348 186.289 435.171 186.789 435.171 187.3C435.171 187.833 435.359 188.256 435.737 188.567C436.137 188.878 436.859 189.222 437.904 189.6L442.571 191.267C443.659 191.667 444.482 192.222 445.037 192.933C445.593 193.644 445.871 194.567 445.871 195.7C445.871 197.322 445.359 198.667 444.337 199.733C443.315 200.8 441.759 201.333 439.671 201.333ZM473.499 182.167C473.499 183.033 473.176 183.778 472.532 184.4C471.888 185.022 470.865 185.422 469.465 185.6C470.043 186.444 470.332 187.6 470.332 189.067C470.332 190.8 469.71 192.167 468.465 193.167C467.243 194.167 465.688 194.667 463.799 194.667C463.021 194.667 462.31 194.6 461.665 194.467C460.243 194.556 459.532 195.111 459.532 196.133C459.532 196.711 459.765 197.133 460.232 197.4C460.721 197.667 461.488 197.8 462.532 197.8H466.265C468.065 197.8 469.399 198.167 470.265 198.9C471.154 199.633 471.599 200.889 471.599 202.667C471.599 203.911 471.276 205.056 470.632 206.1C470.01 207.144 469.099 207.967 467.899 208.567C466.699 209.189 465.265 209.5 463.599 209.5C461.088 209.5 459.232 209.122 458.032 208.367C456.854 207.611 456.265 206.611 456.265 205.367C456.265 204.611 456.554 203.944 457.132 203.367C457.71 202.789 458.499 202.5 459.499 202.5C459.699 202.5 460.11 202.544 460.732 202.633C460.043 203.367 459.699 204.233 459.699 205.233C459.699 206.189 460.032 207.022 460.699 207.733C461.365 208.444 462.454 208.8 463.965 208.8C465.276 208.8 466.443 208.544 467.465 208.033C468.51 207.544 469.31 206.9 469.865 206.1C470.421 205.3 470.699 204.478 470.699 203.633C470.699 202.7 470.399 202.022 469.799 201.6C469.199 201.2 468.132 201 466.599 201H462.532C460.976 201 459.799 200.7 458.999 200.1C458.221 199.478 457.832 198.567 457.832 197.367C457.832 196.567 458.054 195.867 458.499 195.267C458.965 194.644 459.554 194.244 460.265 194.067C458.332 193.244 457.365 191.578 457.365 189.067C457.365 187.311 457.976 185.933 459.199 184.933C460.421 183.933 461.954 183.433 463.799 183.433C466.132 183.433 467.821 183.922 468.865 184.9C469.488 184.789 469.954 184.589 470.265 184.3C470.576 183.989 470.732 183.644 470.732 183.267C470.732 182.911 470.632 182.644 470.432 182.467C470.232 182.267 469.999 182.167 469.732 182.167C469.732 181.678 469.91 181.256 470.265 180.9C470.643 180.522 471.088 180.333 471.599 180.333C472.154 180.333 472.61 180.5 472.965 180.833C473.321 181.167 473.499 181.611 473.499 182.167ZM467.199 188.233C467.199 186.878 466.91 185.833 466.332 185.1C465.776 184.367 464.932 184 463.799 184C461.599 184 460.499 185.411 460.499 188.233V189.867C460.499 191.178 460.765 192.211 461.299 192.967C461.854 193.722 462.688 194.1 463.799 194.1C464.932 194.1 465.776 193.722 466.332 192.967C466.91 192.211 467.199 191.178 467.199 189.867V188.233ZM477.804 179.867C477.182 179.867 476.648 179.656 476.204 179.233C475.759 178.789 475.537 178.256 475.537 177.633C475.537 177.011 475.748 176.489 476.171 176.067C476.615 175.644 477.159 175.433 477.804 175.433C478.404 175.433 478.915 175.644 479.337 176.067C479.759 176.489 479.971 177.011 479.971 177.633C479.971 178.256 479.759 178.789 479.337 179.233C478.915 179.656 478.404 179.867 477.804 179.867ZM474.271 201V200.333L476.604 200V184.767L474.271 184.433V183.767H479.937V200L482.271 200.333V201H474.271ZM491.806 201.667L484.673 184.733L482.506 184.4V183.733H490.806V184.4L488.406 184.833L493.439 197.367L497.939 185.267L495.006 184.433V183.767H500.973V184.433L498.873 185.233L492.739 201.667H491.806ZM510.231 201.333C508.586 201.333 507.097 200.967 505.764 200.233C504.431 199.478 503.375 198.422 502.597 197.067C501.82 195.711 501.431 194.144 501.431 192.367C501.431 190.589 501.809 189.033 502.564 187.7C503.342 186.344 504.375 185.3 505.664 184.567C506.975 183.811 508.431 183.433 510.031 183.433C511.431 183.433 512.686 183.744 513.797 184.367C514.909 184.989 515.775 185.856 516.397 186.967C517.02 188.056 517.342 189.311 517.364 190.733H505.097V194.033C505.097 195.989 505.531 197.578 506.397 198.8C507.286 200 508.564 200.6 510.231 200.6C511.764 200.6 513.12 200.167 514.297 199.3C515.475 198.433 516.197 197.311 516.464 195.933H517.231C516.92 197.578 516.131 198.889 514.864 199.867C513.597 200.844 512.053 201.333 510.231 201.333ZM513.697 189.9C513.697 187.967 513.397 186.533 512.797 185.6C512.197 184.644 511.264 184.167 509.997 184.167C508.509 184.167 507.353 184.689 506.531 185.733C505.709 186.778 505.242 188.167 505.131 189.9H513.697ZM528.491 201V200.333L530.824 200V175.333L528.491 175V174.333H534.158V200L536.491 200.333V201H528.491ZM539.982 201V200.333L542.315 200V175.333L539.982 175V174.333H545.648V200L547.982 200.333V201H539.982ZM561.239 201.667C559.306 201.667 557.617 201.144 556.173 200.1C554.728 199.056 553.606 197.489 552.806 195.4C552.006 193.289 551.606 190.711 551.606 187.667C551.606 184.622 552.006 182.056 552.806 179.967C553.606 177.856 554.728 176.278 556.173 175.233C557.617 174.189 559.306 173.667 561.239 173.667C563.173 173.667 564.862 174.189 566.306 175.233C567.75 176.278 568.873 177.856 569.673 179.967C570.473 182.056 570.873 184.622 570.873 187.667C570.873 190.711 570.473 193.289 569.673 195.4C568.873 197.489 567.75 199.056 566.306 200.1C564.862 201.144 563.173 201.667 561.239 201.667ZM561.239 200.9C562.906 200.9 564.217 200.089 565.173 198.467C566.128 196.844 566.606 194.311 566.606 190.867V184.433C566.606 181.011 566.128 178.489 565.173 176.867C564.217 175.244 562.906 174.433 561.239 174.433C559.573 174.433 558.262 175.244 557.306 176.867C556.35 178.489 555.873 181.011 555.873 184.433V190.867C555.873 194.289 556.35 196.822 557.306 198.467C558.262 200.089 559.573 200.9 561.239 200.9ZM579.382 188.667C577.805 188.667 576.527 188.044 575.549 186.8C574.593 185.533 574.116 183.733 574.116 181.4C574.116 179.067 574.593 177.278 575.549 176.033C576.527 174.789 577.805 174.167 579.382 174.167C580.982 174.167 582.26 174.789 583.216 176.033C584.193 177.278 584.682 179.067 584.682 181.4C584.682 183.733 584.193 185.533 583.216 186.8C582.26 188.044 580.982 188.667 579.382 188.667ZM579.149 201L592.482 174.333H594.182L580.882 201H579.149ZM579.382 187.933C580.271 187.933 580.938 187.556 581.382 186.8C581.849 186.044 582.082 184.811 582.082 183.1V179.7C582.082 177.989 581.849 176.756 581.382 176C580.938 175.244 580.271 174.867 579.382 174.867C578.516 174.867 577.849 175.244 577.382 176C576.916 176.756 576.682 177.989 576.682 179.7V183.1C576.682 184.811 576.916 186.044 577.382 186.8C577.849 187.556 578.516 187.933 579.382 187.933ZM593.949 201.167C592.349 201.167 591.06 200.544 590.082 199.3C589.127 198.033 588.649 196.233 588.649 193.9C588.649 191.567 589.127 189.778 590.082 188.533C591.06 187.289 592.349 186.667 593.949 186.667C595.527 186.667 596.793 187.289 597.749 188.533C598.727 189.778 599.216 191.567 599.216 193.9C599.216 196.233 598.727 198.033 597.749 199.3C596.793 200.544 595.527 201.167 593.949 201.167ZM593.949 200.433C594.816 200.433 595.482 200.056 595.949 199.3C596.416 198.544 596.649 197.311 596.649 195.6V192.2C596.649 190.489 596.416 189.256 595.949 188.5C595.482 187.744 594.816 187.367 593.949 187.367C593.06 187.367 592.382 187.744 591.916 188.5C591.471 189.256 591.249 190.489 591.249 192.2V195.6C591.249 197.311 591.471 198.544 591.916 199.3C592.382 200.056 593.06 200.433 593.949 200.433Z" fill="black"/>
<path opacity="0.2" d="M154.154 294V293.394L156.81 292.961V271.95L154.154 271.546V270.911H162.639V271.546L159.984 271.95V281.417H170.951V271.95L168.267 271.546V270.911H176.81V271.546L174.126 271.95V292.961L176.81 293.394V294H168.267V293.394L170.951 292.961V282.138H159.984V292.961L162.639 293.394V294H154.154ZM183.513 294.289C182.281 294.289 181.271 293.971 180.482 293.336C179.693 292.682 179.299 291.72 179.299 290.45C179.299 288.642 180.059 287.362 181.579 286.612C183.099 285.842 184.859 285.457 186.86 285.457H188.794V283.235C188.794 282.234 188.679 281.465 188.448 280.926C188.236 280.368 187.899 279.983 187.438 279.772C186.976 279.541 186.351 279.425 185.562 279.425C184.657 279.425 183.984 279.608 183.541 279.974C183.099 280.32 182.878 280.791 182.878 281.388C182.878 281.946 183.147 282.311 183.686 282.485C183.686 282.966 183.503 283.389 183.137 283.754C182.772 284.12 182.339 284.303 181.839 284.303C181.3 284.303 180.867 284.158 180.54 283.87C180.213 283.562 180.049 283.1 180.049 282.485C180.049 281.369 180.607 280.474 181.723 279.801C182.839 279.127 184.234 278.79 185.908 278.79C189.756 278.79 191.68 280.464 191.68 283.812V292.066C191.68 292.49 191.767 292.817 191.94 293.048C192.132 293.259 192.402 293.365 192.748 293.365C193.075 293.365 193.335 293.259 193.527 293.048C193.72 292.817 193.816 292.509 193.816 292.124H194.422C194.422 292.797 194.201 293.327 193.758 293.711C193.335 294.096 192.738 294.289 191.969 294.289C191.084 294.289 190.333 294.038 189.718 293.538C189.121 293.019 188.813 292.22 188.794 291.143C188.332 292.124 187.62 292.894 186.658 293.452C185.716 294.01 184.667 294.289 183.513 294.289ZM185.1 293.019C185.619 293.019 186.149 292.865 186.687 292.557C187.245 292.249 187.717 291.807 188.101 291.229C188.486 290.633 188.717 289.921 188.794 289.094V286.092H186.86C185.283 286.092 184.099 286.448 183.311 287.16C182.541 287.853 182.156 288.834 182.156 290.104C182.156 291.162 182.406 291.912 182.907 292.355C183.407 292.797 184.138 293.019 185.1 293.019ZM195.126 293.423L197.146 293.134V279.916L195.126 279.627V279.05H200.032V282.167C200.744 281.128 201.581 280.31 202.543 279.714C203.505 279.098 204.544 278.79 205.66 278.79C207.045 278.79 208.132 279.137 208.921 279.829C209.729 280.522 210.133 281.551 210.133 282.917V293.134L212.154 293.423V294H205.516V293.423L207.247 293.134V282.975C207.247 281.975 207.045 281.205 206.641 280.666C206.237 280.108 205.612 279.829 204.765 279.829C203.88 279.829 203.024 280.156 202.197 280.811C201.388 281.446 200.667 282.234 200.032 283.177V293.134L201.764 293.423V294H195.126V293.423ZM228.251 277.694C228.251 278.444 227.972 279.089 227.414 279.627C226.856 280.166 225.971 280.512 224.759 280.666C225.259 281.397 225.509 282.398 225.509 283.668C225.509 285.169 224.971 286.352 223.893 287.218C222.835 288.084 221.488 288.516 219.853 288.516C219.179 288.516 218.563 288.459 218.005 288.343C216.774 288.42 216.158 288.901 216.158 289.786C216.158 290.287 216.36 290.652 216.764 290.883C217.188 291.114 217.852 291.229 218.756 291.229H221.988C223.547 291.229 224.701 291.547 225.452 292.182C226.221 292.817 226.606 293.904 226.606 295.443C226.606 296.521 226.327 297.511 225.769 298.416C225.23 299.32 224.441 300.032 223.402 300.551C222.363 301.09 221.122 301.359 219.679 301.359C217.505 301.359 215.899 301.032 214.86 300.378C213.84 299.724 213.33 298.858 213.33 297.781C213.33 297.127 213.58 296.549 214.08 296.049C214.581 295.549 215.264 295.299 216.13 295.299C216.303 295.299 216.659 295.337 217.197 295.414C216.601 296.049 216.303 296.799 216.303 297.665C216.303 298.493 216.591 299.214 217.169 299.83C217.746 300.446 218.689 300.753 219.997 300.753C221.132 300.753 222.142 300.532 223.027 300.09C223.932 299.666 224.624 299.108 225.105 298.416C225.586 297.723 225.827 297.011 225.827 296.28C225.827 295.472 225.567 294.885 225.048 294.519C224.528 294.173 223.604 294 222.277 294H218.756C217.409 294 216.389 293.74 215.697 293.221C215.023 292.682 214.686 291.893 214.686 290.854C214.686 290.162 214.879 289.555 215.264 289.036C215.668 288.497 216.178 288.151 216.793 287.997C215.119 287.285 214.282 285.842 214.282 283.668C214.282 282.148 214.812 280.955 215.87 280.089C216.928 279.223 218.256 278.79 219.853 278.79C221.873 278.79 223.335 279.214 224.239 280.06C224.778 279.964 225.182 279.791 225.452 279.541C225.721 279.271 225.856 278.973 225.856 278.646C225.856 278.338 225.769 278.107 225.596 277.953C225.423 277.78 225.221 277.694 224.99 277.694C224.99 277.27 225.144 276.905 225.452 276.597C225.779 276.27 226.163 276.106 226.606 276.106C227.087 276.106 227.481 276.251 227.789 276.539C228.097 276.828 228.251 277.213 228.251 277.694ZM222.796 282.946C222.796 281.773 222.546 280.868 222.046 280.233C221.565 279.598 220.834 279.281 219.853 279.281C217.948 279.281 216.995 280.503 216.995 282.946V284.361C216.995 285.496 217.226 286.39 217.688 287.045C218.169 287.699 218.891 288.026 219.853 288.026C220.834 288.026 221.565 287.699 222.046 287.045C222.546 286.39 222.796 285.496 222.796 284.361V282.946ZM231.979 275.702C231.44 275.702 230.978 275.519 230.593 275.154C230.208 274.769 230.016 274.307 230.016 273.769C230.016 273.23 230.199 272.778 230.564 272.412C230.949 272.047 231.421 271.864 231.979 271.864C232.498 271.864 232.941 272.047 233.306 272.412C233.672 272.778 233.855 273.23 233.855 273.769C233.855 274.307 233.672 274.769 233.306 275.154C232.941 275.519 232.498 275.702 231.979 275.702ZM228.919 294V293.423L230.94 293.134V279.945L228.919 279.656V279.079H233.826V293.134L235.846 293.423V294H228.919ZM237.233 293.423L239.253 293.134V279.916L237.233 279.627V279.05H242.139V282.167C242.851 281.128 243.688 280.31 244.65 279.714C245.612 279.098 246.651 278.79 247.767 278.79C249.153 278.79 250.24 279.137 251.029 279.829C251.837 280.522 252.241 281.551 252.241 282.917V293.134L254.261 293.423V294H247.623V293.423L249.355 293.134V282.975C249.355 281.975 249.153 281.205 248.749 280.666C248.344 280.108 247.719 279.829 246.873 279.829C245.987 279.829 245.131 280.156 244.304 280.811C243.496 281.446 242.774 282.234 242.139 283.177V293.134L243.871 293.423V294H237.233V293.423ZM270.358 277.694C270.358 278.444 270.079 279.089 269.521 279.627C268.964 280.166 268.078 280.512 266.866 280.666C267.367 281.397 267.617 282.398 267.617 283.668C267.617 285.169 267.078 286.352 266 287.218C264.942 288.084 263.595 288.516 261.96 288.516C261.287 288.516 260.671 288.459 260.113 288.343C258.881 288.42 258.266 288.901 258.266 289.786C258.266 290.287 258.468 290.652 258.872 290.883C259.295 291.114 259.959 291.229 260.863 291.229H264.096C265.654 291.229 266.809 291.547 267.559 292.182C268.329 292.817 268.713 293.904 268.713 295.443C268.713 296.521 268.434 297.511 267.876 298.416C267.338 299.32 266.549 300.032 265.51 300.551C264.471 301.09 263.23 301.359 261.787 301.359C259.613 301.359 258.006 301.032 256.967 300.378C255.947 299.724 255.437 298.858 255.437 297.781C255.437 297.127 255.688 296.549 256.188 296.049C256.688 295.549 257.371 295.299 258.237 295.299C258.41 295.299 258.766 295.337 259.305 295.414C258.708 296.049 258.41 296.799 258.41 297.665C258.41 298.493 258.699 299.214 259.276 299.83C259.853 300.446 260.796 300.753 262.104 300.753C263.239 300.753 264.25 300.532 265.135 300.09C266.039 299.666 266.732 299.108 267.213 298.416C267.694 297.723 267.934 297.011 267.934 296.28C267.934 295.472 267.674 294.885 267.155 294.519C266.635 294.173 265.712 294 264.384 294H260.863C259.516 294 258.497 293.74 257.804 293.221C257.131 292.682 256.794 291.893 256.794 290.854C256.794 290.162 256.986 289.555 257.371 289.036C257.775 288.497 258.285 288.151 258.901 287.997C257.227 287.285 256.39 285.842 256.39 283.668C256.39 282.148 256.919 280.955 257.977 280.089C259.035 279.223 260.363 278.79 261.96 278.79C263.98 278.79 265.442 279.214 266.347 280.06C266.886 279.964 267.29 279.791 267.559 279.541C267.828 279.271 267.963 278.973 267.963 278.646C267.963 278.338 267.876 278.107 267.703 277.953C267.53 277.78 267.328 277.694 267.097 277.694C267.097 277.27 267.251 276.905 267.559 276.597C267.886 276.27 268.271 276.106 268.713 276.106C269.194 276.106 269.589 276.251 269.897 276.539C270.205 276.828 270.358 277.213 270.358 277.694ZM264.904 282.946C264.904 281.773 264.654 280.868 264.153 280.233C263.672 279.598 262.941 279.281 261.96 279.281C260.055 279.281 259.103 280.503 259.103 282.946V284.361C259.103 285.496 259.334 286.39 259.795 287.045C260.276 287.699 260.998 288.026 261.96 288.026C262.941 288.026 263.672 287.699 264.153 287.045C264.654 286.39 264.904 285.496 264.904 284.361V282.946ZM285.84 294.289C284.454 294.289 283.194 293.971 282.059 293.336C280.924 292.682 280.02 291.768 279.346 290.594C278.692 289.402 278.365 288.045 278.365 286.525C278.365 285.005 278.692 283.658 279.346 282.485C280.02 281.311 280.924 280.407 282.059 279.772C283.194 279.117 284.454 278.79 285.84 278.79C287.225 278.79 288.485 279.117 289.621 279.772C290.756 280.407 291.65 281.311 292.305 282.485C292.978 283.658 293.315 285.005 293.315 286.525C293.315 288.045 292.978 289.402 292.305 290.594C291.65 291.768 290.756 292.682 289.621 293.336C288.485 293.971 287.225 294.289 285.84 294.289ZM285.84 293.654C287.264 293.654 288.331 293.134 289.043 292.095C289.774 291.056 290.14 289.681 290.14 287.968V285.082C290.14 283.37 289.774 282.004 289.043 280.984C288.331 279.945 287.264 279.425 285.84 279.425C284.416 279.425 283.339 279.945 282.607 280.984C281.895 282.004 281.54 283.37 281.54 285.082V287.968C281.54 289.681 281.895 291.056 282.607 292.095C283.339 293.134 284.416 293.654 285.84 293.654ZM301.526 294.289C300.141 294.289 299.044 293.942 298.236 293.25C297.447 292.557 297.053 291.528 297.053 290.162V279.916L295.032 279.627V279.05H299.939V290.104C299.939 291.085 300.141 291.855 300.545 292.413C300.949 292.971 301.574 293.25 302.421 293.25C303.306 293.25 304.152 292.961 304.96 292.384C305.788 291.787 306.519 291.056 307.154 290.19V279.916L305.134 279.627V279.05H310.04V293.134L312.06 293.423V294H307.154V291.229C306.461 292.191 305.624 292.942 304.643 293.481C303.681 294.019 302.642 294.289 301.526 294.289ZM319.53 294.289C318.261 294.289 317.241 293.971 316.471 293.336C315.721 292.701 315.346 291.691 315.346 290.306V279.916L313.296 279.627V279.05H315.346V276.655L318.232 275.933V279.05H321.984V279.627L318.232 279.916V290.248C318.232 292.288 318.963 293.307 320.425 293.307C320.733 293.307 321.022 293.259 321.291 293.163C321.58 293.067 321.801 292.971 321.955 292.874C322.128 292.778 322.234 292.711 322.272 292.672L322.647 293.134C321.782 293.904 320.743 294.289 319.53 294.289Z" fill="black"/>
<path opacity="0.2" d="M141.964 376V374.969L146.481 374.232V338.486L141.964 337.799V336.719H156.4V337.799L151.883 338.486V374.232L156.4 374.969V376H141.964ZM159.691 375.018L163.128 374.527V352.038L159.691 351.547V350.565H168.038V355.868C169.249 354.101 170.673 352.709 172.31 351.695C173.947 350.647 175.715 350.123 177.613 350.123C179.97 350.123 181.82 350.713 183.162 351.891C184.536 353.069 185.224 354.821 185.224 357.145V374.527L188.661 375.018V376H177.368V375.018L180.314 374.527V357.243C180.314 355.541 179.97 354.232 179.283 353.315C178.595 352.366 177.531 351.891 176.091 351.891C174.585 351.891 173.128 352.448 171.721 353.56C170.346 354.641 169.119 355.983 168.038 357.587V374.527L170.984 375.018V376H159.691V375.018ZM190.515 376V375.018L194.198 374.527V338.192L190.515 337.701V336.719H199.108V374.527L202.545 375.018V376H190.515ZM210.163 344.869C209.246 344.869 208.46 344.558 207.806 343.937C207.151 343.282 206.824 342.496 206.824 341.58C206.824 340.663 207.135 339.894 207.757 339.272C208.411 338.65 209.213 338.339 210.163 338.339C211.046 338.339 211.799 338.65 212.421 339.272C213.043 339.894 213.354 340.663 213.354 341.58C213.354 342.496 213.043 343.282 212.421 343.937C211.799 344.558 211.046 344.869 210.163 344.869ZM204.958 376V375.018L208.395 374.527V352.087L204.958 351.596V350.614H213.305V374.527L216.742 375.018V376H204.958ZM219.102 375.018L222.539 374.527V352.038L219.102 351.547V350.565H227.45V355.868C228.661 354.101 230.085 352.709 231.721 351.695C233.358 350.647 235.126 350.123 237.024 350.123C239.381 350.123 241.231 350.713 242.573 351.891C243.948 353.069 244.635 354.821 244.635 357.145V374.527L248.072 375.018V376H236.779V375.018L239.725 374.527V357.243C239.725 355.541 239.381 354.232 238.694 353.315C238.006 352.366 236.943 351.891 235.502 351.891C233.996 351.891 232.54 352.448 231.132 353.56C229.757 354.641 228.53 355.983 227.45 357.587V374.527L230.396 375.018V376H219.102V375.018ZM264.019 376.491C261.597 376.491 259.403 375.951 257.439 374.871C255.475 373.758 253.92 372.203 252.775 370.206C251.629 368.209 251.056 365.901 251.056 363.283C251.056 360.664 251.612 358.372 252.725 356.408C253.871 354.412 255.393 352.873 257.292 351.793C259.223 350.68 261.367 350.123 263.724 350.123C265.787 350.123 267.636 350.582 269.273 351.498C270.909 352.415 272.186 353.691 273.103 355.328C274.019 356.932 274.494 358.782 274.527 360.877H256.457V365.738C256.457 368.618 257.096 370.959 258.372 372.759C259.682 374.527 261.564 375.411 264.019 375.411C266.278 375.411 268.274 374.772 270.009 373.496C271.744 372.219 272.808 370.566 273.201 368.537H274.33C273.872 370.959 272.71 372.89 270.844 374.331C268.978 375.771 266.703 376.491 264.019 376.491ZM269.125 359.649C269.125 356.801 268.684 354.69 267.8 353.315C266.916 351.907 265.541 351.204 263.675 351.204C261.482 351.204 259.78 351.973 258.569 353.511C257.357 355.05 256.67 357.096 256.506 359.649H269.125ZM278.138 376L293.409 341.629H295.913L280.691 376H278.138ZM300.058 376V374.969L304.576 374.232V338.486L300.058 337.799V336.719H314.494V337.799L309.977 338.486V374.232L314.494 374.969V376H300.058ZM331.288 376.491C328.931 376.491 326.787 375.951 324.856 374.871C322.925 373.758 321.386 372.203 320.24 370.206C319.127 368.176 318.571 365.869 318.571 363.283C318.571 360.566 319.16 358.209 320.339 356.212C321.55 354.215 323.121 352.709 325.052 351.695C326.984 350.647 329.062 350.123 331.288 350.123C333.154 350.123 334.856 350.451 336.395 351.105C337.933 351.727 339.145 352.611 340.028 353.757C340.945 354.903 341.403 356.196 341.403 357.636C341.403 358.716 341.125 359.551 340.569 360.14C340.012 360.697 339.276 360.975 338.359 360.975C337.475 360.975 336.739 360.68 336.149 360.091C335.56 359.502 335.266 358.765 335.266 357.881C335.757 357.554 336.1 357.194 336.297 356.801C336.493 356.408 336.591 355.917 336.591 355.328C336.591 354.117 336.1 353.135 335.118 352.382C334.169 351.596 332.892 351.204 331.288 351.204C328.931 351.204 327.115 352.055 325.838 353.757C324.594 355.426 323.972 357.783 323.972 360.828V365.738C323.972 368.651 324.578 370.992 325.789 372.759C327.033 374.527 328.866 375.411 331.288 375.411C333.514 375.411 335.446 374.789 337.082 373.545C338.752 372.268 339.783 370.599 340.176 368.537H341.305C340.847 370.959 339.701 372.89 337.868 374.331C336.068 375.771 333.874 376.491 331.288 376.491ZM358.386 376.491C355.964 376.491 353.771 375.951 351.807 374.871C349.843 373.758 348.288 372.203 347.142 370.206C345.996 368.209 345.423 365.901 345.423 363.283C345.423 360.664 345.98 358.372 347.093 356.408C348.239 354.412 349.761 352.873 351.659 351.793C353.591 350.68 355.735 350.123 358.092 350.123C360.154 350.123 362.004 350.582 363.64 351.498C365.277 352.415 366.554 353.691 367.47 355.328C368.387 356.932 368.861 358.782 368.894 360.877H350.825V365.738C350.825 368.618 351.463 370.959 352.74 372.759C354.049 374.527 355.931 375.411 358.386 375.411C360.645 375.411 362.642 374.772 364.377 373.496C366.112 372.219 367.176 370.566 367.568 368.537H368.698C368.239 370.959 367.077 372.89 365.212 374.331C363.346 375.771 361.071 376.491 358.386 376.491ZM363.493 359.649C363.493 356.801 363.051 354.69 362.167 353.315C361.283 351.907 359.909 351.204 358.043 351.204C355.849 351.204 354.147 351.973 352.936 353.511C351.725 355.05 351.037 357.096 350.874 359.649H363.493ZM394.368 376.491C391.684 376.491 389.442 375.918 387.641 374.772C385.841 373.627 384.941 372.137 384.941 370.304C384.941 369.355 385.186 368.618 385.677 368.095C386.201 367.538 386.889 367.26 387.74 367.26C388.394 367.26 388.951 367.424 389.409 367.751C389.867 368.078 390.195 368.537 390.391 369.126C389.671 369.911 389.311 370.746 389.311 371.63C389.311 372.645 389.769 373.529 390.686 374.281C391.602 375.034 392.83 375.411 394.368 375.411C396.431 375.411 398.117 374.952 399.426 374.036C400.735 373.087 401.39 371.826 401.39 370.255C401.39 369.339 401.112 368.651 400.555 368.193C399.999 367.735 398.919 367.211 397.315 366.622L389.9 363.921C386.987 362.873 385.53 360.926 385.53 358.078C385.53 355.754 386.332 353.855 387.936 352.382C389.54 350.876 391.75 350.123 394.565 350.123C396.889 350.123 398.869 350.663 400.506 351.744C402.176 352.791 403.01 354.297 403.01 356.261C403.01 357.047 402.798 357.685 402.372 358.176C401.946 358.634 401.39 358.863 400.703 358.863C400.015 358.863 399.442 358.683 398.984 358.323C398.558 357.931 398.346 357.407 398.346 356.752C398.771 356.425 399.066 356.081 399.229 355.721C399.393 355.328 399.475 354.87 399.475 354.346C399.475 353.43 399.066 352.677 398.247 352.087C397.462 351.498 396.234 351.204 394.565 351.204C393.124 351.204 391.881 351.433 390.833 351.891C389.818 352.317 389.049 352.889 388.525 353.61C388.002 354.33 387.74 355.066 387.74 355.819C387.74 356.605 388.018 357.227 388.574 357.685C389.164 358.143 390.227 358.651 391.766 359.207L398.64 361.662C400.244 362.251 401.455 363.07 402.274 364.117C403.092 365.165 403.501 366.523 403.501 368.193C403.501 370.582 402.748 372.563 401.243 374.134C399.737 375.705 397.445 376.491 394.368 376.491ZM406.918 376V375.018L410.355 374.527V338.192L406.918 337.701V336.719H415.265V361.908L426.51 352.677L422.238 351.547V350.565H431.469V351.547L428.327 352.677L420.176 359.354L431.665 374.576L434.317 375.018V376H422.827V375.018L425.773 374.527L416.542 362.35L415.265 363.43V374.527L418.212 375.018V376H406.918ZM442.168 376.491C440.073 376.491 438.355 375.951 437.013 374.871C435.67 373.758 434.999 372.121 434.999 369.96C434.999 366.883 436.292 364.707 438.878 363.43C441.464 362.121 444.46 361.466 447.864 361.466H451.154V357.685C451.154 355.983 450.957 354.673 450.565 353.757C450.205 352.808 449.632 352.153 448.846 351.793C448.06 351.4 446.997 351.204 445.654 351.204C444.116 351.204 442.97 351.515 442.217 352.137C441.464 352.726 441.088 353.528 441.088 354.543C441.088 355.492 441.546 356.114 442.463 356.408C442.463 357.227 442.152 357.947 441.53 358.569C440.908 359.191 440.171 359.502 439.32 359.502C438.404 359.502 437.667 359.256 437.111 358.765C436.554 358.242 436.276 357.456 436.276 356.408C436.276 354.51 437.225 352.988 439.124 351.842C441.023 350.696 443.396 350.123 446.244 350.123C452.791 350.123 456.064 352.971 456.064 358.667V372.71C456.064 373.43 456.211 373.987 456.506 374.38C456.833 374.74 457.292 374.92 457.881 374.92C458.437 374.92 458.879 374.74 459.207 374.38C459.534 373.987 459.698 373.463 459.698 372.808H460.729C460.729 373.954 460.352 374.854 459.599 375.509C458.879 376.164 457.864 376.491 456.555 376.491C455.049 376.491 453.773 376.065 452.725 375.214C451.71 374.331 451.187 372.972 451.154 371.139C450.368 372.808 449.157 374.118 447.52 375.067C445.916 376.016 444.132 376.491 442.168 376.491ZM444.869 374.331C445.753 374.331 446.653 374.069 447.569 373.545C448.519 373.021 449.321 372.268 449.975 371.286C450.63 370.271 451.023 369.06 451.154 367.653V362.546H447.864C445.18 362.546 443.167 363.152 441.825 364.363C440.515 365.541 439.86 367.211 439.86 369.371C439.86 371.172 440.286 372.448 441.137 373.201C441.988 373.954 443.232 374.331 444.869 374.331ZM472.09 376.491C469.93 376.491 468.195 375.951 466.885 374.871C465.609 373.79 464.97 372.072 464.97 369.715V352.038L461.484 351.547V350.565H464.97V346.49L469.88 345.262V350.565H476.264V351.547L469.88 352.038V369.617C469.88 373.087 471.124 374.822 473.612 374.822C474.136 374.822 474.627 374.74 475.085 374.576C475.576 374.412 475.953 374.249 476.215 374.085C476.509 373.921 476.689 373.807 476.755 373.741L477.393 374.527C475.92 375.836 474.152 376.491 472.09 376.491ZM484.202 344.869C483.286 344.869 482.5 344.558 481.846 343.937C481.191 343.282 480.864 342.496 480.864 341.58C480.864 340.663 481.174 339.894 481.796 339.272C482.451 338.65 483.253 338.339 484.202 338.339C485.086 338.339 485.839 338.65 486.461 339.272C487.083 339.894 487.394 340.663 487.394 341.58C487.394 342.496 487.083 343.282 486.461 343.937C485.839 344.558 485.086 344.869 484.202 344.869ZM478.998 376V375.018L482.435 374.527V352.087L478.998 351.596V350.614H487.345V374.527L490.782 375.018V376H478.998ZM493.142 375.018L496.579 374.527V352.038L493.142 351.547V350.565H501.489V355.868C502.701 354.101 504.124 352.709 505.761 351.695C507.398 350.647 509.166 350.123 511.064 350.123C513.421 350.123 515.271 350.713 516.613 351.891C517.988 353.069 518.675 354.821 518.675 357.145V374.527L522.112 375.018V376H510.819V375.018L513.765 374.527V357.243C513.765 355.541 513.421 354.232 512.734 353.315C512.046 352.366 510.982 351.891 509.542 351.891C508.036 351.891 506.58 352.448 505.172 353.56C503.797 354.641 502.57 355.983 501.489 357.587V374.527L504.435 375.018V376H493.142V375.018ZM549.499 348.257C549.499 349.534 549.025 350.631 548.075 351.547C547.126 352.464 545.62 353.053 543.558 353.315C544.409 354.559 544.835 356.261 544.835 358.422C544.835 360.975 543.918 362.988 542.085 364.461C540.285 365.934 537.993 366.671 535.211 366.671C534.065 366.671 533.018 366.572 532.068 366.376C529.973 366.507 528.926 367.325 528.926 368.831C528.926 369.682 529.269 370.304 529.957 370.697C530.677 371.09 531.806 371.286 533.345 371.286H538.844C541.496 371.286 543.46 371.826 544.737 372.907C546.046 373.987 546.701 375.836 546.701 378.455C546.701 380.288 546.226 381.974 545.277 383.513C544.36 385.051 543.018 386.262 541.25 387.146C539.483 388.063 537.371 388.521 534.916 388.521C531.217 388.521 528.484 387.964 526.716 386.851C524.981 385.739 524.114 384.265 524.114 382.432C524.114 381.319 524.539 380.337 525.39 379.486C526.241 378.635 527.404 378.21 528.877 378.21C529.171 378.21 529.777 378.275 530.693 378.406C529.679 379.486 529.171 380.763 529.171 382.236C529.171 383.644 529.662 384.871 530.644 385.919C531.626 386.966 533.23 387.49 535.456 387.49C537.388 387.49 539.106 387.113 540.612 386.36C542.15 385.64 543.329 384.691 544.147 383.513C544.966 382.334 545.375 381.123 545.375 379.879C545.375 378.504 544.933 377.506 544.049 376.884C543.165 376.295 541.594 376 539.335 376H533.345C531.053 376 529.319 375.558 528.14 374.674C526.994 373.758 526.422 372.416 526.422 370.648C526.422 369.469 526.749 368.438 527.404 367.554C528.091 366.638 528.958 366.049 530.006 365.787C527.158 364.576 525.734 362.121 525.734 358.422C525.734 355.836 526.634 353.806 528.435 352.333C530.235 350.86 532.494 350.123 535.211 350.123C538.648 350.123 541.136 350.844 542.674 352.284C543.591 352.12 544.278 351.826 544.737 351.4C545.195 350.942 545.424 350.434 545.424 349.878C545.424 349.354 545.277 348.961 544.982 348.699C544.687 348.405 544.344 348.257 543.951 348.257C543.951 347.537 544.213 346.915 544.737 346.392C545.293 345.835 545.948 345.557 546.701 345.557C547.519 345.557 548.19 345.802 548.714 346.293C549.238 346.784 549.499 347.439 549.499 348.257ZM540.219 357.194C540.219 355.197 539.794 353.659 538.942 352.578C538.124 351.498 536.88 350.958 535.211 350.958C531.97 350.958 530.35 353.037 530.35 357.194V359.6C530.35 361.531 530.742 363.053 531.528 364.166C532.346 365.279 533.574 365.836 535.211 365.836C536.88 365.836 538.124 365.279 538.942 364.166C539.794 363.053 540.219 361.531 540.219 359.6V357.194Z" fill="black"/>
</svg>
