<svg xmlns="http://www.w3.org/2000/svg" version="1.1" viewBox="0 0 2.8125 2.8125"><linearGradient id="a" x1="-37.106" x2="-26.555" y1="-72.705" y2="-84.047" gradientTransform="matrix(0 -.23155 -.21543 0 -15.4738 -5.9627)" gradientUnits="userSpaceOnUse"><stop offset="0" stop-color="#fd5"/><stop offset=".5" stop-color="#ff543e"/><stop offset="1" stop-color="#c837ab"/></linearGradient><path fill="url(#a)" stroke-width=".1168" d="M.1837.1953C-.0366.424.0085.6673.0085 1.4058c0 .6134-.107 1.2282.453 1.373.175.045 1.7245.045 1.8992-.0002.2332-.0602.4229-.2494.4488-.5792.0036-.046.0036-1.5403 0-1.5873-.0277-.3513-.244-.5538-.5289-.5948-.0653-.0095-.0783-.0122-.4134-.0128C.6787.005.4182-.048.1837.1953z"/><path fill="#fff" stroke-width=".1168" d="M1.4063.3708C.982.3708.5793.333.4253.7279c-.0635.1631-.0542.375-.0542.6782 0 .2661-.0086.5163.0543.678.1535.3952.5596.3573.9806.3573.4063 0 .825.0423.9808-.3572.0637-.1648.0543-.3734.0543-.6781 0-.4045.0224-.6656-.1738-.8616-.1986-.1986-.4672-.1737-.8615-.1737zm-.0928.1865c.8849-.0014.9975-.0997.9353 1.2668-.022.4833-.39.4303-.8424.4303-.8248 0-.8485-.0236-.8485-.8488 0-.8347.0654-.8478.7556-.8485zm.6454.1719a.1242.1242 0 100 .2484.1242.1242 0 000-.2484zm-.5526.1452a.5317.5317 0 000 1.0633.5315.5315 0 00.5314-.5316.5316.5316 0 00-.5314-.5317zm0 .1866c.4562 0 .4568.6902 0 .6902-.4561 0-.4568-.6902 0-.6902z"/></svg>
