<svg width="320" height="140" viewBox="0 0 320 140" fill="none" xmlns="http://www.w3.org/2000/svg">
<path d="M36.4951 121.748C36.2427 120.894 36.0163 119.698 36.0089 119.18L36 118.553L36.4473 117.237C36.6932 116.514 37.0147 115.612 37.1615 115.233C37.3084 114.854 37.4741 114.402 37.5297 114.23C37.5853 114.058 37.6876 113.776 37.7572 113.604C37.8267 113.431 37.9815 113.037 38.101 112.727C38.2206 112.416 38.4055 111.965 38.5119 111.724C38.6183 111.483 38.7819 111.103 38.8754 110.88C39.2134 110.075 39.4022 109.642 39.7913 108.78C40.4687 107.279 40.937 106.281 41.056 106.086C41.1189 105.982 41.205 105.813 41.2473 105.71C41.5453 104.982 43.3494 101.564 43.9256 100.635C44.0539 100.428 44.2815 100.034 44.4314 99.7581C44.5813 99.4824 44.8671 99.0144 45.0664 98.7181C45.2658 98.4217 45.429 98.1516 45.429 98.1178C45.429 98.084 45.5344 97.9036 45.6632 97.7169C45.792 97.5302 46.3299 96.729 46.8585 95.9364C48.1888 93.9421 49.5355 92.0692 50.322 91.1198C53.354 87.4598 55.3879 85.3046 58.2587 82.7099C58.9404 82.0937 59.5889 81.5014 59.6997 81.3935C60.1908 80.9154 63.5303 78.2111 65.4426 76.7431L66.2063 76.1567L66.1 75.7407C66.0416 75.5118 65.7913 74.7608 65.5439 74.0716C64.2868 70.5695 63.7278 68.4048 63.295 65.3633C62.5881 60.3954 62.7436 54.1003 63.6263 51.9562C63.6972 51.7839 63.8004 51.4738 63.8557 51.2671C63.9679 50.8473 64.2982 49.8965 64.465 49.5129C64.5249 49.3751 64.6998 48.9522 64.8535 48.5731C65.1562 47.8269 65.7713 46.5326 66.0147 46.1298C66.0979 45.992 66.3211 45.6367 66.5107 45.3404C66.7002 45.044 66.8553 44.7729 66.8553 44.7378C66.8553 44.7027 67.2043 44.2122 67.631 43.6477C70.0313 40.4719 72.7699 38.6638 76.5759 37.7419L77.463 37.5271L79.8964 37.5854L82.3298 37.6438L83.0816 37.8334C86.0363 38.5786 88.3599 39.5227 90.6622 40.9134C90.9034 41.0591 91.1853 41.2163 91.2887 41.2628C91.3921 41.3093 91.6821 41.5072 91.9332 41.7025C92.1843 41.8978 92.4273 42.0575 92.4731 42.0575C93.1843 42.0575 97.9896 46.6806 100.132 49.4261C101.003 50.5416 102.942 53.2823 102.942 53.3972C102.942 53.4229 103.195 53.8146 103.505 54.2676C103.816 54.7205 104.069 55.1168 104.069 55.1481C104.069 55.1795 104.323 55.6231 104.633 56.1339C104.943 56.6447 105.197 57.119 105.197 57.188C105.197 57.257 105.282 57.3836 105.385 57.4694L105.573 57.6254L105.576 58.1426C105.579 58.8023 105.245 61.6097 105.005 62.9365C104.904 63.4969 104.82 64.1453 104.82 64.3774C104.819 64.6095 104.735 65.1096 104.633 65.4886C104.531 65.8676 104.447 66.4033 104.445 66.6789C104.441 67.3695 104.332 67.7125 104.089 67.8059L103.882 67.8852L103.6 67.557L103.317 67.2288L103.318 66.5153C103.318 66.1229 103.229 65.3226 103.12 64.7368C102.772 62.8664 102.549 61.8041 102.409 61.3537C102.334 61.1125 102.231 60.7178 102.181 60.4766C101.948 59.3671 101.043 57.211 100.26 55.9032C99.316 54.3256 96.9069 51.5941 95.2981 50.2774C93.2619 48.6107 91.6219 47.5996 89.7476 46.855L89.2211 46.6458L87.5133 46.6007L85.8056 46.5555L85.07 46.8059C80.7106 48.2898 78.3677 52.8423 78.0344 60.4766L77.9441 62.5441L78.0846 64.7995C78.3001 68.2578 78.4195 68.5628 79.3449 68.0203C79.6771 67.8255 80.0335 67.6268 80.1369 67.5787C80.2402 67.5307 80.8323 67.2109 81.4525 66.8681C82.8076 66.1192 85.2384 64.9098 85.5878 64.8107C86.2046 64.6358 87.2665 65.8666 87.6861 67.2428C88.2388 69.0557 88.6572 71.6896 88.6572 73.3558V74.6304L88.4508 75.1655C88.1815 75.8631 87.617 76.4538 86.9085 76.779C86.0269 77.1836 85.496 77.4204 85.0862 77.5917C84.5759 77.805 83.2854 78.3948 82.1103 78.952L81.1393 79.4124V79.6652C81.1393 80.0267 82.7872 83.2909 83.2228 83.7922C83.3173 83.901 83.3946 84.0243 83.3946 84.0662C83.3946 84.178 84.4469 85.6991 85.3219 86.8522C88.7419 91.3592 93.0423 94.7504 97.3656 96.3493C97.6412 96.4513 98.0923 96.6181 98.368 96.7201C99.4573 97.1232 101.188 97.5512 102.315 97.6964C102.763 97.7541 103.507 97.8649 103.968 97.9426C105.015 98.1191 108.5 98.0442 109.52 97.8233C110.433 97.6255 110.996 97.4203 112.177 96.8553L113.079 96.4233L113.961 95.604C114.775 94.8463 115.781 93.521 116.092 92.7955C116.164 92.6279 116.275 92.4061 116.339 92.3027C116.404 92.1994 116.571 91.8611 116.712 91.5509C116.959 91.007 117.403 90.5799 117.522 90.7722C117.669 91.009 117.871 92.5838 117.973 94.2714L118.084 96.1244L117.788 96.6349C117.009 97.9768 114.863 99.7777 113.091 100.576C112.987 100.623 112.705 100.751 112.464 100.86C112.223 100.969 111.716 101.155 111.336 101.271C110.957 101.388 110.462 101.561 110.236 101.655C110.01 101.749 109.728 101.825 109.609 101.825C109.491 101.825 109.028 101.905 108.58 102.003C108.132 102.102 107.03 102.278 106.132 102.395L104.499 102.608L101.997 102.544C99.5474 102.482 98.5768 102.39 96.1752 101.992C94.4471 101.706 92.5534 101.232 91.6915 100.871C91.4652 100.776 91.1993 100.698 91.1006 100.698C91.0019 100.698 90.736 100.618 90.5097 100.52C90.2833 100.423 89.5907 100.135 88.9705 99.8815C87.7878 99.3978 86.0188 98.5384 85.2741 98.0857C85.0329 97.939 84.7168 97.7664 84.5716 97.7021C84.4264 97.6378 83.9754 97.3699 83.5692 97.1067C83.1631 96.8436 82.7357 96.5713 82.6196 96.5016C79.0786 94.3787 71.6365 87.3672 70.9074 85.467C70.7787 85.1317 70.4197 85.2816 68.8534 86.3245C63.3699 89.9756 58.0547 94.3273 53.3739 98.9981C51.7253 100.643 49.6649 102.959 48.183 104.833C47.6652 105.487 47.0854 106.22 46.8946 106.462C46.2101 107.327 41.348 113.839 40.941 114.435C40.3552 115.294 39.4144 116.752 39.4144 116.8C39.4144 116.844 38.36 118.683 38.1577 118.992C38.09 119.095 38.0027 119.264 37.9637 119.367C37.9247 119.471 37.8428 119.64 37.7817 119.743C37.7206 119.847 37.504 120.27 37.3003 120.683C37.0966 121.097 36.8445 121.548 36.7402 121.686L36.5505 121.936L36.4951 121.748ZM250.419 113.112C249.105 113.005 248.508 112.857 246.797 112.214C245.238 111.628 243.424 109.858 242.829 108.341C242.561 107.659 242.398 107.177 242.194 106.462L241.962 105.647L241.973 102.891L241.984 100.134L242.19 99.5701C242.304 99.26 242.397 98.9095 242.398 98.7912C242.401 98.5116 242.897 97.3655 243.504 96.238C243.872 95.5557 245.738 93.9316 246.155 93.9316C246.215 93.9316 246.424 93.8515 246.619 93.7537C247.251 93.4363 247.956 93.2091 248.978 92.9923L249.981 92.7798L252.174 92.8414L254.366 92.9029L255.118 93.0942C255.978 93.313 256.951 93.6693 257.499 93.9657C257.706 94.0776 258.007 94.229 258.168 94.3022C260.144 95.1989 261.538 98.4075 261.78 102.621L261.858 103.98L261.706 105.064C261.564 106.073 261.149 107.784 260.941 108.216C259.806 110.574 258.78 111.584 256.622 112.473C255.252 113.037 252.712 113.299 250.419 113.112ZM253.802 109.497C254.985 109.031 255.684 108.465 256.081 107.652C256.182 107.445 256.359 107.088 256.475 106.859C256.59 106.629 256.684 106.336 256.684 106.207C256.684 106.078 256.769 105.648 256.872 105.251L257.06 104.529V103.071V101.613L256.826 100.492C256.101 97.0304 253.598 95.4748 250.28 96.4237C247.711 97.1585 246.973 98.3609 246.594 102.431L246.52 103.225L246.722 104.687C246.906 106.018 247.122 106.834 247.425 107.339C247.487 107.442 247.592 107.639 247.657 107.777C247.958 108.408 248.769 109.063 249.73 109.452L250.357 109.706L251.798 109.712L253.239 109.719L253.802 109.497ZM133.824 112.949C133.791 112.861 133.778 108.307 133.796 102.828L133.828 92.8666L136.745 92.833C140.079 92.7945 140.03 92.7817 140.336 93.7671C140.46 94.1677 140.64 94.6807 140.735 94.907C140.83 95.1333 140.907 95.3992 140.907 95.4979C140.907 95.5966 140.985 95.8625 141.08 96.0888C141.175 96.3151 141.35 96.8386 141.47 97.2521C141.589 97.6656 141.759 98.2012 141.847 98.4424C141.935 98.6836 142.105 99.2193 142.225 99.6328C142.344 100.046 142.519 100.57 142.614 100.796C142.709 101.022 142.787 101.288 142.787 101.387C142.787 101.486 142.865 101.752 142.96 101.978C143.055 102.204 143.23 102.728 143.349 103.141C143.469 103.555 143.638 104.09 143.727 104.332C143.815 104.573 143.985 105.108 144.104 105.522C144.223 105.935 144.399 106.459 144.494 106.685C144.589 106.911 144.666 107.201 144.666 107.329C144.666 107.607 145.11 108.189 145.23 108.069C145.277 108.023 145.362 107.797 145.421 107.568C145.479 107.338 145.815 106.333 146.168 105.334C146.521 104.335 146.858 103.348 146.917 103.141C146.977 102.934 147.094 102.568 147.179 102.327C147.264 102.086 147.402 101.691 147.486 101.45C147.569 101.208 147.707 100.814 147.792 100.573C147.877 100.331 147.993 99.9648 148.049 99.7581C148.182 99.275 148.412 98.6148 148.63 98.0936C148.724 97.8673 148.801 97.6014 148.801 97.5027C148.801 97.404 148.879 97.1381 148.973 96.9118C149.188 96.3949 149.419 95.7346 149.554 95.2473C149.611 95.0406 149.821 94.4203 150.02 93.869L150.383 92.8666L153.292 92.833L156.202 92.7994L156.449 92.9318L156.697 93.0642L156.665 103.052L156.633 113.04H154.628H152.623L152.56 105.94C152.499 99.0048 152.459 98.2295 152.203 99.0886C152.135 99.319 151.957 99.8176 151.808 100.197C151.658 100.576 151.49 101.055 151.433 101.262C151.376 101.468 151.206 101.948 151.057 102.327C150.907 102.706 150.738 103.185 150.681 103.392C150.624 103.599 150.455 104.078 150.305 104.457C150.155 104.836 149.989 105.323 149.935 105.538C149.881 105.754 149.794 106.001 149.741 106.086C149.688 106.171 149.601 106.417 149.547 106.633C149.494 106.849 149.327 107.336 149.177 107.715C149.027 108.094 148.858 108.573 148.801 108.78C148.744 108.986 148.575 109.466 148.425 109.845C148.276 110.224 148.106 110.703 148.047 110.91C147.887 111.48 147.561 112.338 147.353 112.742L147.166 113.103H145.042H142.917L142.664 112.606C142.525 112.333 142.411 112.025 142.411 111.921C142.411 111.818 142.331 111.548 142.234 111.321C142.136 111.095 141.792 110.064 141.469 109.03C141.146 107.997 140.811 106.953 140.724 106.712C140.368 105.718 140.254 105.378 140.156 105.021C140.099 104.814 139.983 104.447 139.898 104.206C139.814 103.965 139.676 103.57 139.592 103.329C139.508 103.088 139.37 102.693 139.285 102.452C139.201 102.211 139.085 101.844 139.028 101.638C138.925 101.262 138.76 100.774 138.455 99.9461C138.367 99.7049 138.259 99.3443 138.216 99.1448L138.137 98.7821L138.02 98.8994L137.902 99.0167L137.87 106.028L137.838 113.04L135.861 113.074L133.885 113.109L133.824 112.949ZM159.045 113.03C159.006 112.991 159.045 112.807 159.134 112.623C159.359 112.156 159.607 111.574 160.078 110.409C160.548 109.247 160.724 108.822 160.987 108.216C161.091 107.975 161.359 107.326 161.582 106.775C161.805 106.224 162.072 105.575 162.177 105.334C162.44 104.728 162.616 104.303 163.085 103.141C163.308 102.59 163.568 101.956 163.664 101.732C163.759 101.508 163.92 101.126 164.022 100.884C164.123 100.642 164.286 100.261 164.383 100.038C164.48 99.8152 164.74 99.1817 164.961 98.6304C165.356 97.642 165.539 97.2011 165.887 96.4045C165.984 96.1815 166.245 95.548 166.466 94.9967C167.097 93.4272 167.336 92.9599 167.546 92.879C167.791 92.7853 171.701 92.7826 172.049 92.8757L172.303 92.9441L172.562 93.5318C172.704 93.855 173.004 94.5705 173.23 95.1219C173.455 95.6732 173.725 96.3216 173.83 96.5628C174.093 97.1691 174.269 97.5939 174.738 98.7555C174.961 99.3069 175.221 99.9412 175.317 100.165C175.412 100.389 175.568 100.756 175.664 100.98C175.759 101.204 176.019 101.838 176.242 102.389C176.465 102.941 176.719 103.561 176.808 103.768C176.984 104.178 177.272 104.854 177.543 105.49C177.638 105.714 177.899 106.349 178.121 106.9C178.344 107.451 178.604 108.086 178.7 108.31C178.795 108.534 178.951 108.9 179.047 109.124C179.142 109.348 179.401 109.982 179.622 110.534C179.843 111.085 180.075 111.634 180.138 111.754C180.2 111.874 180.329 112.195 180.422 112.467L180.593 112.963L180.412 113.033C180.313 113.071 179.198 113.102 177.934 113.102H175.638L175.394 112.57C175.259 112.277 174.967 111.586 174.744 111.035C174.52 110.484 174.259 109.883 174.162 109.7C174.066 109.517 173.987 109.277 173.987 109.167C173.987 109.057 173.874 108.855 173.736 108.717L173.485 108.466H169.804H166.123L165.997 108.623C165.928 108.709 165.745 109.09 165.592 109.469C165.439 109.848 165.235 110.341 165.139 110.565C165.043 110.789 164.882 111.17 164.78 111.413C164.679 111.655 164.515 112.035 164.417 112.258C164.318 112.481 164.205 112.762 164.167 112.883L164.096 113.102H161.607C160.238 113.102 159.085 113.07 159.045 113.03ZM172.462 104.538C172.5 104.339 172.242 103.634 171.539 102.013C171.449 101.807 171.197 101.186 170.979 100.635C170.761 100.084 170.507 99.4636 170.414 99.2569C170.321 99.0501 170.209 98.7541 170.165 98.5991L170.085 98.3171H169.839C169.704 98.3171 169.562 98.4158 169.523 98.5364C169.441 98.7934 168.776 100.467 168.54 101.011C168.45 101.218 168.197 101.838 167.976 102.389C167.756 102.941 167.501 103.561 167.409 103.768C166.924 104.863 166.82 104.821 169.913 104.793L172.417 104.77L172.462 104.538ZM183.22 113.022C183.172 112.974 183.133 108.437 183.133 102.938V92.9406L183.57 92.8586C183.81 92.8136 186.503 92.8057 189.553 92.841L195.1 92.9054L196.227 93.1013C198.614 93.5159 199.781 94.2708 200.78 96.0463C202.188 98.5475 200.71 103.481 198.371 104.086C198.226 104.124 198.091 104.244 198.07 104.353L198.032 104.551L198.713 104.936C200.013 105.67 201.036 107.486 201.054 109.093C201.058 109.403 201.165 110.39 201.293 111.286C201.421 112.182 201.5 112.957 201.469 113.009C201.389 113.141 197.017 113.123 196.807 112.989L196.634 112.88L196.529 111.77C196.147 107.747 195.567 106.549 193.656 105.834L192.918 105.558L190.25 105.54L187.582 105.522L187.519 109.281L187.456 113.04L185.381 113.074C184.24 113.093 183.267 113.069 183.22 113.022ZM194.94 101.619C195.645 101.346 195.999 101.012 196.296 100.341L196.54 99.7889V99.041V98.2931L196.323 97.8979C195.984 97.2842 195.764 97.0569 195.257 96.7983L194.789 96.5591L191.185 96.5923L187.582 96.6256L187.547 99.0652C187.529 100.407 187.541 101.577 187.575 101.665L187.636 101.826H191.021H194.405L194.94 101.619ZM203.633 112.998C203.557 112.876 203.706 112.278 203.906 111.904C203.977 111.77 204.216 111.21 204.437 110.659C204.658 110.108 204.925 109.459 205.03 109.218C205.3 108.594 205.458 108.213 206.122 106.587C206.445 105.794 206.783 104.977 206.873 104.77C206.963 104.563 207.219 103.943 207.442 103.392C207.664 102.84 207.925 102.206 208.02 101.982C208.115 101.758 208.271 101.392 208.367 101.168C208.462 100.944 208.722 100.309 208.945 99.7581C209.168 99.2068 209.428 98.5724 209.524 98.3485C209.619 98.1245 209.78 97.7431 209.881 97.5009C209.983 97.2586 210.146 96.878 210.243 96.6551C210.34 96.4321 210.601 95.7986 210.822 95.2473C211.044 94.696 211.304 94.0952 211.401 93.9123C211.497 93.7294 211.576 93.4929 211.576 93.3869C211.576 93.2808 211.702 93.1063 211.855 92.999L212.133 92.8039H214.412H216.691L216.936 93.3365C217.07 93.6294 217.363 94.3201 217.588 94.8714C217.812 95.4227 218.083 96.0711 218.19 96.3123C218.372 96.7203 218.511 97.0488 218.909 98.0039C218.995 98.2106 219.248 98.8309 219.47 99.3822C219.693 99.9335 219.949 100.554 220.038 100.76C220.128 100.967 220.382 101.587 220.602 102.139C220.991 103.11 221.113 103.405 221.515 104.332C221.62 104.573 221.885 105.221 222.106 105.772C222.326 106.324 222.586 106.957 222.683 107.18C222.781 107.403 222.943 107.784 223.045 108.026C223.146 108.268 223.307 108.65 223.403 108.874C223.498 109.098 223.758 109.732 223.981 110.283C224.471 111.497 224.707 112.046 224.942 112.527C225.213 113.082 225.085 113.111 222.482 113.074L220.061 113.04L219.972 112.852C219.779 112.444 219.481 111.742 219.097 110.784C218.875 110.233 218.615 109.632 218.518 109.449C218.422 109.267 218.343 109.029 218.343 108.921C218.343 108.814 218.234 108.667 218.1 108.596L217.858 108.466H214.219H210.58L210.401 108.748C210.303 108.903 210.016 109.538 209.763 110.158C209.053 111.899 209.008 112.004 208.749 112.539L208.506 113.04L206.103 113.074C204.782 113.093 203.67 113.058 203.633 112.998ZM216.878 104.762L217.062 104.691L216.845 104.104C216.614 103.479 216.174 102.383 215.906 101.763C215.816 101.556 215.644 101.133 215.523 100.823C215.291 100.226 215.074 99.7037 214.78 99.0376C214.682 98.8136 214.563 98.4962 214.516 98.3321L214.431 98.0339L214.136 98.3948C213.974 98.5933 213.839 98.8242 213.836 98.908C213.834 98.9919 213.739 99.2738 213.626 99.5345C213.512 99.7953 213.343 100.192 213.25 100.416C213.156 100.64 213.003 101.006 212.908 101.23C212.813 101.454 212.637 101.891 212.516 102.201C212.23 102.937 212 103.479 211.748 104.011C211.636 104.249 211.578 104.531 211.619 104.638L211.694 104.833H214.194C215.568 104.833 216.776 104.801 216.878 104.762ZM229.805 112.949C229.772 112.861 229.731 109.152 229.713 104.707L229.682 96.6256L226.487 96.5629L223.292 96.5003L223.257 94.8526L223.222 93.2048L223.423 93.0044L223.623 92.8039H231.955H240.287L240.529 92.9336L240.771 93.0634V94.7505C240.771 96.7699 241.309 96.4771 237.451 96.5576L234.193 96.6256L234.13 104.833L234.068 113.04L231.966 113.074L229.865 113.109L229.805 112.949ZM265.288 113.019C265.242 112.973 265.205 108.44 265.205 102.946V92.956L265.403 92.88C265.512 92.8382 266.682 92.8057 268.003 92.8079L270.405 92.8117L270.608 92.9666C270.72 93.0517 271.139 93.7407 271.539 94.4975C271.94 95.2543 272.45 96.2119 272.673 96.6254C272.897 97.0389 273.303 97.8001 273.575 98.3169C273.848 98.8338 274.276 99.6232 274.527 100.071C274.777 100.519 275.126 101.167 275.301 101.512C275.477 101.857 275.804 102.477 276.029 102.89C276.458 103.678 277.596 105.814 278.016 106.618C278.151 106.876 278.335 107.088 278.426 107.088C278.517 107.088 278.619 107.158 278.654 107.245C278.689 107.331 278.722 104.151 278.727 100.179L278.737 92.9559L278.935 92.8798C279.044 92.838 279.886 92.8037 280.806 92.8037H282.478L282.675 93.0006L282.872 93.1975V103.085V112.972L282.59 113.041C282.435 113.08 281.218 113.095 279.886 113.075L277.464 113.04L276.967 112.163C276.694 111.68 276.387 111.116 276.284 110.91C276.182 110.703 275.981 110.336 275.836 110.095C275.692 109.854 275.436 109.403 275.268 109.093C275.099 108.783 274.862 108.36 274.741 108.153C274.62 107.946 274.319 107.408 274.073 106.958C273.826 106.507 273.461 105.859 273.26 105.517C273.059 105.175 272.856 104.811 272.807 104.707C272.759 104.604 272.59 104.294 272.432 104.018C272.046 103.345 271.434 102.251 271.1 101.637C270.949 101.362 270.711 100.939 270.569 100.698C270.428 100.456 270.171 99.9889 269.998 99.6587C269.825 99.3285 269.62 99.0795 269.543 99.1053L269.402 99.1522L269.37 106.027L269.337 112.901L269.182 113C268.994 113.119 265.406 113.137 265.288 113.019ZM220.097 86.416C217.684 86.2069 215.201 85.0816 214.01 83.6571C213.299 82.8056 212.328 81.0621 212.328 80.635C212.328 80.5583 212.246 80.2343 212.144 79.9149C211.58 78.1316 211.635 74.2645 212.255 72.1921C213.282 68.7549 215.066 67.1571 218.769 66.3563L219.884 66.1151H221.758H223.632L224.527 66.318C225.565 66.5534 226.748 66.9274 227.148 67.147C230.08 68.7555 231.146 70.6172 231.564 74.8589L231.74 76.6486L231.561 78.242C231.342 80.1846 231.154 80.8809 230.492 82.212L229.979 83.2413L229.233 84.0134C227.291 86.0231 224.384 86.7875 220.097 86.416ZM223.73 82.8082C224.651 82.4453 225.039 82.1978 225.462 81.7025C227.549 79.2591 227.401 72.5835 225.218 70.6803C222.817 68.588 218.145 69.4739 217.123 72.2151C216.527 73.8136 216.306 76.6918 216.653 78.3318C216.755 78.8141 216.839 79.3074 216.839 79.4278C216.839 79.7949 217.571 81.221 218.022 81.7333C218.423 82.1881 218.653 82.3349 219.721 82.8167L220.159 83.0145L221.663 83.0224L223.167 83.0304L223.73 82.8082ZM139.091 86.2235C138.746 86.1274 138.362 86.0463 138.237 86.0433C136.696 86.0057 133.389 82.6499 133.389 81.1236C133.389 81.0399 133.31 80.7441 133.212 80.4661C132.253 77.728 132.617 73.1767 134.024 70.3057L134.519 69.2964L135.352 68.4639L136.184 67.6314L136.948 67.2611C137.922 66.7889 138.818 66.5382 140.156 66.3629L141.221 66.2234L145.168 66.2632L149.115 66.3031V68.0573V69.8115L145.168 69.8848L141.221 69.9582L140.636 70.1386C139.029 70.6348 138.211 71.5687 137.762 73.4218L137.524 74.4008L137.523 76.0531L137.521 77.7053L137.726 78.6451C138.532 82.3439 139.334 82.7494 145.886 82.77L149.047 82.78L149.117 83.0619C149.156 83.2169 149.171 84.0204 149.151 84.8474L149.115 86.351L144.416 86.3746L139.717 86.3983L139.091 86.2235ZM152.242 86.257C152.209 86.1709 152.197 81.646 152.215 76.2017L152.247 66.303L157.886 66.2621L163.524 66.2212L164.714 66.362C168.74 66.838 170.575 68.911 170.292 72.6617C170.123 74.8873 169.177 76.5319 167.634 77.2787L167.082 77.5459L167.122 77.7505C167.143 77.863 167.335 78.0398 167.548 78.1434C169.161 78.9287 170.228 81.1235 170.228 83.6569C170.228 84.1539 170.315 84.8999 170.423 85.3147C170.53 85.7294 170.588 86.1476 170.551 86.244L170.484 86.4192L168.134 86.3851L165.783 86.351L165.568 85.098C165.449 84.4088 165.348 83.5631 165.345 83.2185C165.324 81.3435 164.293 79.7594 162.7 79.154L162.046 78.9057L159.5 78.819L156.955 78.7323L156.762 78.8919L156.57 79.0516V82.6566V86.2615L156.372 86.3376C156.263 86.3794 155.302 86.4136 154.238 86.4136H152.302L152.242 86.257ZM164.151 74.8857C164.861 74.5622 165.275 74.0025 165.475 73.0927L165.635 72.3645L165.468 71.7144C165.249 70.8594 164.905 70.4158 164.227 70.116L163.671 69.8702L160.152 69.9035L156.632 69.9367L156.598 72.3764C156.58 73.7182 156.592 74.8882 156.626 74.9764L156.687 75.1367H160.144H163.6L164.151 74.8857ZM172.311 86.314C172.275 86.2563 172.317 86.0155 172.404 85.7789C172.553 85.3759 172.637 85.1703 173.044 84.2209C173.133 84.0142 173.388 83.3939 173.611 82.8426C173.99 81.9045 174.088 81.6688 174.536 80.6185C174.632 80.3946 174.975 79.5629 175.298 78.7704C175.621 77.9778 175.959 77.1603 176.049 76.9535C176.139 76.7468 176.395 76.1265 176.618 75.5752C176.841 75.0239 177.101 74.3896 177.196 74.1656C177.292 73.9416 177.448 73.5751 177.543 73.3511C177.638 73.1272 177.899 72.4928 178.121 71.9415C178.344 71.3902 178.604 70.7559 178.7 70.5319C178.795 70.3079 178.956 69.9265 179.058 69.6843C179.159 69.4421 179.322 69.0615 179.42 68.8385C179.518 68.6156 179.797 67.9539 180.041 67.3681L180.485 66.303L182.969 66.2692L185.453 66.2354L185.745 66.8957C186.22 67.9689 186.341 68.2567 186.767 69.3102C186.99 69.8616 187.245 70.4818 187.335 70.6885C187.425 70.8953 187.679 71.5155 187.899 72.0668C188.119 72.6182 188.379 73.2517 188.477 73.4746C188.824 74.2712 189.007 74.7121 189.403 75.7005C189.623 76.2519 189.891 76.9003 189.998 77.1415C190.179 77.5494 190.319 77.8779 190.716 78.833C190.802 79.0398 191.055 79.66 191.278 80.2113C191.501 80.7626 191.761 81.397 191.856 81.6209C191.952 81.8449 192.108 82.2114 192.203 82.4354C192.298 82.6594 192.557 83.2937 192.779 83.845C193 84.3963 193.232 84.9454 193.294 85.0651C194.008 86.4298 194.033 86.4137 191.206 86.4137H188.794L188.55 85.8811C188.416 85.5883 188.123 84.8975 187.9 84.3462C187.677 83.7949 187.415 83.1942 187.319 83.0112C187.222 82.8283 187.143 82.5887 187.143 82.4787C187.143 82.3687 187.03 82.166 186.892 82.0282L186.642 81.7776H183.032H179.422L179.222 81.9342C179.111 82.0203 178.899 82.4009 178.75 82.78C178.6 83.159 178.404 83.6383 178.313 83.845C178.223 84.0518 177.949 84.7002 177.705 85.286L177.262 86.351L174.819 86.385C173.475 86.4036 172.346 86.3717 172.311 86.314ZM185.555 78.0722L185.742 78.0005L185.643 77.6649C185.546 77.3372 185.425 77.0301 185.042 76.1391C184.766 75.4965 184.571 75.0191 184.324 74.3849C184.122 73.8659 184.033 73.6537 183.564 72.568C183.474 72.3613 183.365 72.0653 183.322 71.9102C183.278 71.7551 183.143 71.6283 183.023 71.6283H182.804L182.522 72.3487C182.368 72.745 182.167 73.2384 182.075 73.4451C181.984 73.6519 181.728 74.2721 181.507 74.8234C181.285 75.3747 181.043 75.9668 180.968 76.1391C180.752 76.6382 180.497 77.3014 180.38 77.6671L180.273 78.0048L180.419 78.0645C180.629 78.1505 185.333 78.1575 185.555 78.0722ZM200.174 86.2014C197.369 85.5372 195.296 83.6167 194.653 81.0884C194.601 80.8817 194.499 80.5433 194.427 80.3366C194.356 80.1299 194.202 79.2969 194.085 78.4857L193.873 77.0106L193.941 75.7917C194.041 74.0026 194.429 72.0652 194.859 71.2109C194.957 71.0158 195.037 70.8074 195.037 70.7477C195.037 70.4471 196 69.0601 196.669 68.3974L197.427 67.6462L198.205 67.2685C200.006 66.3949 201.215 66.2404 206.251 66.2404H210.319L210.389 66.5223C210.427 66.6774 210.442 67.4809 210.422 68.3078L210.386 69.8114L206.377 69.8796L202.367 69.9478L201.928 70.1163C200.18 70.7877 199.514 71.517 199.048 73.2702L198.802 74.1969L198.799 75.9958L198.796 77.7948L198.998 78.6898C199.254 79.8243 199.607 80.7 200.066 81.3425C200.412 81.8259 200.619 81.9644 201.741 82.4669L202.242 82.6913L206.285 82.7522L210.327 82.8131L210.393 83.0785C210.429 83.2244 210.443 84.0204 210.423 84.8474L210.386 86.351L205.688 86.3726L200.989 86.3942L200.174 86.2014ZM239.847 85.5052C239.617 85.0056 239.245 84.1457 239.021 83.5944C238.796 83.0431 238.525 82.3947 238.417 82.1534C238.31 81.9122 238.146 81.5325 238.053 81.3095C237.959 81.0865 237.8 80.7059 237.698 80.4637C237.465 79.9082 237.131 79.1235 236.575 77.8306C236.486 77.6239 236.147 76.8063 235.822 76.0138C235.496 75.2212 235.15 74.3904 235.053 74.1674C234.955 73.9445 234.791 73.5647 234.687 73.3235C234.584 73.0823 234.407 72.6727 234.294 72.4132C234.18 72.1538 234.013 71.7583 233.921 71.5343C233.829 71.3103 233.676 70.9438 233.58 70.7199C232.439 68.0519 231.873 66.6408 231.874 66.4597L231.876 66.2404H234.233H236.591L236.875 66.9609C237.032 67.3571 237.33 68.1042 237.538 68.6211C237.746 69.1379 237.995 69.7723 238.091 70.0307C238.419 70.912 238.673 71.5652 238.834 71.9415C238.922 72.1483 239.091 72.5712 239.208 72.8813C239.326 73.1914 239.507 73.6707 239.611 73.9463C239.716 74.222 239.873 74.6167 239.962 74.8234C240.05 75.0302 240.212 75.439 240.322 75.7318C240.698 76.7375 240.929 77.33 241.089 77.7053C241.178 77.9121 241.345 78.3349 241.462 78.6451C241.579 78.9552 241.753 79.3941 241.85 79.6204C241.946 79.8467 242.025 80.1004 242.025 80.1842C242.025 80.268 242.162 80.5058 242.329 80.7125L242.632 81.0884L242.712 80.8378C242.756 80.7 242.866 80.4181 242.957 80.2113C243.047 80.0046 243.206 79.6099 243.311 79.3342C243.674 78.3743 243.937 77.7029 244.096 77.3294C244.185 77.1227 244.354 76.6998 244.472 76.3897C244.591 76.0795 244.76 75.6567 244.848 75.4499C244.937 75.2432 245.104 74.8203 245.22 74.5102C245.336 74.2001 245.503 73.7772 245.592 73.5704C245.68 73.3637 245.838 72.969 245.943 72.6933C246.134 72.1927 246.528 71.2009 247.287 69.3102C247.508 68.7589 247.776 68.0823 247.883 67.8066C247.99 67.531 248.186 67.0658 248.32 66.7729L248.563 66.2404H250.932H253.302V66.4182C253.302 66.516 253.208 66.7838 253.093 67.0134C252.791 67.6152 252.771 67.6606 251.986 69.4982C251.593 70.4179 251.228 71.2593 251.173 71.368C251.119 71.4767 250.986 71.763 250.879 72.0042C250.772 72.2454 250.512 72.8235 250.301 73.2888C250.091 73.7542 249.919 74.1628 249.919 74.1969C249.919 74.231 249.747 74.6396 249.536 75.105C249.326 75.5704 249.074 76.1352 248.976 76.3602C248.463 77.5381 248.222 78.0825 247.67 79.3032C247.46 79.7686 247.287 80.1772 247.287 80.2113C247.287 80.2749 246.893 81.1596 245.795 83.5634C245.582 84.0288 245.408 84.4468 245.408 84.4924C245.408 84.538 245.212 84.989 244.972 85.4945L244.535 86.4136H242.4H240.266L239.847 85.5052ZM255.49 86.2601C255.457 86.1723 255.444 81.646 255.462 76.2017L255.494 66.303L257.594 66.2687L259.693 66.2343L259.661 76.2927L259.629 86.351L257.59 86.3854L255.551 86.4198L255.49 86.2601ZM261.895 86.3062C261.821 86.1863 261.973 85.5864 262.171 85.2147C262.242 85.0816 262.481 84.5216 262.702 83.9703C262.923 83.419 263.189 82.7705 263.294 82.5293C263.399 82.2881 263.567 81.8934 263.668 81.6522C263.769 81.411 263.924 81.0445 264.012 80.8378C264.101 80.631 264.355 80.0108 264.578 79.4595C264.801 78.9082 265.069 78.2597 265.173 78.0185C265.437 77.4122 265.613 76.9874 266.082 75.8258C266.305 75.2745 266.565 74.6402 266.66 74.4162C266.756 74.1922 266.912 73.8257 267.007 73.6017C267.102 73.3778 267.363 72.7434 267.585 72.1921C267.808 71.6408 268.068 71.0065 268.164 70.7825L268.511 69.968C268.606 69.7441 268.868 69.1097 269.093 68.5584C269.318 68.0071 269.636 67.2588 269.801 66.8956L270.101 66.2351L272.546 66.2691L274.992 66.303L275.223 66.7416C275.35 66.9828 275.635 67.6312 275.857 68.1825C276.079 68.7338 276.338 69.3682 276.434 69.5921L276.78 70.4066C276.876 70.6306 277.136 71.2649 277.359 71.8162C277.582 72.3675 277.842 73.0019 277.937 73.2258C278.033 73.4498 278.189 73.8163 278.284 74.0403C278.379 74.2642 278.64 74.8986 278.862 75.4499C279.332 76.6115 279.508 77.0363 279.771 77.6426C279.875 77.8838 280.143 78.5323 280.366 79.0836C280.589 79.6349 280.851 80.2684 280.948 80.4914C281.045 80.7143 281.208 81.0949 281.309 81.3372C281.411 81.5794 281.572 81.9608 281.667 82.1848C281.762 82.4087 282.023 83.0431 282.245 83.5944C282.468 84.1457 282.722 84.7659 282.81 84.9727C282.898 85.1794 283.06 85.5618 283.171 85.8224L283.373 86.2963L283.213 86.3578C283.124 86.3917 281.989 86.4039 280.689 86.3851L278.326 86.351L278.236 86.163C278.043 85.7554 277.746 85.0528 277.361 84.0956C277.14 83.5442 276.879 82.9435 276.783 82.7606C276.686 82.5777 276.607 82.34 276.607 82.2325C276.607 82.1249 276.498 81.9786 276.365 81.9072L276.122 81.7775H272.483H268.844L268.665 82.0594C268.567 82.2145 268.362 82.6515 268.21 83.0305C268.058 83.4095 267.86 83.8888 267.769 84.0956C267.679 84.3023 267.482 84.7816 267.332 85.1606C267.183 85.5396 266.98 85.9766 266.881 86.1317L266.703 86.4136H264.332C263.028 86.4136 261.932 86.3653 261.895 86.3062ZM275.142 78.0731L275.326 78.0023L275.109 77.4153C274.894 76.8335 274.475 75.7983 274.161 75.074C274.072 74.8673 273.902 74.4444 273.784 74.1343C273.561 73.5519 273.355 73.0526 273.045 72.3487C272.946 72.1248 272.826 71.8053 272.779 71.6387L272.693 71.336L272.471 71.6302C272.349 71.792 272.125 72.2383 271.973 72.6221C271.821 73.0058 271.622 73.489 271.531 73.6957C271.44 73.9025 271.187 74.5227 270.968 75.074C270.75 75.6253 270.499 76.2456 270.41 76.4523C269.909 77.6159 269.82 77.8843 269.897 78.0077L269.981 78.1438H272.469C273.838 78.1438 275.041 78.112 275.142 78.0731ZM59.024 69.5985C58.7484 69.5333 58.1995 69.3995 57.8042 69.3011C57.409 69.2028 56.9771 69.1223 56.8443 69.1223C55.9341 69.1223 54.34 68.0608 53.9012 67.1624C53.0601 65.4403 52.6353 64.0576 52.4345 62.3877L52.28 61.1036L52.4355 60.007C52.5209 59.4038 52.671 58.7252 52.7689 58.4989C52.8669 58.2726 52.947 58.012 52.947 57.9198C52.947 57.8277 53.1666 57.5054 53.435 57.2036L53.9229 56.655L54.9072 56.6802C55.4486 56.6941 56.1383 56.7928 56.4398 56.8995C56.7414 57.0062 57.1361 57.0941 57.3169 57.0947C57.4978 57.0952 57.9384 57.2322 58.2961 57.3988L58.9464 57.7016L59.3298 58.2308L59.7132 58.76L59.7133 59.3364C59.7134 59.6534 59.7979 60.392 59.9011 60.9778C60.0042 61.5636 60.0888 62.3248 60.089 62.6693C60.0893 63.0139 60.1738 63.7751 60.277 64.3609C60.3802 64.9467 60.4656 65.7079 60.4669 66.0524C60.4684 66.397 60.5492 67.1663 60.6468 67.7619C60.9365 69.5286 60.5548 69.9607 59.024 69.5985ZM136.491 55.9891C136.465 55.8729 136.511 55.6087 136.592 55.402C136.809 54.8489 137.031 54.1997 137.148 53.7731C137.205 53.5663 137.321 53.1998 137.406 52.9586C137.491 52.7174 137.629 52.3227 137.713 52.0815C137.798 51.8403 137.965 51.3047 138.085 50.8912C138.205 50.4777 138.374 49.942 138.461 49.7008C138.548 49.4596 138.717 48.924 138.837 48.5105C139.389 46.6098 139.692 46.0447 140.719 44.9981L141.597 44.1047L142.599 43.6294C143.15 43.368 143.751 43.0765 143.934 42.9817C144.117 42.8869 144.355 42.8093 144.462 42.8093C144.57 42.8093 144.843 42.7321 145.069 42.6378C145.702 42.374 146.314 42.1684 146.796 42.0575C147.038 42.0021 147.404 41.8998 147.611 41.83C147.818 41.7603 148.325 41.6102 148.739 41.4965C149.152 41.3829 149.66 41.2315 149.866 41.1602C150.073 41.0889 150.44 40.9852 150.681 40.9299C150.922 40.8745 151.288 40.7684 151.495 40.6942C151.702 40.62 152.212 40.4494 152.628 40.3152C154.924 39.575 156.751 38.4501 157.086 37.5708C157.146 37.4114 157.252 37.316 157.321 37.3587L157.447 37.4363V41.0089V44.5816L157.13 45.1231C156.233 46.6525 154.183 47.9092 150.148 49.4017C149.89 49.4973 149.439 49.6665 149.146 49.7776C148.117 50.1679 146.956 50.5728 146.483 50.7057C146.115 50.8093 145.804 50.9225 144.416 51.4584C144.037 51.6047 143.584 51.7691 143.409 51.8238C141.389 52.4563 138.161 54.4029 136.998 55.6896L136.537 56.2002L136.491 55.9891ZM212.704 49.0052C212.394 48.9075 212.036 48.8267 211.909 48.8256C211.68 48.8237 211.301 48.6767 210.207 48.166C208.855 47.5345 207.613 45.7312 207.295 43.937L207.128 42.9973V36.6488C207.128 29.2747 206.866 30.0914 209.237 30.0914H211.138L211.209 36.607L211.28 43.1226L211.46 43.6758C211.827 44.8067 213.063 45.6951 214.578 45.9164L215.387 46.0346L216.395 45.9128C217.774 45.7461 218.613 45.3 219.151 44.4481L219.444 43.9837L219.582 42.4665C219.659 41.6321 219.721 38.5265 219.721 35.5651V30.1809L219.919 30.1048C220.028 30.063 220.872 30.0288 221.794 30.0288H223.471L223.613 30.2932L223.754 30.5577L223.697 37.2161L223.64 43.8744L223.377 44.6528C222.556 47.0822 221.134 48.2746 218.197 48.9948L217.362 49.1996L215.315 49.1913L213.268 49.1829L212.704 49.0052ZM252.988 49.0681C252.712 49.0038 252.233 48.9 251.923 48.8375C250.371 48.5248 249.025 47.8049 247.913 46.6936L246.973 45.7539L246.638 45.0591C244.801 41.2575 245.246 35.2301 247.558 32.6043C248.527 31.5033 250.122 30.674 252.129 30.2278L253.024 30.0288H254.772H256.521L257.636 30.2724C259.68 30.7186 260.707 31.2319 261.872 32.3875L262.643 33.1531L263.026 33.9403C263.482 34.8778 263.657 35.353 263.913 36.3564L264.105 37.1082L264.163 39.4482L264.222 41.7883L264.024 42.5595C263.915 42.9837 263.826 43.4146 263.826 43.517C263.826 43.6194 263.574 44.2255 263.266 44.8639L262.705 46.0245L261.981 46.7734C261.583 47.1853 260.919 47.7183 260.506 47.958C259.823 48.3536 259.462 48.4906 257.875 48.9544C257.24 49.1401 253.653 49.2235 252.988 49.0681ZM257.108 45.5598C258.258 45.0508 258.994 44.0784 259.484 42.4224L259.692 41.7223V39.6142V37.5061L259.489 36.806C259.033 35.2259 258.346 34.2656 257.272 33.7043L256.622 33.3643L254.93 33.3662L253.239 33.3681L252.614 33.6593C250.934 34.4428 250.206 35.9195 249.986 38.9909L249.905 40.1152L250.153 41.4935C250.777 44.9726 251.996 46.0097 255.306 45.8778L256.496 45.8304L257.108 45.5598ZM180.375 41.4624C180.373 37.2758 180.329 33.781 180.275 33.6962L180.177 33.542L177.301 33.5083L174.425 33.4745V31.783V30.0914L182.368 30.0592L190.31 30.0269L190.481 30.1685L190.651 30.3101V31.7733V33.2365L190.501 33.3868L190.351 33.5372H187.498H184.646L184.516 33.7796L184.386 34.0219V41.5481V49.0744H182.382H180.377L180.375 41.4624ZM186.767 48.8965C186.767 48.7988 186.845 48.5591 186.94 48.364C187.182 47.8656 187.405 47.3428 188.079 45.6912C188.402 44.8987 188.74 44.0811 188.83 43.8744C188.92 43.6677 189.176 43.0474 189.398 42.4961C189.621 41.9448 189.889 41.2964 189.994 41.0551C190.257 40.4488 190.433 40.024 190.902 38.8624C191.125 38.3111 191.385 37.6768 191.48 37.4528C191.576 37.2288 191.737 36.8474 191.838 36.6052C191.94 36.363 192.102 35.9824 192.2 35.7594C192.297 35.5364 192.559 34.9029 192.781 34.3516C193.162 33.4095 193.274 33.1395 193.708 32.1275C193.803 31.9036 194.006 31.4102 194.157 31.0312C194.309 30.6521 194.523 30.2715 194.634 30.1854L194.834 30.0288H196.931H199.028L199.288 30.3589C199.431 30.5405 199.548 30.7615 199.548 30.85C199.548 30.9385 199.625 31.1705 199.72 31.3656C199.952 31.8413 200.191 32.401 200.675 33.5998C200.898 34.1511 201.166 34.7996 201.271 35.0408C201.534 35.6471 201.71 36.0719 202.179 37.2335C202.402 37.7848 202.662 38.4192 202.757 38.6431C202.853 38.8671 203.009 39.2336 203.104 39.4576C203.2 39.6816 203.46 40.3159 203.683 40.8672C203.905 41.4185 204.166 42.0528 204.261 42.2768C204.356 42.5008 204.512 42.8673 204.608 43.0913C204.703 43.3152 204.963 43.9496 205.186 44.5009C205.409 45.0522 205.671 45.6857 205.768 45.9087C205.865 46.1317 206.028 46.5123 206.129 46.7545C206.231 46.9967 206.391 47.3781 206.485 47.6021C206.863 48.4992 206.94 48.7179 206.94 48.895V49.0799L204.614 49.0458L202.287 49.0117L201.656 47.5081C201.033 46.0249 200.724 45.3073 200.549 44.9394L200.46 44.7515L196.868 44.7182L193.276 44.685L193.209 44.9062C193.172 45.0278 193.07 45.2965 192.983 45.5033C192.725 46.1138 192.461 46.7266 192.255 47.1948C192.148 47.436 191.959 47.8871 191.834 48.1972C191.709 48.5073 191.554 48.8316 191.489 48.9177L191.372 49.0743H189.07H186.767V48.8965ZM199.453 41.2336C199.515 41.1709 199.341 40.709 198.604 38.9877C198.515 38.781 198.346 38.3581 198.228 38.048C197.967 37.3649 197.697 36.7283 197.465 36.2523C197.37 36.0572 197.292 35.8216 197.292 35.7287C197.292 35.2639 196.721 35.0312 196.603 35.448C196.559 35.603 196.443 35.9132 196.344 36.1371C196.051 36.8032 195.833 37.3251 195.601 37.9227C195.288 38.7264 194.985 39.4535 194.489 40.5939C194.375 40.857 194.313 41.1249 194.353 41.1891C194.43 41.3137 199.33 41.3565 199.453 41.2336ZM226.566 48.7924C226.524 48.6373 226.49 44.4967 226.489 39.591L226.487 30.6716L226.615 30.3357L226.742 29.9999L232.222 30.0596L237.701 30.1194L238.641 30.2786C241.199 30.7121 242.429 31.5614 243.269 33.4745L243.544 34.101L243.539 35.6046L243.534 37.1082L243.304 37.7572C242.848 39.0446 241.735 40.3106 240.8 40.6075C240.646 40.6563 240.52 40.7943 240.52 40.9142V41.1322L241.018 41.3519C241.559 41.5903 242.776 42.86 242.776 43.1852C242.776 43.2955 242.835 43.4454 242.908 43.5183C243.099 43.7086 243.386 45.1661 243.535 46.6936C243.605 47.4172 243.695 48.2489 243.734 48.5418L243.804 49.0743H241.619H239.433L239.283 48.7447C239.2 48.5634 239.081 47.9009 239.018 47.2724C238.7 44.0944 238.177 43.0431 236.547 42.3019L235.947 42.0293L233.474 41.9637L231.002 41.898L230.812 42.0558L230.622 42.2135V45.4457C230.622 47.2234 230.587 48.7671 230.546 48.8761L230.47 49.0743H228.555H226.641L226.566 48.7924ZM238.114 38.1117C238.341 37.9744 238.639 37.6719 238.776 37.4394L239.026 37.0166L239.029 35.9566L239.033 34.8967L238.816 34.5615C238.531 34.1228 238.191 33.8853 237.576 33.6957L237.075 33.541L233.924 33.5391L230.774 33.5372L230.698 33.7354C230.597 33.9988 230.6 37.9699 230.701 38.2344L230.78 38.4413L234.241 38.4013L237.701 38.3613L238.114 38.1117ZM266.864 39.5829L266.896 30.0914L269.34 30.0605C272.189 30.0246 271.911 29.9175 272.667 31.3444C272.995 31.9647 273.458 32.8386 273.695 33.2866C273.932 33.7345 274.308 34.4393 274.531 34.8528C274.753 35.2663 275.263 36.2231 275.664 36.9791C276.064 37.7351 276.496 38.5245 276.624 38.7333C276.751 38.9421 276.888 39.1976 276.928 39.301C276.968 39.4043 277.05 39.5735 277.111 39.6769C277.171 39.7802 277.414 40.2313 277.649 40.6793C277.885 41.1272 278.285 41.8864 278.538 42.3663C278.79 42.8463 279.042 43.2691 279.097 43.3061C279.152 43.343 279.261 43.486 279.339 43.6238L279.481 43.8744L279.485 37.273L279.489 30.6716L279.612 30.3467L279.736 30.0219L281.523 30.0566L283.31 30.0914V39.5515V49.0117L281.055 49.0473C279.815 49.0669 278.687 49.0552 278.549 49.0213L278.298 48.9595L277.861 48.1712C277.62 47.7376 277.355 47.27 277.273 47.1322C277.191 46.9944 277.038 46.7124 276.934 46.5057C276.829 46.2989 276.566 45.8197 276.348 45.4406C276.13 45.0616 275.813 44.4978 275.644 44.1876C275.474 43.8775 275.21 43.3983 275.055 43.1226C274.9 42.8469 274.556 42.2267 274.29 41.7443C274.024 41.2619 273.707 40.698 273.586 40.4913C273.465 40.2846 273.243 39.8899 273.093 39.6142C272.765 39.0119 272.155 37.9216 271.761 37.2335C271.603 36.9578 271.419 36.6195 271.352 36.4817C271.285 36.3439 271.116 36.0901 270.977 35.9179L270.723 35.6046L270.719 42.0575C270.716 45.6067 270.68 48.6373 270.639 48.7924L270.563 49.0743H268.697H266.832L266.864 39.5829ZM139.162 41.0299C138.566 40.7567 137.428 39.6986 137.138 39.1477C136.949 38.7894 136.082 37.0403 135.226 35.2914L134.705 34.2263L134 33.5113C133.216 32.7156 133.212 32.661 133.943 32.6579C134.224 32.6565 134.962 32.5724 135.582 32.4706C136.202 32.3688 137.333 32.2745 138.094 32.261L139.477 32.2366L140.045 32.6273C140.623 33.0246 141.443 34.0098 141.916 34.8754C142.06 35.1386 142.286 35.5232 142.418 35.7299C142.551 35.9366 142.698 36.1904 142.746 36.2937C143.677 38.3009 145.823 40.5924 147.143 40.9881C147.299 41.0349 147.394 41.1255 147.355 41.1895L147.283 41.3057L143.5 41.2952L139.717 41.2846L139.162 41.0299ZM161.411 41.117C161.213 41.0141 160.974 40.9299 160.879 40.9299C160.785 40.9299 160.354 40.5774 159.923 40.1467C159.176 39.4006 158.934 39.0069 158.136 37.2335C156.942 34.5797 156.314 33.5506 155.248 32.4999C154.503 31.765 153.735 31.2583 153.14 31.1089C152.214 30.8767 153.103 30.5562 155.104 30.4001C156.014 30.3292 157.04 30.22 157.384 30.1574C157.729 30.0949 158.7 30.0404 159.541 30.0362L161.072 30.0288L161.546 30.2456C162.841 30.8375 164.772 32.7587 165.803 34.4793C167.321 37.0139 168.469 38.4077 169.917 39.4699C171.286 40.4747 171.953 40.826 172.792 40.9834L173.28 41.075L173.101 41.1884C173.001 41.2518 170.457 41.3024 167.346 41.303L161.77 41.304L161.411 41.117ZM59.0178 40.5609C58.6698 40.5066 58.2751 40.4048 58.1407 40.3348C58.0063 40.2647 57.6268 40.0698 57.2974 39.9016C54.9777 38.7176 53.1942 35.8582 52.3896 32.0336L52.192 31.0938L52.1934 29.3745L52.1948 27.6552L52.3875 26.6806C52.4935 26.1445 52.6627 25.4446 52.7634 25.1253C52.8642 24.8059 52.9466 24.4829 52.9466 24.4075C52.9466 23.4371 55.6534 19.5596 56.6429 19.1125C56.7808 19.0502 57.0799 18.8866 57.3078 18.7489C57.5356 18.6112 58.0411 18.3863 58.4311 18.2492L59.1403 18L60.0844 18.0019C62.6544 18.0069 65.3273 19.9646 66.6322 22.7976C67.2209 24.0757 67.4742 24.7781 67.6131 25.518C67.6713 25.8281 67.7809 26.2792 67.8567 26.5204L67.9944 26.959L67.9935 29.3397C67.993 30.709 67.9345 31.9067 67.8557 32.1589C67.7804 32.4001 67.6711 32.8512 67.6129 33.1613C67.467 33.9386 67.29 34.4029 66.5811 35.8676C64.9089 39.3226 62.1302 41.0469 59.0173 40.561L59.0178 40.5609ZM143.23 35.3042C143.188 35.1738 143.234 34.8779 143.331 34.6467C143.429 34.4155 143.606 33.888 143.725 33.4745C143.844 33.061 144.012 32.5254 144.098 32.2842C144.474 31.2311 144.569 30.9467 144.661 30.5926C145.123 28.8219 146.515 27.6272 149.624 26.3332C150.24 26.0768 150.913 25.7937 151.119 25.7041C151.326 25.6144 151.749 25.4442 152.059 25.3258C152.907 25.0022 153.259 24.8449 154.623 24.1823L155.871 23.5758L156.613 22.8516C157.548 21.9398 157.51 21.8698 157.505 24.4953L157.501 26.7083L157.167 27.229C156.594 28.1208 154.335 29.6116 152.842 30.0821C152.687 30.131 152.56 30.2235 152.56 30.2878C152.56 30.3521 152.459 30.4047 152.334 30.4047C151.88 30.4047 147.502 32.378 146.165 33.185C145.243 33.7419 144.016 34.6967 143.624 35.1622L143.305 35.5414L143.23 35.3042Z" fill="#D7347C"/>
</svg>
