<svg width="320" height="140" viewBox="0 0 320 140" fill="none" xmlns="http://www.w3.org/2000/svg">
<g clip-path="url(#clip0_1693_512)">
<path d="M272.439 114.566L278.154 108.85H281.503L275.56 114.793L281.696 120.947H278.312L273.807 116.441L272.457 117.791V121H269.932V108.85H272.457L272.439 114.566Z" fill="black"/>
<path d="M260.605 120.948V108.833H267.039V111.113H263.13V113.374H267.635V115.653H263.13V118.669H268.126V120.948H260.605Z" fill="black"/>
<path d="M248 115.338V108.833H250.525V115.758C250.525 117.669 251.419 118.739 253.224 118.739C255.03 118.739 255.924 117.582 255.924 115.758V108.833H258.449V115.548C258.449 119.072 256.485 121.158 253.242 121.158C249.683 121.158 248 118.704 248 115.338Z" fill="black"/>
<path d="M106.079 79.5562H112.233V90.3906C112.233 93.5463 114.266 95.8079 116.738 95.8079C119.438 95.8079 122.033 94.458 122.033 90.3906V79.5562H128.134V101.418H122.033V99.8577C120.77 101.243 118.001 101.891 115.932 101.891C110.182 101.891 106.097 96.965 106.097 90.9341L106.079 79.5562Z" fill="black"/>
<path d="M157.482 79.5556H163.495L152.66 101.996L147.717 91.6874L142.79 101.996L130.886 79.5556H137.688L142.983 90.0745L144.982 85.8319L142.036 79.5205H147.927L152.923 90.0394L157.482 79.5556Z" fill="black"/>
<path d="M185.111 97.3508C183.235 100.121 179.396 101.856 175.486 101.856C169.105 101.979 163.81 96.93 163.617 90.5486C163.582 84.2723 168.666 79.1531 174.943 79.118H174.96H174.978C179.887 79.1005 184.27 82.2035 185.9 86.8319L173.663 95.5275C174.241 95.7204 174.855 95.808 175.469 95.7905C177.309 95.9132 179.098 95.0717 180.185 93.5815L185.111 97.3508ZM170.034 91.9335L177.993 86.2533C177.117 85.5871 176.065 85.219 174.96 85.219C171.98 85.3943 169.701 87.9539 169.876 90.9342C169.911 91.2673 169.964 91.6004 170.034 91.9335Z" fill="black"/>
<path d="M282.411 79.5563V101.418H276.258V99.8578C275.311 101.12 272.927 101.892 270.928 101.892C264.95 101.892 260.181 96.7372 260.181 90.496C260.181 84.2548 265.072 79.0654 270.928 79.0654C272.892 79.083 274.767 79.7842 276.258 81.064V79.5563H282.411ZM276.503 90.5486C276.661 87.7961 274.575 85.4469 271.822 85.2716C271.717 85.2716 271.612 85.2541 271.524 85.2541C268.596 85.3768 266.352 87.8487 266.475 90.7765C266.598 93.5114 268.789 95.7029 271.524 95.8256C274.399 95.7905 276.503 93.6341 276.503 90.5486Z" fill="black"/>
<path d="M236.689 79.5563V101.418H230.535V99.8578C229.588 101.12 227.204 101.892 225.205 101.892C219.227 101.892 214.476 96.7372 214.476 90.496C214.476 84.2548 219.367 79.0654 225.205 79.0654C227.169 79.083 229.045 79.7842 230.535 81.064V79.5563H236.689ZM230.798 90.5486C230.956 87.7961 228.869 85.4469 226.117 85.2716C226.012 85.2716 225.907 85.2541 225.819 85.2541C222.891 85.3768 220.647 87.8487 220.77 90.7765C220.893 93.5114 223.084 95.7029 225.819 95.8256C228.677 95.7905 230.798 93.6341 230.798 90.5486Z" fill="black"/>
<path d="M211.356 101.418H205.237V90.5486C205.237 87.0423 203.203 85.2716 200.731 85.2716C197.979 85.1313 195.612 87.2351 195.472 90.0051C195.454 90.1804 195.454 90.3733 195.472 90.5486V101.471H189.336V79.5563H195.472V81.064C196.682 79.679 199.241 79.0654 201.24 79.0654C207.218 79.0654 211.373 84.1846 211.373 90.496L211.356 101.418Z" fill="black"/>
<path d="M49.54 80.1166C48.5583 80.2218 47.6466 79.6257 47.3311 78.6965V78.5914V78.4862C47.3486 77.5219 48.0674 76.7155 49.0316 76.5928C49.5576 76.5051 50.101 76.435 50.6445 76.3999C55.6059 75.9616 75.2939 75.2078 75.2939 75.2078C75.2939 75.2078 55.9741 79.1699 51.0302 79.9413C50.5393 80.0289 50.0484 80.0815 49.54 80.1166Z" fill="#FBD51B"/>
<path d="M247.173 69.1602V101.418H241.02V69.1602H247.173Z" fill="black"/>
<path d="M88.8455 42.6869C89.0384 41.6 88.4072 40.5481 87.3729 40.1974H87.1625C86.0755 40.0922 85.0762 40.7935 84.7957 41.8454C84.638 42.4064 84.5328 42.9849 84.4276 43.5635C83.5335 48.9281 81.0615 69.9835 81.0615 69.9835C81.0615 69.9835 87.2677 49.5417 88.565 44.3173C88.6702 43.7563 88.7754 43.2304 88.8455 42.6869Z" fill="#EF882C"/>
<path d="M42.2292 39.0046C40.6338 37.83 38.6703 37.7073 37.6184 38.7592L37.5132 38.8644L37.4255 38.9871C36.584 40.1968 37.0223 42.1252 38.4599 43.4927C39.0384 44.0362 39.8274 44.7024 40.7741 45.4562C48.1022 51.3118 77.7656 72.9807 77.7656 72.9807C77.7656 72.9807 51.3281 47.0691 44.368 40.8279C43.5616 40.074 42.8253 39.4604 42.2292 39.0046Z" fill="#FBD51B"/>
<path d="M40.6165 66.0749C39.3016 65.9697 38.1095 66.8287 37.7764 68.091V68.4066C37.7413 69.7039 38.653 70.8434 39.9328 71.1064C40.6165 71.2467 41.3002 71.3519 41.9839 71.4045C48.3829 72.0531 76.2756 74.2972 76.2756 74.2972C76.2756 74.2972 48.8388 67.4599 42.58 66.3028C41.9313 66.1801 41.2827 66.1099 40.6165 66.0749Z" fill="#EF882C"/>
<path d="M45.3492 56.6777C44.087 56.2218 42.6844 56.7828 42.0533 57.9575L41.9832 58.0802L41.9306 58.2204C41.4748 59.4827 42.0358 60.8852 43.2104 61.5164C43.824 61.8319 44.4551 62.0949 45.0863 62.3403C51.0119 64.6896 77.1164 73.5956 77.1164 73.5956C77.1164 73.5956 52.7651 60.219 47.1199 57.449C46.5414 57.1685 45.9628 56.9056 45.3492 56.6777Z" fill="#E94E32"/>
<path d="M53.8702 41.6354C53.1339 40.4082 53.3969 38.8304 54.4838 37.9012L54.6066 37.8136L54.7293 37.7259C55.974 37.0246 57.5343 37.3227 58.4109 38.4447C58.8667 39.0232 59.2875 39.6193 59.6732 40.2505C63.4074 46.0709 78.467 72.3332 78.467 72.3332C78.467 72.3332 59.1823 48.8058 55.0624 43.3711C54.6416 42.8101 54.2384 42.2315 53.8702 41.6354Z" fill="#EF882C"/>
<path d="M80.9912 34.6747C80.9737 33.3248 79.9919 32.1852 78.6595 31.9749H78.344C77.0291 32.2554 76.0999 33.4475 76.1525 34.7974C76.1525 35.376 76.1525 36.1649 76.2226 37.059C76.6785 44.0541 80.0095 70.8949 80.0095 70.8949C80.0095 70.8949 81.0088 43.756 81.0613 36.796C81.0613 35.9545 81.0438 35.2357 80.9912 34.6747Z" fill="#FBD51B"/>
<path d="M65.0371 20.071C64.441 18.5808 62.8632 17.7393 61.2853 18.0724L61.1275 18.125L60.9698 18.1951C59.5146 18.8789 58.7783 20.5268 59.2166 22.0696C59.4445 22.8936 59.7075 23.6825 60.023 24.4714C62.793 31.8171 79.2026 71.6137 79.2026 71.6137C79.2026 71.6137 67.9999 29.8361 65.7909 22.3326C65.5981 21.5612 65.3526 20.8073 65.0371 20.071Z" fill="#E94E32"/>
<path d="M102.31 69.1602V87.0073C102.31 95.1244 97.5415 101.997 88.2849 101.997C81.7456 101.997 76.5563 98.7534 74.9434 91.6005L81.0969 89.7422C82.3943 94.9315 86.1986 95.5451 88.3199 95.5451C93.2112 95.5451 95.6481 91.3025 95.6481 87.0248V75.2261H89.9328V69.1777L102.31 69.1602Z" fill="black"/>
<path d="M250.977 72.1914C250.925 70.1928 252.485 68.5449 254.484 68.4923C256.482 68.4397 258.13 70 258.183 71.9986C258.235 73.9972 256.675 75.6451 254.677 75.6977H254.519C252.59 75.6802 251.03 74.1199 250.977 72.1914ZM257.639 101.417H251.503V79.5547H257.639V101.417Z" fill="black"/>
</g>
<defs>
<clipPath id="clip0_1693_512">
<rect width="246" height="104" fill="white" transform="translate(37 18)"/>
</clipPath>
</defs>
</svg>
