<svg width="266" height="256" viewBox="0 0 266 256" fill="none" xmlns="http://www.w3.org/2000/svg">
<path d="M0 249.13L29.422 244.333V11.5155L0 7.03822V0.00254006H97.5404C120.566 0.00254006 125.564 2.13457 139.209 6.39862C152.854 10.6627 162.768 17.1654 168.951 25.9067C175.133 34.4348 178.225 45.7346 178.225 59.806C178.225 90.5072 172.161 110.122 133.358 118.65V120.249C157.024 123.447 175.359 130.483 188.365 141.356C201.583 152.229 208.193 167.367 208.193 186.768C208.193 210.221 199.558 227.597 182.289 238.896C165.232 250.196 142.1 255.846 112.891 255.846H0V249.13ZM100.099 117.691C117.155 117.691 120.567 112.893 129.734 103.299C138.902 93.7052 143.486 80.0602 143.486 62.3644V60.4456C143.486 25.4803 134.638 7.99764 97.5404 7.99764H64.6005V117.691H100.099ZM112.891 248.171C131.013 248.171 145.085 242.947 155.105 232.5C165.126 221.84 170.136 206.703 170.136 187.088V183.57C170.136 164.169 165.126 149.671 155.105 140.077C145.298 130.483 131.226 125.686 112.891 125.686H64.6005V248.171H112.891Z" fill="white"/>
<path d="M209.472 255.843V251.204L225.71 248.884V142.876L209.472 140.556V135.917H248.906V248.884L265.144 251.204V255.843H209.472Z" fill="white"/>
<path d="M224.461 119.927C212.253 119.927 202.054 117.321 193.865 112.11C185.677 106.899 181.582 100.125 181.582 91.7874C181.582 87.4698 182.699 84.1199 184.932 81.7377C187.314 79.2067 190.441 77.9412 194.312 77.9412C197.29 77.9412 199.821 78.6856 201.905 80.1744C203.99 81.6633 205.478 83.7477 206.372 86.4276C203.096 90.0008 201.459 93.7974 201.459 97.8173C201.459 102.433 203.543 106.453 207.712 109.877C211.88 113.301 217.464 115.013 224.461 115.013C233.841 115.013 241.509 112.929 247.464 108.76C253.419 104.443 256.397 98.7106 256.397 91.5641C256.397 87.3953 255.132 84.2688 252.6 82.1844C250.069 80.1 245.156 77.7178 237.861 75.0379L204.138 62.7549C190.888 57.9906 184.262 49.132 184.262 36.179C184.262 25.6082 187.91 16.9729 195.205 10.273C202.501 3.42435 212.55 0 225.355 0C235.925 0 244.933 2.4566 252.377 7.36979C259.97 12.1341 263.767 18.9828 263.767 27.9159C263.767 31.4891 262.799 34.3924 260.864 36.6256C258.928 38.71 256.397 39.7522 253.27 39.7522C250.144 39.7522 247.538 38.9334 245.454 37.2956C243.518 35.509 242.551 33.1269 242.551 30.1492C244.486 28.6603 245.826 27.097 246.571 25.4593C247.315 23.6727 247.687 21.5883 247.687 19.2061C247.687 15.0374 245.826 11.613 242.104 8.93308C238.531 6.25316 232.948 4.9132 225.355 4.9132C218.804 4.9132 213.146 5.95539 208.382 8.03977C203.766 9.97528 200.267 12.5808 197.885 15.8562C195.503 19.1317 194.312 22.4816 194.312 25.9059C194.312 29.4792 195.578 32.308 198.109 34.3924C200.789 36.4768 205.627 38.7845 212.625 41.3155L243.891 52.4819C251.186 55.1618 256.695 58.8839 260.417 63.6482C264.139 68.4125 266 74.5913 266 82.1844C266 93.053 262.576 102.06 255.727 109.207C248.878 116.353 238.456 119.927 224.461 119.927Z" fill="white"/>
</svg>
