<svg width="320" height="140" viewBox="0 0 320 140" fill="none" xmlns="http://www.w3.org/2000/svg">
<g clip-path="url(#clip0_1693_511)">
<mask id="mask0_1693_511" style="mask-type:luminance" maskUnits="userSpaceOnUse" x="19" y="46" width="282" height="49">
<path d="M301 46H19V94.0387H301V46Z" fill="white"/>
</mask>
<g mask="url(#mask0_1693_511)">
<path d="M295.634 73.639H289.479C287.727 73.639 286.639 71.7477 287.51 70.2369L290.587 64.9107C290.99 64.2043 290.99 63.3456 290.587 62.639L287.51 57.313C286.639 55.8021 284.454 55.8021 283.584 57.313L279.853 63.7695L274.818 72.4977C274.415 73.2043 273.665 73.6282 272.849 73.6282H272.403C270.653 73.6282 269.565 71.7369 270.434 70.226L274.165 63.7586V63.7369L279.211 55.0195C279.614 54.313 279.614 53.4543 279.211 52.7478L276.134 47.4217C275.264 45.9109 273.078 45.9109 272.208 47.4217L268.478 53.8782L262.79 63.7369L257.102 73.5956L253.37 80.052C252.5 81.5629 253.588 83.4542 255.34 83.4542H272.871C273.676 83.4542 274.427 83.0195 274.84 82.3239L279.223 74.7478C279.625 74.0521 280.376 73.6173 281.191 73.6173H281.637C283.388 73.6173 284.476 75.5086 283.605 77.0195L281.843 80.0738C280.973 81.5847 282.061 83.476 283.813 83.476H298.733C300.485 83.476 301.571 81.5847 300.701 80.0738L297.624 74.7478C297.222 74.0412 296.471 73.6173 295.656 73.6173L295.634 73.639Z" fill="#1D1D1B"/>
<path d="M38.0542 53.5413C35.977 51.4652 33.4538 50.4217 30.4847 50.4217H19V83.5086H23.5352V71.8347H30.4847C33.4429 71.8347 35.9661 70.7803 38.0542 68.6716C40.1314 66.5956 41.1756 64.0738 41.1756 61.1065C41.1756 58.1391 40.1314 55.6282 38.0542 53.5413ZM34.8459 65.3999C33.6169 66.6282 32.1704 67.2477 30.4956 67.2477H23.546V54.9978H30.4956C32.1704 54.9978 33.6169 55.5956 34.8459 56.7912C36.0422 58.0195 36.6403 59.4543 36.6403 61.0955C36.6403 62.7369 36.0422 64.2043 34.8459 65.3999Z" fill="#1D1D1B"/>
<path d="M52.9108 59.3021C49.5394 59.3021 46.7116 60.4978 44.4495 62.8891C42.2091 65.2803 41.0889 68.2151 41.0889 71.6826C41.0889 75.15 42.2091 78.0521 44.4495 80.476C46.7225 82.8673 49.5394 84.0629 52.9108 84.0629C56.2822 84.0629 59.1099 82.8673 61.3721 80.476C63.6125 78.0521 64.7326 75.1174 64.7326 71.6826C64.7326 68.2477 63.6125 65.2912 61.3721 62.8891C59.0991 60.4978 56.2822 59.3021 52.9108 59.3021ZM58.1529 77.2695C56.7934 78.7478 55.0424 79.4868 52.8999 79.4868C50.7574 79.4868 49.0064 78.7478 47.6469 77.2695C46.2876 75.726 45.6132 73.8673 45.6132 71.6934C45.6132 69.5196 46.2876 67.6281 47.6469 66.1174C49.0064 64.6391 50.7466 63.8999 52.8999 63.8999C55.0533 63.8999 56.7934 64.6391 58.1529 66.1174C59.5123 67.6281 60.1866 69.4868 60.1866 71.6934C60.1866 73.8999 59.5123 75.726 58.1529 77.2695Z" fill="#1D1D1B"/>
<path d="M65.9609 64.4542H78.0656L65.9609 78.9215V83.5084H84.3082V78.9215H72.2036L84.3082 64.4542V59.8673H65.9609V64.4542Z" fill="#1D1D1B"/>
<path d="M97.9248 59.3022C95.4342 59.3022 93.4005 60.1717 91.8235 61.9C91.7256 61.9978 91.6278 62.0955 91.5191 62.2044C91.4103 62.313 91.3233 62.4543 91.258 62.6064V59.8673H86.8643V83.4977H91.4538V70.8782C91.4538 68.7696 92.0193 67.063 93.1612 65.7695C94.2597 64.5086 95.6626 63.8782 97.3702 63.8782C99.0776 63.8782 100.491 64.5086 101.623 65.7695C102.721 67.0304 103.276 68.737 103.276 70.8782V83.4977H107.865V71.0194C107.865 67.4869 106.93 64.6499 105.07 62.5087C103.21 60.3673 100.829 59.2913 97.9248 59.2913V59.3022Z" fill="#1D1D1B"/>
<path d="M133.303 83.5086V59.8673H129.051V63.1282C128.953 62.9977 128.866 62.8565 128.768 62.7043C128.67 62.5521 128.55 62.4 128.387 62.2804C126.626 60.2912 124.276 59.3021 121.34 59.3021C117.968 59.3021 115.195 60.4978 113.02 62.8891C110.812 65.2803 109.714 68.2151 109.714 71.6826C109.714 75.15 110.812 78.0521 113.02 80.476C115.195 82.8673 117.968 84.0629 121.34 84.0629C124.276 84.0629 126.626 83.1065 128.387 81.1826C128.518 81.0521 128.627 80.9108 128.746 80.7587C128.855 80.6064 128.964 80.4434 129.051 80.2913V83.5086H133.303ZM128.224 74.7368C127.898 75.6716 127.398 76.5087 126.734 77.2695C125.44 78.7804 123.743 79.5412 121.623 79.5412C119.502 79.5412 117.729 78.7804 116.37 77.2695C114.978 75.7586 114.292 73.8999 114.292 71.6934C114.292 69.4868 114.989 67.6281 116.37 66.1174C117.729 64.6065 119.469 63.8455 121.623 63.8455C123.776 63.8455 125.44 64.6065 126.734 66.1174C127.398 66.8782 127.898 67.7043 128.224 68.6173C128.55 69.5303 128.725 70.5521 128.725 71.6934C128.725 72.8347 128.561 73.8129 128.224 74.7368Z" fill="#1D1D1B"/>
<path d="M139.97 49.2803C139.154 49.2803 138.469 49.5521 137.936 50.0847C137.371 50.6499 137.088 51.3455 137.088 52.1608C137.088 52.976 137.371 53.6281 137.936 54.1934C138.502 54.7586 139.187 55.0412 139.97 55.0412C140.753 55.0412 141.438 54.7586 142.004 54.1934C142.569 53.6608 142.852 52.976 142.852 52.1608C142.852 51.3455 142.569 50.6499 142.004 50.0847C141.471 49.5521 140.786 49.2803 139.97 49.2803Z" fill="#1D1D1B"/>
<path d="M137.654 82.889C137.654 84.5954 137.056 86.0411 135.86 87.2368C134.631 88.465 133.162 89.0846 131.466 89.0846V93.6715C134.424 93.6715 136.969 92.6172 139.079 90.5085C141.189 88.3998 142.244 85.8564 142.244 82.8998V59.8673H137.654V82.889Z" fill="#1D1D1B"/>
<path d="M173.543 69.2262H182.287C181.939 71.6827 180.993 73.8131 179.449 75.6065C177.143 78.1935 174.283 79.487 170.846 79.487C167.409 79.487 164.614 78.2695 162.385 75.8457C160.144 73.3892 159.025 70.4218 159.025 66.9544C159.025 63.487 160.144 60.5305 162.385 58.074C164.624 55.6501 167.442 54.4327 170.846 54.4327C174.25 54.4327 177.186 55.737 179.449 58.3566L182.754 55.0523C181.994 54.2371 181.178 53.4979 180.297 52.8566C179.416 52.2153 178.448 51.6718 177.414 51.2262C176.403 50.7479 175.349 50.411 174.25 50.1827C173.14 49.9653 172.009 49.8566 170.846 49.8566C166.147 49.8566 162.254 51.5088 159.165 54.824C156.044 58.161 154.488 62.2153 154.488 66.9653C154.488 71.7153 156.033 75.7696 159.122 79.1174C162.211 82.4218 166.125 84.0848 170.846 84.0848C173.173 84.0848 175.349 83.6283 177.372 82.7152C179.416 81.8022 181.199 80.5305 182.712 78.8891C185.702 75.6174 187.203 71.6392 187.203 66.9762V64.7045H173.532V69.237L173.543 69.2262Z" fill="#1D1D1B"/>
<path d="M208.215 50.4217H202.353L197.241 56.7043H202.396L208.215 50.4217Z" fill="#1D1D1B"/>
<path d="M199.884 59.3021C196.513 59.3021 193.686 60.4978 191.423 62.8891C189.183 65.2803 188.062 68.2151 188.062 71.6826C188.062 75.15 189.183 78.0521 191.423 80.476C193.696 82.8673 196.513 84.0629 199.884 84.0629C203.256 84.0629 206.083 82.8673 208.345 80.476C210.586 78.0521 211.707 75.1174 211.707 71.6826C211.707 68.2477 210.586 65.2912 208.345 62.8891C206.073 60.4978 203.256 59.3021 199.884 59.3021ZM205.137 77.2695C203.778 78.7478 202.027 79.4868 199.884 79.4868C197.742 79.4868 195.991 78.7478 194.631 77.2695C193.271 75.726 192.598 73.8673 192.598 71.6934C192.598 69.5196 193.271 67.6281 194.631 66.1174C195.991 64.6391 197.731 63.8999 199.884 63.8999C202.038 63.8999 203.778 64.6391 205.137 66.1174C206.496 67.6281 207.171 69.4868 207.171 71.6934C207.171 73.8999 206.496 75.726 205.137 77.2695Z" fill="#1D1D1B"/>
<path d="M245.617 59.8673L238.102 77.5411L230.587 59.8673H227.084C225.126 59.8673 223.398 60.2586 221.886 61.0521C220.907 61.5848 220.026 62.2477 219.232 63.0413C219.102 63.1717 218.982 63.3021 218.851 63.4433C218.732 63.5738 218.623 63.7043 218.536 63.8347V63.2804L218.525 59.8782H214.132V83.5086H218.721V72.1608C218.754 71.726 218.819 71.313 218.906 70.8999C219.254 69.1934 220.081 67.7477 221.375 66.5738C222.951 65.1608 224.855 64.4435 227.096 64.4435H227.552L235.697 83.3999L234.849 85.4325C234.382 86.5629 233.654 87.4324 232.675 88.0303C231.696 88.6608 230.597 88.9759 229.368 88.9759H227.291V93.5085H229.368C231.445 93.5085 233.371 92.9434 235.133 91.802C236.894 90.6715 238.189 89.139 239.015 87.2151L250.554 59.8456H245.639L245.617 59.8673Z" fill="#1D1D1B"/>
</g>
</g>
<defs>
<clipPath id="clip0_1693_511">
<rect width="282" height="48.0387" fill="white" transform="translate(19 46)"/>
</clipPath>
</defs>
</svg>
