<svg width="320" height="140" viewBox="0 0 320 140" fill="none" xmlns="http://www.w3.org/2000/svg">
<g clip-path="url(#clip0_1693_548)">
<mask id="mask0_1693_548" style="mask-type:luminance" maskUnits="userSpaceOnUse" x="65" y="51" width="189" height="38">
<path d="M254 51H65V88.5734H254V51Z" fill="white"/>
</mask>
<g mask="url(#mask0_1693_548)">
<path d="M187.552 58.5401C189.627 58.5401 191.309 56.8522 191.309 54.77C191.309 52.6879 189.627 51 187.552 51C185.477 51 183.795 52.6879 183.795 54.77C183.795 56.8522 185.477 58.5401 187.552 58.5401Z" fill="black"/>
<path d="M119.67 61.8442C106.836 61.8442 96.4092 72.3072 96.4092 85.1847V88.4041H103.417V85.1847C103.417 76.2043 110.72 68.876 119.67 68.876H120.219V61.8442H119.67Z" fill="black"/>
<path d="M165.98 88.4039C163.573 88.4039 161.336 87.8111 159.352 86.625C157.368 85.4388 155.764 83.8292 154.582 81.8382C153.4 79.8472 152.809 77.6022 152.809 75.1452C152.809 72.6884 153.4 70.4858 154.582 68.4524C155.764 66.4191 157.368 64.8518 159.352 63.6657C161.336 62.4796 163.573 61.8866 165.98 61.8866C168.386 61.8866 170.581 62.4796 172.608 63.6657V53.7535L179.193 52.991V75.1029C179.193 77.5598 178.602 79.7626 177.42 81.7959C176.238 83.8292 174.634 85.3966 172.65 86.5825C170.666 87.7686 168.428 88.3616 165.98 88.3616V88.4039ZM165.98 81.7534C167.795 81.7534 169.357 81.1181 170.666 79.8049C171.974 78.4917 172.608 76.9669 172.608 75.1029C172.608 73.2392 171.974 71.7142 170.666 70.401C169.357 69.0878 167.795 68.4524 165.98 68.4524C164.165 68.4524 162.603 69.0878 161.336 70.401C160.07 71.7142 159.394 73.2392 159.394 75.1029C159.394 76.9669 160.027 78.4917 161.336 79.8049C162.645 81.1181 164.165 81.7534 165.98 81.7534Z" fill="black"/>
<path d="M190.761 61.8442H184.344V88.4041H190.761V61.8442Z" fill="black"/>
<path d="M105.781 61.8442H96.4092V71.5023C98.6466 67.5205 101.897 64.2164 105.781 61.8442Z" fill="black"/>
<path d="M106.161 71.7989H106.288V71.6293C106.288 71.6293 106.203 71.7564 106.161 71.7989Z" fill="black"/>
<path d="M92.3559 61.8865V88.6157H65C76.2294 82.1771 85.6435 72.9848 92.3559 61.8865Z" fill="black"/>
<path d="M135.753 61.8018C128.407 61.8018 122.666 67.6899 122.666 75.1877C122.666 82.6854 128.154 88.4464 135.753 88.4464C140.566 88.4464 144.872 86.3706 147.025 83.0243L147.109 82.8547L141.916 78.9577L141.747 78.8306L141.621 79.0424C140.397 81.0758 138.201 82.3042 135.711 82.3042C132.798 82.3042 130.603 80.6098 129.8 77.7293H148.333V77.5597C148.502 76.7973 148.544 76.0349 148.544 75.23C148.544 67.6052 143.014 61.8442 135.711 61.8442L135.753 61.8018ZM135.668 67.7746C138.412 67.7746 140.777 69.6384 141.621 72.3918H129.843C130.645 69.5537 132.882 67.7746 135.668 67.7746Z" fill="black"/>
<path d="M222.253 88.4041H215.668V75.1454C215.668 73.6627 215.33 72.4343 214.697 71.46C214.063 70.4857 213.219 69.7232 212.206 69.2572C211.193 68.7913 210.137 68.5371 209.04 68.5371C207.942 68.5371 206.887 68.7913 205.874 69.2572C204.86 69.7232 204.016 70.4857 203.383 71.46C202.75 72.4343 202.412 73.6627 202.412 75.1454V88.4041H195.826V75.1454C195.826 72.6036 196.291 70.4432 197.262 68.6219C198.233 66.8004 199.499 65.3601 201.061 64.2588C203.425 62.6491 206.085 61.8442 209.04 61.8442C211.995 61.8442 214.654 62.6491 217.019 64.2588C218.581 65.3601 219.847 66.8004 220.818 68.6219C221.789 70.4432 222.253 72.6036 222.253 75.1454V88.4041Z" fill="black"/>
<path d="M254 88.4041H247.415V75.1454C247.415 73.6627 247.077 72.4343 246.444 71.46C245.811 70.4857 244.966 69.7232 243.953 69.2572C242.94 68.7913 241.884 68.5371 240.787 68.5371C239.689 68.5371 238.634 68.7913 237.621 69.2572C236.607 69.7232 235.763 70.4857 235.13 71.46C234.497 72.4343 234.159 73.6627 234.159 75.1454V88.4041H227.573V75.1454C227.573 72.6036 228.038 70.4432 229.009 68.6219C229.98 66.8004 231.246 65.3601 232.808 64.2588C235.172 62.6491 237.832 61.8442 240.787 61.8442C243.742 61.8442 246.402 62.6491 248.766 64.2588C250.328 65.3601 251.594 66.8004 252.565 68.6219C253.536 70.4432 254 72.6036 254 75.1454V88.4041Z" fill="black"/>
</g>
</g>
<defs>
<clipPath id="clip0_1693_548">
<rect width="189" height="37.5734" fill="white" transform="translate(65 51)"/>
</clipPath>
</defs>
</svg>
